<svg xmlns="http://www.w3.org/2000/svg" width="214.404" height="32.844" viewBox="0 0 214.404 32.844">
  <g id="Group_210" data-name="Group 210" transform="translate(-378 -446.078)">
    <path id="Path_273" data-name="Path 273" d="M17.093,28.173l-8.6,4.521a1.311,1.311,0,0,1-1.9-1.385l1.644-9.573a1.311,1.311,0,0,0-.378-1.162L.9,13.793a1.311,1.311,0,0,1,.726-2.237l9.615-1.4a1.311,1.311,0,0,0,.989-.716L16.526.73a1.311,1.311,0,0,1,2.35,0l4.3,8.71a1.311,1.311,0,0,0,.986.716l9.615,1.4a1.311,1.311,0,0,1,.726,2.237l-6.958,6.782a1.311,1.311,0,0,0-.378,1.159l1.644,9.575a1.311,1.311,0,0,1-1.9,1.385l-8.6-4.521a1.311,1.311,0,0,0-1.22,0Z" transform="translate(377.501 446.077)" fill="#fcbf02"/>
    <path id="Path_274" data-name="Path 274" d="M17.093,28.173l-8.6,4.521a1.311,1.311,0,0,1-1.9-1.385l1.644-9.573a1.311,1.311,0,0,0-.378-1.162L.9,13.793a1.311,1.311,0,0,1,.726-2.237l9.615-1.4a1.311,1.311,0,0,0,.989-.716L16.526.73a1.311,1.311,0,0,1,2.35,0l4.3,8.71a1.311,1.311,0,0,0,.986.716l9.615,1.4a1.311,1.311,0,0,1,.726,2.237l-6.958,6.782a1.311,1.311,0,0,0-.378,1.159l1.644,9.575a1.311,1.311,0,0,1-1.9,1.385l-8.6-4.521a1.311,1.311,0,0,0-1.22,0Z" transform="translate(422.501 446.077)" fill="#fcbf02"/>
    <path id="Path_275" data-name="Path 275" d="M17.093,28.173l-8.6,4.521a1.311,1.311,0,0,1-1.9-1.385l1.644-9.573a1.311,1.311,0,0,0-.378-1.162L.9,13.793a1.311,1.311,0,0,1,.726-2.237l9.615-1.4a1.311,1.311,0,0,0,.989-.716L16.526.73a1.311,1.311,0,0,1,2.35,0l4.3,8.71a1.311,1.311,0,0,0,.986.716l9.615,1.4a1.311,1.311,0,0,1,.726,2.237l-6.958,6.782a1.311,1.311,0,0,0-.378,1.159l1.644,9.575a1.311,1.311,0,0,1-1.9,1.385l-8.6-4.521a1.311,1.311,0,0,0-1.22,0Z" transform="translate(467.501 446.077)" fill="#fcbf02"/>
    <path id="Path_276" data-name="Path 276" d="M17.093,28.173l-8.6,4.521a1.311,1.311,0,0,1-1.9-1.385l1.644-9.573a1.311,1.311,0,0,0-.378-1.162L.9,13.793a1.311,1.311,0,0,1,.726-2.237l9.615-1.4a1.311,1.311,0,0,0,.989-.716L16.526.73a1.311,1.311,0,0,1,2.35,0l4.3,8.71a1.311,1.311,0,0,0,.986.716l9.615,1.4a1.311,1.311,0,0,1,.726,2.237l-6.958,6.782a1.311,1.311,0,0,0-.378,1.159l1.644,9.575a1.311,1.311,0,0,1-1.9,1.385l-8.6-4.521a1.311,1.311,0,0,0-1.22,0Z" transform="translate(512.501 446.077)" fill="#fcbf02"/>
    <path id="Path_277" data-name="Path 277" d="M17.093,28.173l-8.6,4.521a1.311,1.311,0,0,1-1.9-1.385l1.644-9.573a1.311,1.311,0,0,0-.378-1.162L.9,13.793a1.311,1.311,0,0,1,.726-2.237l9.615-1.4a1.311,1.311,0,0,0,.989-.716L16.526.73a1.311,1.311,0,0,1,2.35,0l4.3,8.71a1.311,1.311,0,0,0,.986.716l9.615,1.4a1.311,1.311,0,0,1,.726,2.237l-6.958,6.782a1.311,1.311,0,0,0-.378,1.159l1.644,9.575a1.311,1.311,0,0,1-1.9,1.385l-8.6-4.521a1.311,1.311,0,0,0-1.22,0Z" transform="translate(557.501 446.077)" fill="#fcbf02"/>
  </g>
</svg>
