<svg width="96" height="28" viewBox="0 0 96 28" fill="none" xmlns="http://www.w3.org/2000/svg">
<g clip-path="url(#clip0_1045_2501)">
<path d="M0.751831 0.394531V27.3942H27.7515V0.394531H0.751831ZM8.32003 6.45094H14.0665C15.76 6.45094 17.0717 6.78411 18.0017 7.45037C18.9317 8.10275 19.3967 9.04646 19.3967 10.2818C19.3967 10.9897 19.23 11.6074 18.8969 12.1349C18.5637 12.6485 18.071 13.058 17.4187 13.3634C18.3209 13.6549 19.008 14.1198 19.4799 14.7583C19.9657 15.383 20.2086 16.1464 20.2086 17.0486C20.2086 17.937 19.9727 18.7004 19.5008 19.3389C19.0427 19.9774 18.3834 20.4701 17.5228 20.8171C16.6622 21.1641 15.6281 21.3376 14.4205 21.3376H8.32003V6.45094ZM11.4222 8.866V12.5721H13.7751C14.5802 12.5721 15.1909 12.4056 15.6073 12.0725C16.0376 11.7255 16.2527 11.2466 16.2527 10.6358C16.2527 9.45599 15.4269 8.866 13.7751 8.866H11.4222ZM11.4222 14.9041V18.9225H14.1289C15.0589 18.9225 15.7739 18.7559 16.2736 18.4227C16.7733 18.0757 17.0231 17.583 17.0231 16.9445C17.0231 15.5842 16.0723 14.9041 14.1706 14.9041H11.4222ZM68.2508 0.394531V27.3942H95.2505V0.394531H68.2508ZM82.8595 6.13846C83.6785 6.13846 84.4489 6.22878 85.1707 6.40922C85.9064 6.57579 86.5865 6.82562 87.2111 7.15875V10.1153C86.642 9.72669 86.0243 9.43519 85.358 9.24086C84.6918 9.03266 83.9909 8.92857 83.2553 8.92857C82.242 8.92857 81.3745 9.12279 80.6527 9.51144C79.9448 9.90009 79.3965 10.4624 79.0078 11.198C78.633 11.9337 78.4456 12.8289 78.4456 13.8838C78.4456 14.9388 78.6261 15.841 78.9869 16.5905C79.3617 17.3262 79.8961 17.8883 80.5901 18.2769C81.298 18.6656 82.1516 18.86 83.151 18.86C84.6778 18.86 86.0869 18.4504 87.3778 17.6315V20.5257C86.767 20.8727 86.059 21.1433 85.2539 21.3376C84.4489 21.5458 83.6023 21.6499 82.7139 21.6499C81.5341 21.6499 80.4722 21.4764 79.5283 21.1294C78.5844 20.7685 77.7863 20.2549 77.1339 19.5887C76.4815 18.9224 75.9818 18.1105 75.6348 17.1527C75.2878 16.1811 75.1143 15.0914 75.1143 13.8838C75.1143 12.704 75.2948 11.6421 75.6557 10.6982C76.0166 9.74046 76.537 8.92157 77.2171 8.24143C77.8973 7.56129 78.7094 7.04069 79.6532 6.6798C80.611 6.31891 81.6797 6.13846 82.8595 6.13846ZM34.5013 0.394531V27.3942H61.501V0.394531H34.5013ZM42.0695 6.45094H47.816C49.5095 6.45094 50.8212 6.78411 51.7512 7.45037C52.6812 8.10275 53.1462 9.04646 53.1462 10.2818C53.1462 10.9897 52.9795 11.6074 52.6464 12.1349C52.3132 12.6485 51.8205 13.058 51.1682 13.3634C52.0704 13.6549 52.7575 14.1198 53.2294 14.7583C53.7152 15.383 53.9581 16.1464 53.9581 17.0486C53.9581 17.937 53.7222 18.7004 53.2503 19.3389C52.7922 19.9774 52.1328 20.4701 51.2723 20.8171C50.4117 21.1641 49.3776 21.3376 48.17 21.3376H42.0695V6.45094ZM45.1717 8.86601V12.5721H47.5246C48.3297 12.5721 48.9404 12.4056 49.3568 12.0725C49.7871 11.7255 50.0022 11.2466 50.0022 10.6358C50.0022 9.45599 49.1764 8.86601 47.5246 8.86601H45.1717ZM45.1717 14.9041V18.9225H47.8784C48.8084 18.9225 49.5234 18.7559 50.0231 18.4227C50.5228 18.0757 50.7726 17.583 50.7726 16.9445C50.7726 15.5842 49.8218 14.9041 47.9201 14.9041H45.1717Z" fill="#E9ECF7"/>
</g>
<defs>
<clipPath id="clip0_1045_2501">
<rect width="94.4987" height="26.9997" fill="white" transform="translate(0.751343 0.394531)"/>
</clipPath>
</defs>
</svg>
