<svg width="1016" height="111" viewBox="0 0 1016 111" fill="none" xmlns="http://www.w3.org/2000/svg">
<path d="M241.645 0.321064C228.013 0.620012 212.163 10.9889 212.163 27.876C212.163 44.7617 220.457 52.1723 237.94 58.2445C258.384 65.3594 259.569 71.875 259.423 79.1318C259.27 85.2039 254.974 93.0585 245.79 93.5034C235.567 93.9484 229.643 88.908 229.202 80.4679H210.088C210.979 97.501 226.091 110.689 244.015 110.689C265.343 110.689 276.308 96.172 276.602 80.9089C276.901 66.9891 273.496 55.583 248.901 47.4293C234.828 42.3945 229.05 38.988 229.05 29.3577C229.05 20.6187 235.721 16.0245 242.531 16.0245C249.201 16.0245 255.421 20.4686 256.012 26.8397H274.679C274.972 14.694 264.458 -0.123882 241.645 0.321064ZM446.82 0.321064C433.186 0.620012 417.338 10.9889 417.338 27.876C417.338 44.7617 425.632 52.1723 443.116 58.2445C463.559 65.3594 464.743 71.875 464.596 79.1318C464.444 85.2039 460.148 93.0585 450.963 93.5034C440.742 93.9484 434.817 88.908 434.377 80.4679H415.263C416.153 97.501 431.264 110.689 449.188 110.689C470.523 110.689 481.483 96.172 481.777 80.9089C482.222 66.9891 478.669 55.583 454.076 47.4293C440.003 42.3945 434.223 38.988 434.223 29.3577C434.223 20.6187 440.894 16.0245 447.706 16.0245C454.376 16.0245 460.593 20.4686 461.185 26.8397H479.854C480.147 14.694 469.632 -0.123882 446.82 0.321064ZM25.3591 3.43439C19.134 3.43439 3.13809 3.43517 0.172241 4.0275V107.132C3.43147 107.724 19.4338 107.871 26.2498 107.871C42.838 107.871 49.0627 105.948 55.5798 100.169C60.9136 95.4275 63.5815 88.1697 63.5815 79.1318C63.5815 63.7283 56.4702 56.7648 47.2849 53.354V52.9151C54.2427 49.2109 59.5774 42.8408 59.5774 29.8053C59.5774 21.5056 56.9104 15.5783 51.8755 11.2818C45.8034 5.50861 37.5045 3.43439 26.3976 3.43439H25.3591ZM111.281 3.43439V107.132H168.163V92.3216H128.318L127.573 91.5764V62.392L128.318 61.6554H161.5V46.5451H128.318L127.573 45.7999V19.1379L128.318 18.397H168.163V3.43439H111.281ZM310.381 3.43439V18.397L338.082 18.2449L338.825 19.1379V107.132H355.121V19.1379L355.858 18.2449L383.561 18.397V3.43439H310.381ZM529.335 3.43439V107.132H586.072V92.1673H546.22L545.477 91.4308V62.392L546.22 61.6554H579.402V46.5451H546.22L545.477 45.7999V19.1379L546.22 18.397H586.072V3.43439H529.335ZM639.398 3.43439V107.132H696.435V92.3216L656.438 92.1673L655.699 91.4308V3.43439H639.398ZM737.767 3.43439V107.132H794.651V92.3216H754.8L754.063 91.4308V3.43439H737.767ZM839.835 3.43439V107.132H896.72V92.1673H856.868L856.129 91.4308V62.392L856.868 61.6554H890.056V46.5451H856.868L856.129 45.7999V19.1379L856.868 18.397H896.72V3.43439H839.835ZM974.049 3.43439C967.683 3.43439 951.974 3.43517 949.014 4.0275V107.132H965.308V63.1372L966.047 62.392H974.049C981.457 62.392 984.123 67.2818 987.382 74.3912C991.824 84.1675 993.899 92.9119 998.049 107.132H1015.83C1014.2 101.651 1008.12 83.5757 1002.94 69.5028C999.826 61.2102 995.828 56.6135 991.086 55.4288V54.9856C999.678 51.5804 1009.01 45.6537 1009.46 30.3962C1009.75 22.6945 1007.97 15.7313 1003.09 10.9885C996.866 5.06374 987.084 3.43439 974.049 3.43439ZM17.2119 18.2449H19.8776H27.4339C39.7311 18.2449 43.4307 24.3235 43.4307 31.5803C43.4307 40.4709 39.8775 46.3973 28.1726 46.3973C27.8792 46.5447 17.2119 46.5451 17.2119 46.5451L16.4667 45.6522V18.9901L17.2119 18.2449ZM966.047 18.397H976.421C988.419 18.397 992.716 26.1013 992.716 32.1734C992.716 44.3232 984.715 46.6911 976.567 46.5451H966.047L965.308 45.7999V19.1379L966.047 18.397ZM17.2119 61.6554H27.2862C38.6921 61.6554 46.5418 67.134 46.5418 77.6501C46.5418 85.9497 42.8377 92.3216 28.1726 92.3216H21.6548H17.2119L16.4667 91.5764V62.392L17.2119 61.6554Z" fill="#627D98"/>
</svg>
