<svg width="1050" height="1050" viewBox="0 0 1050 1050" fill="none" xmlns="http://www.w3.org/2000/svg">
<g clip-path="url(#clip0_48_14737)">
<g filter="url(#filter0_f_48_14737)">
<path d="M774.442 714.072C787.736 713.847 800.597 718.804 810.312 727.893C820.028 736.984 825.837 749.497 826.515 762.795C827.194 776.09 822.688 789.131 813.948 799.165C805.209 809.199 792.919 815.442 779.671 816.576C696.614 825.241 619.39 863.373 561.963 924.08C557.329 928.979 551.779 932.914 545.628 935.664C539.476 938.415 532.844 939.925 526.109 940.108C519.376 940.291 512.671 939.144 506.38 936.732C500.088 934.322 494.332 930.693 489.442 926.054C484.549 921.417 480.619 915.858 477.874 909.698C475.126 903.538 473.618 896.897 473.435 890.153C473.252 883.41 474.398 876.698 476.805 870.397C479.214 864.098 482.837 858.333 487.47 853.436C561.735 774.862 661.631 725.5 769.088 714.279C770.868 714.113 772.655 714.045 774.442 714.072Z" fill="url(#paint0_radial_48_14737)" fill-opacity="0.2"/>
</g>
<g filter="url(#filter1_f_48_14737)">
<path d="M275.591 335.056C262.296 335.278 249.435 330.323 239.72 321.233C230.005 312.143 224.195 299.63 223.516 286.333C222.838 273.036 227.345 259.996 236.085 249.962C244.823 239.928 257.113 233.685 270.362 232.551C353.42 223.886 430.643 185.754 488.07 125.046C492.702 120.148 498.252 116.212 504.405 113.462C510.555 110.712 517.189 109.202 523.922 109.019C530.658 108.836 537.362 109.982 543.653 112.394C549.945 114.805 555.701 118.433 560.592 123.072C565.482 127.71 569.414 133.268 572.16 139.428C574.905 145.588 576.413 152.229 576.596 158.973C576.781 165.716 575.635 172.429 573.226 178.729C570.819 185.029 567.194 190.793 562.563 195.691C488.297 274.265 388.4 323.628 280.944 334.848C279.164 335.012 277.377 335.083 275.591 335.056Z" fill="url(#paint1_radial_48_14737)" fill-opacity="0.2"/>
</g>
<path d="M714.26 274.803C714.038 261.491 718.987 248.613 728.065 238.884C737.143 229.156 749.639 223.339 762.918 222.66C776.196 221.981 789.22 226.492 799.24 235.244C809.26 243.995 815.494 256.301 816.627 269.567C825.28 352.737 863.361 430.064 923.988 487.571C928.879 492.207 932.81 497.767 935.556 503.926C938.302 510.086 939.81 516.728 939.993 523.471C940.176 530.215 939.031 536.927 936.623 543.228C934.215 549.527 930.591 555.292 925.959 560.188C921.326 565.087 915.776 569.024 909.624 571.772C903.473 574.523 896.841 576.033 890.107 576.216C883.372 576.399 876.668 575.252 870.376 572.84C864.085 570.43 858.329 566.801 853.438 562.162C774.97 487.797 725.675 387.765 714.468 280.164C714.304 278.382 714.233 276.593 714.26 274.803Z" fill="url(#paint2_radial_48_14737)" fill-opacity="0.2"/>
<path d="M335.751 774.324C335.973 787.636 331.024 800.514 321.946 810.243C312.868 819.972 300.372 825.789 287.094 826.468C273.814 827.147 260.791 822.635 250.771 813.885C240.751 805.132 234.516 792.826 233.385 779.561C224.73 696.39 186.65 619.064 126.024 561.558C121.132 556.919 117.202 551.362 114.454 545.202C111.709 539.043 110.201 532.401 110.018 525.658C109.835 518.914 110.981 512.2 113.388 505.901C115.797 499.6 119.42 493.837 124.053 488.938C128.685 484.042 134.235 480.105 140.385 477.354C146.538 474.606 153.17 473.096 159.905 472.913C166.638 472.728 173.343 473.875 179.634 476.287C185.925 478.699 191.681 482.326 196.574 486.965C275.04 561.33 324.336 661.362 335.543 768.964C335.707 770.746 335.778 772.535 335.751 774.324Z" fill="url(#paint3_radial_48_14737)" fill-opacity="0.2"/>
<path d="M835.202 481.958C844.445 472.387 857.039 466.784 870.327 466.333C883.616 465.882 896.56 470.617 906.429 479.54C916.298 488.46 922.321 500.873 923.227 514.156C924.132 527.44 919.85 540.555 911.284 550.736C858.671 615.674 830.994 697.316 833.255 780.907C833.438 787.65 832.293 794.363 829.885 800.664C827.477 806.962 823.854 812.727 819.221 817.624C814.589 822.523 809.039 826.459 802.887 829.208C796.736 831.958 790.103 833.469 783.369 833.652C776.635 833.834 769.931 832.688 763.639 830.278C757.347 827.866 751.592 824.236 746.7 819.598C741.809 814.961 737.878 809.401 735.132 803.242C732.386 797.082 730.878 790.44 730.695 783.697C727.724 675.555 763.504 569.915 831.563 485.895C832.705 484.519 833.92 483.204 835.202 481.958Z" fill="url(#paint4_radial_48_14737)" fill-opacity="0.2"/>
<path d="M214.812 567.173C205.57 576.744 192.977 582.347 179.686 582.798C166.398 583.249 153.454 578.514 143.585 569.594C133.717 560.671 127.693 548.26 126.788 534.977C125.881 521.694 130.164 508.576 138.73 498.395C191.344 433.457 219.02 351.815 216.758 268.226C216.575 261.483 217.721 254.769 220.13 248.469C222.537 242.169 226.16 236.406 230.793 231.508C235.425 226.61 240.975 222.674 247.128 219.924C253.278 217.174 259.912 215.664 266.645 215.481C273.379 215.298 280.083 216.444 286.376 218.855C292.668 221.267 298.424 224.895 303.315 229.534C308.205 234.172 312.135 239.73 314.883 245.89C317.628 252.05 319.136 258.691 319.319 265.435C322.29 373.579 286.511 479.216 218.451 563.237C217.31 564.614 216.094 565.927 214.812 567.173Z" fill="url(#paint5_radial_48_14737)" fill-opacity="0.2"/>
<path d="M567.562 835.175C577.121 844.43 582.716 857.041 583.166 870.347C583.616 883.653 578.889 896.616 569.979 906.499C561.069 916.381 548.673 922.412 535.408 923.318C522.142 924.226 509.045 919.938 498.875 911.358C434.028 858.675 352.495 830.96 269.017 833.224C262.284 833.409 255.58 832.263 249.288 829.851C242.995 827.439 237.241 823.811 232.348 819.173C227.457 814.534 223.527 808.976 220.78 802.817C218.035 796.657 216.526 790.015 216.344 783.272C216.161 776.528 217.306 769.814 219.713 763.515C222.12 757.214 225.746 751.451 230.377 746.553C235.01 741.656 240.561 737.719 246.711 734.969C252.864 732.22 259.495 730.71 266.231 730.527C374.228 727.55 479.723 763.38 563.63 831.531C565.005 832.674 566.319 833.891 567.562 835.175Z" fill="url(#paint6_radial_48_14737)" fill-opacity="0.2"/>
<path d="M482.446 213.952C472.887 204.697 467.293 192.086 466.842 178.78C466.392 165.473 471.119 152.511 480.029 142.629C488.939 132.747 501.335 126.716 514.6 125.809C527.866 124.902 540.963 129.19 551.133 137.768C615.981 190.451 697.514 218.166 780.99 215.901C787.725 215.718 794.429 216.865 800.721 219.276C807.012 221.687 812.768 225.316 817.659 229.954C822.551 234.593 826.481 240.151 829.228 246.311C831.974 252.471 833.482 259.112 833.665 265.855C833.848 272.598 832.702 279.312 830.294 285.612C827.887 291.912 824.263 297.676 819.631 302.573C814.998 307.471 809.448 311.407 803.296 314.157C797.145 316.908 790.512 318.418 783.778 318.601C675.78 321.576 570.285 285.747 486.378 217.596C485.003 216.453 483.689 215.236 482.446 213.952Z" fill="url(#paint7_radial_48_14737)" fill-opacity="0.2"/>
<path opacity="0.2" d="M870.376 572.839C876.668 575.251 883.372 576.398 890.107 576.215C896.841 576.032 903.473 574.522 909.624 571.771C915.776 569.023 921.326 565.086 925.959 560.187C930.591 555.291 934.215 549.526 936.623 543.227L870.376 572.839ZM870.376 572.839C864.085 570.429 858.329 566.8 853.438 562.161L870.376 572.839ZM715.26 274.817L715.26 274.801L715.26 274.786C715.042 261.732 719.895 249.104 728.796 239.566L728.161 238.973L728.796 239.565C737.697 230.027 749.949 224.323 762.969 223.657C775.988 222.992 788.757 227.415 798.582 235.996C808.407 244.577 814.52 256.644 815.631 269.651L815.632 269.66L815.633 269.67C824.31 353.077 862.5 430.625 923.299 488.295L923.3 488.295C928.095 492.842 931.95 498.293 934.643 504.333C937.335 510.372 938.814 516.885 938.993 523.497C939.173 530.11 938.05 536.691 935.689 542.87C933.328 549.046 929.774 554.699 925.232 559.5L925.922 560.153L925.232 559.5C920.69 564.303 915.248 568.163 909.216 570.858L909.216 570.858C903.185 573.555 896.682 575.036 890.079 575.215C883.477 575.395 876.903 574.27 870.734 571.905L870.734 571.905C864.565 569.542 858.922 565.984 854.126 561.435L854.125 561.435C775.833 487.236 726.647 387.427 715.463 280.065C715.303 278.32 715.234 276.568 715.26 274.817Z" stroke="url(#paint8_radial_48_14737)" stroke-width="2"/>
<path opacity="0.2" d="M334.751 774.308L334.751 774.323L334.751 774.339C334.969 787.393 330.116 800.021 321.215 809.56C312.313 819.099 300.061 824.802 287.043 825.468C274.022 826.134 261.254 821.71 251.429 813.131C241.604 804.549 235.49 792.482 234.381 779.475L234.38 779.466L234.379 779.457C225.7 696.048 187.511 618.502 126.713 560.832L126.712 560.831C121.915 556.283 118.061 550.834 115.368 544.794C112.676 538.754 111.197 532.242 111.018 525.629C110.839 519.017 111.962 512.433 114.322 506.257C116.684 500.078 120.236 494.428 124.78 489.625C129.321 484.823 134.763 480.963 140.793 478.266C146.826 475.572 153.328 474.091 159.932 473.911L159.932 473.911C166.534 473.73 173.108 474.855 179.276 477.219C185.445 479.584 191.089 483.141 195.886 487.689L195.886 487.69C274.178 561.889 323.364 661.698 334.548 769.06C334.708 770.806 334.777 772.557 334.751 774.308Z" stroke="url(#paint9_radial_48_14737)" stroke-width="2"/>
<path opacity="0.2" d="M774.415 715.072L774.431 715.072L774.447 715.072C787.481 714.852 800.092 719.712 809.617 728.623C819.143 737.537 824.84 749.806 825.505 762.845L826.503 762.795L825.505 762.845C826.17 775.883 821.752 788.669 813.182 798.508C804.613 808.347 792.563 814.467 779.574 815.58L779.565 815.58L779.555 815.581C696.26 824.271 618.816 862.512 561.225 923.393L561.951 924.08L561.225 923.393C556.681 928.196 551.239 932.055 545.208 934.751C539.176 937.448 532.674 938.929 526.07 939.108C519.468 939.288 512.895 938.163 506.726 935.798L506.726 935.798C500.557 933.436 494.914 929.877 490.118 925.328L490.118 925.328C485.32 920.782 481.467 915.331 478.775 909.291L478.775 909.291C476.081 903.251 474.602 896.739 474.423 890.126C474.244 883.514 475.367 876.932 477.727 870.754C480.09 864.577 483.642 858.925 488.185 854.124L488.185 854.123C562.284 775.724 661.958 726.471 769.175 715.275C770.916 715.112 772.666 715.045 774.415 715.072Z" stroke="url(#paint10_radial_48_14737)" stroke-width="2"/>
<path opacity="0.2" d="M275.592 334.056L275.576 334.056L275.56 334.056C262.525 334.274 249.915 329.416 240.39 320.502L239.707 321.232L240.39 320.502C230.864 311.59 225.167 299.32 224.502 286.282C223.836 273.244 228.255 260.457 236.825 250.618L236.071 249.962L236.825 250.618C245.393 240.78 257.443 234.659 270.433 233.547L270.443 233.547L270.452 233.546C353.748 224.856 431.191 186.614 488.783 125.733L488.783 125.733C493.324 120.931 498.767 117.071 504.799 114.375L504.799 114.375C510.829 111.679 517.334 110.198 523.936 110.019C530.54 109.839 537.113 110.963 543.282 113.327C549.45 115.691 555.094 119.249 559.89 123.797C564.685 128.346 568.541 133.795 571.233 139.835C573.924 145.876 575.404 152.387 575.583 159L575.583 159C575.764 165.612 574.641 172.195 572.278 178.372L572.278 178.372C569.918 184.55 566.364 190.201 561.823 195.004L561.822 195.004C487.721 273.403 388.048 322.656 280.832 333.853C279.089 334.014 277.34 334.082 275.592 334.056Z" stroke="url(#paint11_radial_48_14737)" stroke-width="2"/>
<path opacity="0.2" d="M835.899 482.674L835.91 482.663L835.921 482.651C844.984 473.267 857.332 467.774 870.361 467.332C883.39 466.89 896.082 471.532 905.758 480.28L905.758 480.281C915.435 489.027 921.341 501.198 922.229 514.223C923.117 527.248 918.918 540.108 910.518 550.092L910.512 550.099L910.507 550.106C857.744 615.229 829.988 697.104 832.256 780.933C832.435 787.545 831.312 794.127 828.951 800.306C826.59 806.482 823.037 812.135 818.495 816.936L818.495 816.936C813.953 821.739 808.511 825.599 802.479 828.294L802.479 828.294C796.447 830.991 789.945 832.472 783.342 832.651C776.739 832.83 770.166 831.706 763.997 829.343C757.828 826.978 752.184 823.42 747.389 818.871L747.388 818.871C742.592 814.324 738.738 808.873 736.045 802.833C733.353 796.794 731.874 790.281 731.695 783.669L731.695 783.668C728.73 675.766 764.43 570.362 832.336 486.528C833.454 485.181 834.644 483.894 835.899 482.674Z" stroke="url(#paint12_radial_48_14737)" stroke-width="2"/>
<path opacity="0.2" d="M214.115 566.455L214.103 566.466L214.092 566.478C205.03 575.862 192.683 581.356 179.652 581.798C166.624 582.24 153.932 577.598 144.256 568.851C134.58 560.102 128.673 547.933 127.786 534.908C126.897 521.883 131.096 509.021 139.495 499.038L139.501 499.031L139.507 499.023C192.271 433.901 220.026 352.025 217.758 268.198C217.579 261.586 218.702 255.003 221.064 248.826L221.064 248.825C223.424 242.648 226.977 236.996 231.52 232.194L231.52 232.194C236.061 227.392 241.503 223.532 247.536 220.836L247.536 220.836C253.566 218.14 260.07 216.659 266.672 216.48C273.274 216.3 279.848 217.424 286.019 219.788C292.187 222.153 297.831 225.71 302.626 230.258C307.422 234.807 311.275 240.256 313.969 246.296C316.661 252.336 318.14 258.849 318.319 265.461L318.319 265.461C321.284 373.365 285.585 478.766 217.678 562.601C216.561 563.949 215.371 565.234 214.115 566.455Z" stroke="url(#paint13_radial_48_14737)" stroke-width="2"/>
<path opacity="0.2" d="M221.693 802.41C219.002 796.37 217.522 789.857 217.343 783.245C217.164 776.632 218.287 770.048 220.648 763.872C223.008 757.694 226.562 752.043 231.103 747.24C235.647 742.439 241.089 738.579 247.119 735.882C253.152 733.187 259.654 731.706 266.258 731.527L266.258 731.527C374.015 728.556 479.274 764.306 562.995 832.304C564.341 833.422 565.627 834.614 566.843 835.871L566.855 835.882L566.866 835.894C576.24 844.968 581.725 857.333 582.166 870.38C582.608 883.428 577.973 896.139 569.237 905.829C560.5 915.519 548.346 921.432 535.34 922.32L535.339 922.32C522.333 923.21 509.491 919.006 499.52 910.594L499.513 910.588L499.506 910.582C434.473 857.749 352.707 829.954 268.99 832.225C262.388 832.406 255.815 831.282 249.646 828.917L249.337 829.724L249.646 828.917C243.476 826.552 237.834 822.995 233.036 818.447C228.241 813.898 224.387 808.449 221.693 802.41ZM221.693 802.41L220.78 802.817M221.693 802.41C221.693 802.409 221.693 802.409 221.693 802.409L220.78 802.817M220.78 802.817C223.527 808.976 227.457 814.534 232.348 819.173C237.241 823.811 242.995 827.439 249.288 829.851C255.58 832.263 262.284 833.409 269.017 833.224C352.495 830.96 434.028 858.675 498.875 911.358L563.63 831.531C479.723 763.38 374.228 727.55 266.231 730.527C259.495 730.71 252.864 732.22 246.711 734.969C240.561 737.719 235.01 741.656 230.377 746.553C225.746 751.451 222.12 757.214 219.713 763.515C217.306 769.814 216.161 776.528 216.344 783.272C216.526 790.015 218.035 796.657 220.78 802.817Z" stroke="url(#paint14_radial_48_14737)" stroke-width="2"/>
<path opacity="0.2" d="M483.175 213.257L483.163 213.245L483.152 213.234C473.778 204.159 468.293 191.793 467.851 178.746C467.41 165.698 472.045 152.989 480.781 143.299C489.518 133.609 501.672 127.696 514.678 126.806C527.685 125.917 540.526 130.121 550.498 138.532L550.505 138.538L550.512 138.544C615.545 191.378 697.311 219.172 781.027 216.901L781.027 216.901C787.63 216.721 794.204 217.846 800.372 220.21C806.542 222.574 812.185 226.132 816.981 230.68C821.777 235.228 825.631 240.678 828.324 246.718C831.017 252.758 832.495 259.27 832.675 265.882C832.854 272.494 831.731 279.077 829.37 285.255C827.009 291.432 823.456 297.084 818.914 301.886C814.372 306.689 808.929 310.548 802.898 313.244L803.306 314.157L802.898 313.244C796.866 315.941 790.363 317.422 783.761 317.601L783.76 317.601C676.003 320.569 570.744 284.822 487.024 216.824C485.677 215.704 484.391 214.514 483.175 213.257Z" stroke="url(#paint15_radial_48_14737)" stroke-width="2"/>
</g>
<defs>
<filter id="filter0_f_48_14737" x="315.106" y="555.754" width="669.786" height="542.683" filterUnits="userSpaceOnUse" color-interpolation-filters="sRGB">
<feFlood flood-opacity="0" result="BackgroundImageFix"/>
<feBlend mode="normal" in="SourceGraphic" in2="BackgroundImageFix" result="shape"/>
<feGaussianBlur stdDeviation="79.155" result="effect1_foregroundBlur_48_14737"/>
</filter>
<filter id="filter1_f_48_14737" x="65.1392" y="-49.3101" width="669.786" height="542.684" filterUnits="userSpaceOnUse" color-interpolation-filters="sRGB">
<feFlood flood-opacity="0" result="BackgroundImageFix"/>
<feBlend mode="normal" in="SourceGraphic" in2="BackgroundImageFix" result="shape"/>
<feGaussianBlur stdDeviation="79.155" result="effect1_foregroundBlur_48_14737"/>
</filter>
<radialGradient id="paint0_radial_48_14737" cx="0" cy="0" r="1" gradientUnits="userSpaceOnUse" gradientTransform="translate(777.987 763.632) scale(322.565 322.999)">
<stop offset="0.15" stop-color="#004BFF"/>
<stop offset="1" stop-color="#B7D4FF"/>
</radialGradient>
<radialGradient id="paint1_radial_48_14737" cx="0" cy="0" r="1" gradientUnits="userSpaceOnUse" gradientTransform="translate(528.02 158.568) scale(322.565 323)">
<stop offset="0.15" stop-color="#004BFF"/>
<stop offset="1" stop-color="#B7D4FF"/>
</radialGradient>
<radialGradient id="paint2_radial_48_14737" cx="0" cy="0" r="1" gradientUnits="userSpaceOnUse" gradientTransform="translate(773.743 529.854) rotate(140.535) scale(345.912 339.476)">
<stop offset="0.15" stop-color="#084DF2"/>
<stop offset="1" stop-color="#B7D4FF"/>
</radialGradient>
<radialGradient id="paint3_radial_48_14737" cx="0" cy="0" r="1" gradientUnits="userSpaceOnUse" gradientTransform="translate(169.489 780.154) rotate(140.535) scale(345.912 339.475)">
<stop offset="0.15" stop-color="#084DF2"/>
<stop offset="1" stop-color="#B7D4FF"/>
</radialGradient>
<radialGradient id="paint4_radial_48_14737" cx="0" cy="0" r="1" gradientUnits="userSpaceOnUse" gradientTransform="translate(781.335 785.49) rotate(134.961) scale(322.783 322.783)">
<stop offset="0.15" stop-color="#084DF2"/>
<stop offset="1" stop-color="#B7D4FF"/>
</radialGradient>
<radialGradient id="paint5_radial_48_14737" cx="0" cy="0" r="1" gradientUnits="userSpaceOnUse" gradientTransform="translate(177.479 534.647) rotate(134.961) scale(322.783 322.782)">
<stop offset="0.15" stop-color="#084DF2"/>
<stop offset="1" stop-color="#B7D4FF"/>
</radialGradient>
<radialGradient id="paint6_radial_48_14737" cx="0" cy="0" r="1" gradientUnits="userSpaceOnUse" gradientTransform="translate(312.999 898.114) rotate(164.538) scale(450.267 231.393)">
<stop offset="0.15" stop-color="#084DF2"/>
<stop offset="1" stop-color="#B7D4FF"/>
</radialGradient>
<radialGradient id="paint7_radial_48_14737" cx="0" cy="0" r="1" gradientUnits="userSpaceOnUse" gradientTransform="translate(563.487 293.449) rotate(164.538) scale(450.267 231.394)">
<stop offset="0.15" stop-color="#084DF2"/>
<stop offset="1" stop-color="#B7D4FF"/>
</radialGradient>
<radialGradient id="paint8_radial_48_14737" cx="0" cy="0" r="1" gradientUnits="userSpaceOnUse" gradientTransform="translate(827.132 399.413) rotate(-180) scale(112.879 176.821)">
<stop stop-color="#B7D4FF"/>
<stop offset="1" stop-color="#E8F0FF"/>
</radialGradient>
<radialGradient id="paint9_radial_48_14737" cx="0" cy="0" r="1" gradientUnits="userSpaceOnUse" gradientTransform="translate(222.878 649.713) rotate(-180) scale(112.879 176.821)">
<stop stop-color="#B7D4FF"/>
<stop offset="1" stop-color="#E8F0FF"/>
</radialGradient>
<radialGradient id="paint10_radial_48_14737" cx="0" cy="0" r="1" gradientUnits="userSpaceOnUse" gradientTransform="translate(649.987 827.096) rotate(-180) scale(176.583 113.031)">
<stop stop-color="#B7D4FF"/>
<stop offset="1" stop-color="#E8F0FF"/>
</radialGradient>
<radialGradient id="paint11_radial_48_14737" cx="0" cy="0" r="1" gradientUnits="userSpaceOnUse" gradientTransform="translate(400.019 222.032) rotate(-180) scale(176.583 113.032)">
<stop stop-color="#B7D4FF"/>
<stop offset="1" stop-color="#E8F0FF"/>
</radialGradient>
<radialGradient id="paint12_radial_48_14737" cx="0" cy="0" r="1" gradientUnits="userSpaceOnUse" gradientTransform="translate(826.935 649.986) rotate(-180) scale(96.4108 183.683)">
<stop stop-color="#B7D4FF"/>
<stop offset="1" stop-color="#E8F0FF"/>
</radialGradient>
<radialGradient id="paint13_radial_48_14737" cx="0" cy="0" r="1" gradientUnits="userSpaceOnUse" gradientTransform="translate(223.08 399.144) rotate(-180) scale(96.4107 183.683)">
<stop stop-color="#B7D4FF"/>
<stop offset="1" stop-color="#E8F0FF"/>
</radialGradient>
<radialGradient id="paint14_radial_48_14737" cx="0" cy="0" r="1" gradientUnits="userSpaceOnUse" gradientTransform="translate(399.76 826.896) rotate(-180) scale(183.435 96.541)">
<stop stop-color="#B7D4FF"/>
<stop offset="1" stop-color="#E8F0FF"/>
</radialGradient>
<radialGradient id="paint15_radial_48_14737" cx="0" cy="0" r="1" gradientUnits="userSpaceOnUse" gradientTransform="translate(650.258 222.231) rotate(-180) scale(183.435 96.5414)">
<stop stop-color="#B7D4FF"/>
<stop offset="1" stop-color="#E8F0FF"/>
</radialGradient>
<clipPath id="clip0_48_14737">
<rect width="1050" height="1050" fill="white"/>
</clipPath>
</defs>
</svg>
