<svg width="336" height="101" viewBox="0 0 336 101" fill="none" xmlns="http://www.w3.org/2000/svg">
<path fill-rule="evenodd" clip-rule="evenodd" d="M98.6186 0.97168L60.6421 100.028H66.996L104.972 0.97168H98.6186ZM205.683 0.97168L167.78 100.028H174.133L212.037 0.97168H205.683ZM329.472 0.97168L291.568 100.028H297.922L335.826 0.97168H329.472ZM136.011 9.79129C120.674 9.79129 110.304 19.0016 110.304 32.6057C110.304 37.7196 112.068 42.1512 115.343 45.6528C118.51 48.9299 122.386 50.5685 129.438 52.7231L137.252 55.1285C146.58 57.9332 150.909 62.5224 150.909 69.1232C150.909 73.5111 149.127 77.0973 145.505 79.8379C142.321 82.2491 139.3 83.1909 133.455 83.1909C125.281 83.1909 118.98 81.0246 112.349 76.2664L107.748 84.43C115.924 89.471 123.832 91.7918 133.455 91.7918C140.7 91.7918 145.993 90.2524 151.201 86.9082C158.271 82.3949 162.229 75.2605 162.229 67.8112C162.229 62.8168 160.237 57.4697 156.971 53.7436C153.702 50.0175 150.004 47.895 143.022 45.7257L134.039 42.883C124.892 39.9529 121.404 36.6029 121.404 30.7105C121.404 23.13 126.935 18.3922 136.522 18.3922C144.293 18.3922 149.165 20.9521 155.656 25.1709L160.257 17.5904C152.794 12.5407 145.087 9.79129 136.011 9.79129ZM225.183 11.3949V90.1882H235.772V52.5044H269.148V90.1882H279.956V11.3949H269.148V43.6848H235.772V11.3949H225.183ZM0.171875 11.5406V90.334H21.9353C33.9125 90.334 37.021 89.6664 41.4349 88.0015C49.5093 84.8761 54.4345 76.7678 54.4345 68.5401C54.4345 62.5923 52.3546 56.2451 46.9122 52.14C44.4847 50.242 41.8642 49.0903 37.9294 48.204C46.179 45.0056 51.0019 39.4631 51.0019 31.4394C51.0019 23.0309 45.3697 16.1589 36.9798 13.29C32.7849 11.8555 28.7886 11.5407 12.8794 11.5406H0.171875ZM10.5424 20.2874H21.9353C26.0223 20.2874 28.3972 20.5235 30.5531 21.0891C35.8055 22.4245 39.3169 26.6316 39.3169 32.7514C39.3169 34.9031 38.8611 36.2647 38.0754 38.0724C35.8406 43.1921 30.9709 44.7782 24.4915 44.7782H10.5424V20.2874ZM10.5424 53.5249H24.7105C28.6514 53.5249 31.7858 53.9389 33.9857 54.3996C39.422 55.5046 43.3337 60.8867 43.3337 67.7383C43.3337 77.0244 38.8845 81.5144 27.6318 81.5144H10.5424V53.5249Z" fill="#627D98"/>
</svg>
