<svg width="601" height="132" viewBox="0 0 601 132" fill="none" xmlns="http://www.w3.org/2000/svg">
<path d="M195.601 110.808C218.101 110.308 236.001 91.6076 235.501 69.1076C235.001 46.6076 216.301 28.7076 193.801 29.2076C171.601 29.7076 153.901 47.8076 153.901 70.0076C153.601 92.3076 171.401 110.508 193.701 110.808C194.301 110.908 195.001 110.808 195.601 110.808ZM195.601 94.1076C182.201 94.1076 172.901 84.2076 172.901 70.1076C172.901 55.9076 182.201 46.1076 195.601 46.1076C209.001 46.1076 218.301 56.0076 218.301 70.1076C218.301 84.2076 209.001 94.1076 195.601 94.1076ZM323.701 97.7076C315.501 106.308 304.101 111.008 292.201 110.808C268.801 110.808 250.401 93.8076 250.401 70.0076C250.401 46.0076 269.401 29.2076 292.201 29.2076C303.401 29.1076 314.101 33.2076 322.501 40.6076C323.501 41.6076 323.601 43.1076 322.601 44.2076L314.801 53.9076C314.101 55.0076 312.701 55.4076 311.601 54.7076C311.501 54.6076 311.401 54.5076 311.301 54.5076C306.401 49.2076 299.401 46.1076 292.201 46.1076C278.301 46.1076 269.401 56.2076 269.401 70.0076C269.401 83.7076 278.401 93.9076 292.201 93.9076C299.601 93.9076 306.701 90.7076 311.601 85.1076C312.301 84.0076 313.801 83.7076 314.901 84.4076C315.101 84.5076 315.301 84.7076 315.501 84.9076L323.601 93.9076C324.701 94.8076 324.801 96.3076 324.001 97.4076C323.901 97.5076 323.801 97.6076 323.701 97.7076ZM365.301 110.808C374.001 111.308 382.601 108.308 389.001 102.408C389.601 101.808 390.301 101.808 390.301 102.708V107.008C390.101 108.208 391.001 109.408 392.201 109.508C392.401 109.508 392.501 109.508 392.701 109.508H405.101C406.301 109.508 407.301 108.608 407.301 107.408C407.301 107.308 407.301 107.208 407.301 107.108V58.4076C407.301 39.1076 394.801 29.3076 373.701 29.3076C361.101 28.8076 348.901 33.7076 340.201 42.9076C339.501 43.7076 339.601 45.0076 340.401 45.7076C340.401 45.7076 340.401 45.7076 340.501 45.8076L349.001 54.0076C349.901 54.9076 351.401 54.9076 352.301 54.0076C357.601 48.4076 365.001 45.2076 372.801 45.3076C381.901 45.3076 388.301 49.9076 388.301 56.2076C388.301 59.3076 386.501 60.7076 381.601 61.0076L364.001 62.2076C357.001 62.2076 350.201 64.2076 344.401 68.0076C338.601 72.0076 335.101 78.6076 335.101 85.6076C335.201 100.508 347.501 110.808 365.301 110.808ZM368.801 95.4076C360.001 95.4076 354.201 91.4076 354.201 85.4076C354.201 80.0076 357.901 76.7076 365.101 76.1076L379.901 74.8076C382.301 74.6076 384.701 74.2076 387.101 73.8076C388.301 73.5076 388.901 73.9076 388.901 74.8076V79.9076C388.901 89.0076 380.501 95.4076 368.801 95.4076ZM460.501 110.808C466.101 110.908 471.601 109.708 476.601 107.208C479.201 105.908 481.601 104.308 483.801 102.408C484.501 101.808 485.001 102.008 485.001 102.708V107.008C484.801 108.208 485.701 109.408 486.901 109.508C487.101 109.508 487.201 109.508 487.401 109.508H501.301C502.501 109.608 503.601 108.708 503.701 107.508C503.701 107.408 503.701 107.208 503.701 107.108V2.40758C503.801 1.10758 502.801 0.10759 501.501 0.00758988C501.401 0.00758988 501.301 0.00758988 501.301 0.00758988H487.401C486.201 -0.0924101 485.101 0.80759 485.001 2.00759C485.001 2.10759 485.001 2.30758 485.001 2.40758V37.6076C485.001 38.5076 484.401 38.3076 484.101 38.0076C477.801 32.0076 469.301 28.9076 460.701 29.2076C439.001 29.2076 421.601 45.8076 421.601 70.0076C421.501 94.9076 438.401 110.808 460.501 110.808ZM463.101 94.1076C449.801 94.1076 440.501 84.2076 440.501 70.1076C440.501 55.9076 449.801 46.1076 463.101 46.1076C476.401 46.1076 485.701 56.0076 485.701 70.1076C485.601 84.2076 476.401 94.1076 463.101 94.1076ZM560.101 110.808C582.601 110.308 600.501 91.6076 600.001 69.1076C599.501 46.6076 580.801 28.7076 558.301 29.2076C536.101 29.7076 518.401 47.8076 518.401 70.0076C518.101 92.3076 535.901 110.508 558.201 110.808C558.901 110.908 559.501 110.908 560.101 110.808ZM560.101 94.1076C546.701 94.1076 537.401 84.2076 537.401 70.1076C537.401 55.9076 546.701 46.1076 560.101 46.1076C573.501 46.1076 582.801 56.0076 582.801 70.1076C582.801 84.2076 573.601 94.1076 560.101 94.1076Z" fill="#627D98"/>
<path d="M82.601 92.6074C102.301 93.0074 120.001 80.6074 126.201 61.9074C126.801 60.4074 127.301 59.7074 128.301 59.7074C129.901 59.7074 130.501 61.8074 130.501 65.5074C131.001 101.107 102.601 130.407 67.001 131.007C66.601 131.007 66.301 131.007 65.901 131.007C29.701 131.207 0.201025 102.107 0.00102478 66.0074C-0.198975 29.8074 28.901 0.307422 65.001 0.107422C65.601 0.107422 66.301 0.107422 66.901 0.107422C97.501 0.107422 121.901 19.4074 121.901 43.7074C122.101 61.7074 107.601 76.5074 89.601 76.7074C89.301 76.7074 89.101 76.7074 88.801 76.7074C72.001 76.7074 58.101 65.0074 58.101 48.7074C58.101 42.2074 60.301 35.9074 64.201 30.7074C67.201 27.0074 69.901 26.1074 69.901 28.2074C69.501 29.9074 69.301 31.7074 69.101 33.4074C69.501 40.8074 75.801 46.5074 83.201 46.1074C91.201 46.1074 97.701 39.7074 97.701 31.7074C97.701 31.6074 97.701 31.6074 97.701 31.5074C97.701 21.2074 87.101 12.9074 73.401 12.9074C53.001 12.9074 37.701 31.5074 37.701 51.8074C37.901 75.1074 57.701 92.6074 82.601 92.6074Z" fill="#627D98"/>
</svg>
