<svg width="200" height="61" viewBox="0 0 200 61" fill="none" xmlns="http://www.w3.org/2000/svg">
<g clip-path="url(#clip0_89_6306)">
<path d="M32.445 58.607V51.3085L49.8551 39.6875C50.2649 39.4045 50.5997 39.026 50.8304 38.5846C51.0611 38.1432 51.1808 37.6523 51.1792 37.1543V9.68808L64.6138 0.699627C64.9028 0.516941 65.2366 0.417769 65.5785 0.413086C65.9203 0.408404 66.2568 0.498394 66.5507 0.673097C66.8445 0.8478 67.0843 1.1004 67.2435 1.40295C67.4027 1.7055 67.4751 2.0462 67.4526 2.38733V37.1543C67.4648 37.6543 67.3495 38.1491 67.1177 38.5923C66.8858 39.0354 66.5451 39.4123 66.1275 39.6875L35.3307 60.298C35.0304 60.502 34.6764 60.6122 34.3134 60.6148C34.0583 60.6074 33.8073 60.5493 33.5749 60.4441C33.3424 60.3388 33.1332 60.1884 32.9594 60.0016C32.7856 59.8148 32.6506 59.5953 32.5623 59.3559C32.474 59.1165 32.4341 58.8619 32.445 58.607ZM0.00180576 58.607V23.8434C-0.010327 23.3435 0.104823 22.8488 0.336437 22.4056C0.56805 21.9625 0.908522 21.5855 1.32586 21.3102L32.1271 0.699627C32.4188 0.517817 32.7547 0.419239 33.0984 0.414555C33.4422 0.409871 33.7806 0.49926 34.0772 0.673053C34.3738 0.846845 34.6172 1.09843 34.7811 1.40058C34.945 1.70273 35.0232 2.04395 35.0072 2.38733V9.66577L48.2544 0.688472C48.5471 0.505397 48.8843 0.405705 49.2295 0.400148C49.5747 0.394591 49.9148 0.48338 50.2133 0.656939C50.5117 0.830498 50.7571 1.08224 50.923 1.38502C51.0889 1.6878 51.169 2.03012 51.1546 2.37506V9.668L35.005 20.584V9.69031L17.6473 21.3113C17.2371 21.594 16.9021 21.9725 16.6712 22.4139C16.4403 22.8553 16.3204 23.3463 16.3221 23.8445V51.2962L32.435 40.4115V51.323L19.1877 60.298C18.8988 60.4857 18.5632 60.5891 18.2188 60.5965C17.8743 60.6039 17.5346 60.515 17.2379 60.3398C16.9412 60.1647 16.6992 59.9103 16.5392 59.6051C16.3792 59.3 16.3075 58.9562 16.3322 58.6126V51.3219H16.3054L2.8875 60.298C2.58683 60.502 2.23242 60.6123 1.86909 60.6148C1.61408 60.6074 1.36309 60.5493 1.13071 60.444C0.89833 60.3388 0.689194 60.1883 0.515454 60.0015C0.341714 59.8147 0.206836 59.5952 0.118657 59.3558C0.0304791 59.1164 -0.00924087 58.8619 0.00180576 58.607Z" fill="black"/>
<path d="M159.654 55.5957C158.915 55.6357 158.177 55.5125 157.492 55.2349C156.806 54.9573 156.19 54.532 155.687 53.9895C154.891 53.0129 154.469 51.7837 154.499 50.5237C154.469 49.2025 154.944 47.9195 155.827 46.9364C156.319 46.4353 156.911 46.0429 157.564 45.7841C158.217 45.5253 158.917 45.406 159.619 45.4338C160.346 45.3955 161.072 45.5205 161.744 45.7996C162.416 46.0788 163.018 46.5049 163.503 47.0468C164.283 48.0281 164.693 49.2518 164.663 50.5047C164.663 50.7144 164.663 50.8795 164.646 51.1428H157.086C157.09 51.4763 157.161 51.8057 157.295 52.111C157.43 52.4164 157.624 52.6914 157.868 52.9196C158.111 53.1478 158.398 53.3244 158.711 53.4389C159.024 53.5534 159.358 53.6033 159.691 53.5857C160.138 53.6396 160.591 53.5595 160.992 53.3556C161.394 53.1516 161.726 52.833 161.946 52.4401H164.533C164.049 53.8813 162.808 55.5957 159.654 55.5957ZM159.617 47.3312C159.311 47.2987 159.001 47.3291 158.707 47.4206C158.413 47.5121 158.141 47.6628 157.907 47.8634C157.674 48.064 157.484 48.3103 157.349 48.5871C157.214 48.8639 157.137 49.1653 157.123 49.4729H162.02C162.017 49.1698 161.951 48.8704 161.826 48.5943C161.701 48.3181 161.519 48.0712 161.293 47.8695C161.067 47.6677 160.801 47.5156 160.512 47.4229C160.223 47.3302 159.919 47.299 159.617 47.3312ZM123.718 55.5957C121.041 55.5957 120.086 53.9058 120.086 52.459C120.086 50.2973 121.7 49.2465 125.022 49.2465H127.09V48.8895C127.09 47.7875 126.472 47.2732 125.146 47.2732C123.696 47.2732 123.361 47.8778 123.218 48.5326H120.621C120.691 47.6001 121.272 45.4338 125.116 45.4338C125.779 45.3685 126.448 45.4358 127.084 45.6317C127.721 45.8276 128.312 46.1483 128.824 46.5749C129.106 46.8946 129.323 47.2671 129.461 47.6709C129.599 48.0746 129.656 48.5017 129.628 48.9275V52.7201C129.628 53.8723 129.683 55.1261 129.702 55.3314H127.259C127.184 54.9413 127.147 54.545 127.147 54.1479C126.589 55.1094 125.435 55.5957 123.718 55.5957ZM125.057 50.9755C123.369 50.9755 122.617 51.3927 122.617 52.3274C122.617 53.1629 123.287 53.666 124.414 53.666C126.627 53.666 127.091 52.3375 127.091 51.2231V50.9788L125.057 50.9755ZM135.477 55.4072C133.418 55.4072 132.616 54.6019 132.616 52.5338V47.6503H130.873V45.696H132.616V42.7678H135.221V45.6982H137.495V47.6525H135.221V52.1043C135.221 52.9889 135.399 53.4429 136.375 53.4429C136.659 53.444 136.941 53.4179 137.22 53.3648V55.2064C136.653 55.3641 136.065 55.4319 135.477 55.4072ZM111.808 55.4072C109.749 55.4072 108.947 54.6019 108.947 52.5338V47.6503H107.203V45.696H108.945V42.7678H111.55V45.6982H113.825V47.6525H111.55V52.1043C111.55 52.9889 111.728 53.4429 112.706 53.4429C112.99 53.444 113.272 53.4179 113.551 53.3648V55.2064C112.984 55.364 112.396 55.4318 111.808 55.4072ZM93.5383 55.3347H90.9348V48.1221C90.9348 47.3123 90.9348 46.3931 90.9169 45.6971H93.4468C93.4769 45.9302 93.4948 46.4165 93.5104 46.8449L93.5204 47.107C93.8434 46.5539 94.3162 46.1033 94.8842 45.8073C95.4522 45.5112 96.0923 45.3818 96.7307 45.4338C99.0397 45.4338 100.418 46.9219 100.418 49.4149V55.3269H97.7949V49.8477C97.7949 48.7858 97.4602 47.5197 95.8495 47.5197C94.3381 47.5197 93.5383 48.5783 93.5383 50.5817V55.3347ZM149.992 55.3347H147.112L143.153 45.696H145.959C146.474 47.1338 146.99 48.498 147.445 49.7005C148.01 51.1908 148.449 52.3676 148.638 53.0034H148.674C149.002 51.8567 149.698 49.9448 151.334 45.6948H153.973L149.994 55.3314L149.992 55.3347ZM141.774 55.3347H139.17V45.6971H141.774V55.3347ZM118.105 55.3347H115.499V45.6971H118.104V55.3336L118.105 55.3347ZM105.556 55.3347H102.949V45.6971H105.555V55.3336L105.556 55.3347ZM88.3246 55.3347H85.6085V42.0707H88.3235V55.3314L88.3246 55.3347ZM141.774 43.6491H139.17V41.2999H141.774V43.6424V43.6491ZM118.105 43.6491H115.499V41.2999H118.104V43.6424L118.105 43.6491ZM105.556 43.6491H102.949V41.2999H105.555V43.6424L105.556 43.6491ZM191.582 41.5152C191.115 41.518 190.648 41.4807 190.187 41.4036V39.2229C190.51 39.2652 190.835 39.2839 191.16 39.2787C192.453 39.2787 192.805 38.8001 193.416 37.5318L189.16 27.5015H192.003C193.67 31.67 194.54 34.1943 194.792 35.0343H194.829C195.032 34.3282 195.82 31.6957 197.36 27.5015H200.001L196.681 36.0494C195.014 40.3819 194.465 41.5152 191.582 41.5152ZM170.765 37.4013C170.079 37.4603 169.388 37.3697 168.74 37.1356C168.092 36.9015 167.503 36.5296 167.013 36.0455C166.523 35.5615 166.143 34.9768 165.901 34.332C165.659 33.6871 165.56 32.9973 165.61 32.3103C165.591 31.0077 166.067 29.7463 166.943 28.7821C167.951 27.8313 169.273 27.2834 170.658 27.2423C172.043 27.2011 173.395 27.6697 174.457 28.559C175.062 29.1418 175.46 29.9064 175.59 30.7364H172.985C172.844 30.274 172.548 29.8742 172.148 29.6039C171.747 29.3336 171.265 29.2092 170.784 29.2517C169.21 29.2517 168.27 30.3895 168.27 32.2947C168.27 34.1999 169.226 35.3756 170.764 35.3756C171.245 35.4206 171.728 35.3073 172.138 35.0528C172.549 34.7982 172.866 34.4165 173.039 33.9657H175.644C175.135 36.1163 173.31 37.4013 170.765 37.4013ZM135.241 37.4013C134.502 37.4413 133.764 37.3181 133.079 37.0405C132.393 36.7628 131.777 36.3376 131.274 35.795C130.478 34.8184 130.056 33.5892 130.086 32.3293C130.056 31.0078 130.531 29.7243 131.414 28.7408C131.906 28.2395 132.498 27.8468 133.151 27.5879C133.804 27.3289 134.504 27.2094 135.206 27.2372C135.933 27.1989 136.659 27.3239 137.331 27.603C138.003 27.8821 138.605 28.3083 139.09 28.8501C139.87 29.8315 140.28 31.0552 140.25 32.3081C140.25 32.5189 140.25 32.6851 140.233 32.9484H132.668C132.671 33.2818 132.743 33.611 132.877 33.9161C133.011 34.2213 133.206 34.4961 133.449 34.7241C133.693 34.9521 133.98 35.1285 134.293 35.2428C134.606 35.357 134.939 35.4068 135.272 35.389C135.719 35.4431 136.172 35.3631 136.574 35.1591C136.976 34.9552 137.308 34.6364 137.528 34.2434H140.114C139.635 35.6857 138.393 37.4013 135.241 37.4013ZM135.204 29.1357C134.898 29.1031 134.588 29.1335 134.294 29.225C134 29.3166 133.728 29.4672 133.494 29.6679C133.261 29.8685 133.071 30.1147 132.936 30.3915C132.801 30.6683 132.724 30.9698 132.71 31.2774H137.607C137.604 30.9742 137.538 30.6749 137.413 30.3988C137.288 30.1226 137.107 29.8757 136.88 29.674C136.654 29.4722 136.388 29.3201 136.099 29.2274C135.81 29.1347 135.506 29.1034 135.204 29.1357ZM102.929 37.4013C100.691 37.4013 99.4067 35.9512 99.4067 33.4202V27.5015H101.992V32.9673C101.992 34.4911 102.639 35.2964 103.863 35.2964C105.479 35.2964 106.139 34.317 106.139 31.9154V27.5015H108.743V34.3204C108.743 34.6338 108.743 34.9473 108.743 35.2607C108.743 35.8765 108.735 36.5123 108.743 37.1381H106.213C106.188 36.9551 106.18 36.6372 106.171 36.3015C106.171 36.1498 106.163 35.9958 106.157 35.843C105.71 36.6528 105.004 37.4013 102.929 37.4013ZM186.336 37.2128C184.277 37.2128 183.475 36.4074 183.475 34.3394V29.4547H181.732V27.5015H183.475V24.5712H186.08V27.5015H188.355V29.4547H186.08V33.9077C186.08 34.7911 186.259 35.2407 187.235 35.2407C187.518 35.2433 187.801 35.2183 188.079 35.1659V37.0076C187.513 37.167 186.924 37.2362 186.336 37.2128ZM157.445 37.2128C155.386 37.2128 154.584 36.4074 154.584 34.3394V29.4547H152.835V27.5015H154.579V24.5712H157.183V27.5015H159.458V29.4547H157.183V33.9077C157.183 34.7911 157.362 35.2407 158.34 35.2407C158.623 35.244 158.905 35.2189 159.183 35.1659V37.0076C158.617 37.1671 158.029 37.2363 157.441 37.2128H157.445ZM115.04 37.2128C112.981 37.2128 112.179 36.4074 112.179 34.3394V29.4547H110.432V27.5015H112.174V24.5712H114.78V27.5015H117.051V29.4547H114.78V33.9077C114.78 34.7911 114.958 35.2407 115.934 35.2407C116.218 35.2433 116.501 35.2183 116.779 35.1659V37.0076C116.212 37.1671 115.624 37.2363 115.035 37.2128H115.04ZM144.69 37.1392H142.081V29.9243C142.081 29.1145 142.081 28.1976 142.063 27.5015H144.594C144.624 27.7335 144.642 28.2199 144.658 28.6482L144.668 28.9115C144.991 28.3584 145.464 27.9079 146.032 27.6119C146.6 27.3159 147.24 27.1863 147.878 27.2383C150.187 27.2383 151.566 28.7274 151.566 31.2216V37.1336H148.942V31.6533C148.942 30.5903 148.607 29.3242 146.997 29.3242C145.485 29.3242 144.686 30.3828 144.686 32.3862V37.1392H144.69ZM121.32 37.1392H118.724V23.1055H121.29V28.8724C121.629 28.3287 122.112 27.8887 122.685 27.6003C123.257 27.312 123.898 27.1864 124.537 27.2372C126.892 27.2372 128.188 28.6873 128.188 31.3332V37.1336H125.564V31.6533C125.564 30.0638 124.97 29.3242 123.693 29.3242C122.178 29.3242 121.308 30.4743 121.308 32.481V37.1392H121.32ZM86.7328 37.1392H83.9219L89.2594 23.8751H92.6905L98.2846 37.1347H95.3319L93.961 33.795H88.0312L86.7284 37.1414L86.7328 37.1392ZM90.8745 25.7168C90.5789 26.7207 89.7702 28.9516 88.7641 31.5395H93.1679C91.787 28.1429 91.1947 26.6649 90.8924 25.7168H90.8745ZM180.085 37.1381H177.48V27.5015H180.085V37.1381ZM163.736 37.1381H161.132V27.5015H163.736V37.1381ZM180.085 25.4535H177.479V23.111H180.085V25.4535ZM163.736 25.4535H161.132V23.111H163.736V25.4535ZM91.5896 19.2247C90.6433 19.2657 89.6993 19.1023 88.8218 18.7459C87.9443 18.3894 87.1538 17.8481 86.5042 17.1589C85.3623 15.8137 84.756 14.0951 84.8009 12.3311C84.7675 10.5466 85.4097 8.81537 86.599 7.48443C87.2598 6.79445 88.0591 6.25201 88.9444 5.89271C89.8297 5.53342 90.7809 5.36537 91.7357 5.39962C95.6978 5.39962 97.5461 7.67071 97.9544 9.79568H95.2037C94.9504 9.08976 94.4673 8.48939 93.8319 8.09089C93.1966 7.6924 92.4458 7.51889 91.7 7.59821C89.246 7.59821 87.6654 9.41196 87.6654 12.2185C87.6654 15.1511 89.256 17.0462 91.7189 17.0462C92.4643 17.1351 93.2174 16.9627 93.85 16.5586C94.4825 16.1544 94.9554 15.5435 95.188 14.8298H97.9399C96.898 18.4629 93.9108 19.2247 91.5896 19.2247ZM135.277 19.2069C134.538 19.2469 133.8 19.1236 133.114 18.846C132.429 18.5684 131.813 18.1432 131.31 17.6006C130.513 16.624 130.092 15.3948 130.122 14.1349C130.092 12.8133 130.566 11.5299 131.449 10.5464C131.942 10.0453 132.534 9.6528 133.187 9.39404C133.84 9.13528 134.54 9.01599 135.242 9.04386C135.969 9.00556 136.695 9.13055 137.368 9.40967C138.04 9.68879 138.641 10.1149 139.127 10.6568C139.907 11.638 140.318 12.8617 140.288 14.1148C140.288 14.3256 140.288 14.4918 140.271 14.7528H132.708C132.711 15.0864 132.783 15.4157 132.917 15.7211C133.051 16.0264 133.246 16.3015 133.489 16.5296C133.732 16.7578 134.019 16.9345 134.333 17.0489C134.646 17.1634 134.979 17.2133 135.312 17.1957C135.761 17.2508 136.215 17.1714 136.618 16.9676C137.021 16.7638 137.354 16.4449 137.576 16.0512H140.162C139.67 17.4913 138.429 19.2069 135.275 19.2069H135.277ZM135.24 10.9413C134.934 10.9087 134.624 10.9391 134.33 11.0306C134.036 11.1221 133.764 11.2728 133.53 11.4734C133.297 11.674 133.106 11.9203 132.971 12.1971C132.837 12.4739 132.76 12.7754 132.746 13.083H137.642C137.641 12.7795 137.575 12.4799 137.45 12.2034C137.325 11.9269 137.143 11.6797 136.917 11.4779C136.69 11.276 136.424 11.1239 136.135 11.0315C135.846 10.9391 135.541 10.9083 135.24 10.9413ZM104.565 19.2069C103.845 19.2357 103.128 19.113 102.459 18.8469C101.789 18.5808 101.184 18.1771 100.681 17.662C99.8053 16.6907 99.3316 15.4232 99.3554 14.1159C99.3329 12.8019 99.823 11.5308 100.722 10.5721C101.241 10.0604 101.86 9.66086 102.54 9.398C103.22 9.13514 103.947 9.01461 104.675 9.04386C105.412 9.01502 106.146 9.14481 106.828 9.42444C107.51 9.70408 108.124 10.127 108.628 10.6646C109.467 11.6183 109.928 12.8459 109.923 14.1159C109.945 14.7817 109.834 15.4452 109.597 16.0676C109.359 16.6899 108.999 17.2585 108.539 17.7401C108.008 18.2376 107.384 18.6237 106.701 18.8756C106.019 19.1276 105.293 19.2402 104.567 19.2069H104.565ZM104.619 11.0718C102.696 11.0718 102.015 12.7115 102.015 14.1148C101.974 14.4893 102.012 14.868 102.124 15.2276C102.236 15.5872 102.421 15.9199 102.667 16.2051C102.913 16.4904 103.214 16.7221 103.554 16.886C103.893 17.0499 104.262 17.1424 104.638 17.1578C105.898 17.1578 107.243 16.368 107.243 14.1516C107.245 12.6201 106.434 11.0718 104.623 11.0718H104.619ZM157.475 19.0184C155.416 19.0184 154.614 18.2119 154.614 16.1438V11.2603H152.872V9.30376H154.614V6.37677H157.219V9.30376H159.494V11.2603H157.219V15.7132C157.219 16.5967 157.397 17.0462 158.376 17.0462C158.659 17.0485 158.942 17.0231 159.22 16.9704V18.812C158.653 18.972 158.064 19.0417 157.475 19.0184ZM127.177 19.0184C125.118 19.0184 124.316 18.2119 124.316 16.1438V11.2603H122.573V9.30376H124.316V6.37677H126.921V9.30376H129.195V11.2603H126.921V15.7132C126.921 16.5967 127.099 17.0462 128.077 17.0462C128.36 17.0492 128.643 17.0237 128.921 16.9704V18.812C128.354 18.9719 127.765 19.0415 127.177 19.0184ZM144.72 18.9448H142.115V11.7299C142.115 10.9201 142.115 10.0009 142.098 9.30711H144.629C144.659 9.53913 144.677 10.0244 144.692 10.4527L144.702 10.7148C145.025 10.1617 145.498 9.71111 146.066 9.41506C146.634 9.11902 147.274 8.98956 147.913 9.04163C150.222 9.04163 151.6 10.5308 151.6 13.025V18.937H148.977V13.4578C148.977 12.3958 148.642 11.1298 147.032 11.1298C145.52 11.1298 144.72 12.1884 144.72 14.1917V18.9448ZM114.422 18.9448H111.818V11.7299C111.818 10.9201 111.818 10.0009 111.801 9.30711H114.332C114.362 9.53913 114.38 10.0244 114.395 10.4527L114.405 10.7148C114.728 10.1617 115.201 9.71111 115.769 9.41506C116.337 9.11902 116.977 8.98956 117.615 9.04163C119.925 9.04163 121.303 10.5308 121.303 13.025V18.937H118.679V13.4578C118.679 12.3958 118.344 11.1298 116.734 11.1298C115.223 11.1298 114.423 12.1884 114.423 14.1917L114.422 18.9448Z" fill="black"/>
</g>
<defs>
<clipPath id="clip0_89_6306">
<rect width="200" height="61" fill="white"/>
</clipPath>
</defs>
</svg>
