<svg width="19" height="14" viewBox="0 0 19 14" fill="none" xmlns="http://www.w3.org/2000/svg">
<g clip-path="url(#clip0_6047_2705)">
<rect width="19" height="14" rx="3" fill="white"/>
<path fill-rule="evenodd" clip-rule="evenodd" d="M0 0H8.14286V6.53333H0V0Z" fill="#1A47B8"/>
<path fill-rule="evenodd" clip-rule="evenodd" d="M8.14286 0V0.933333H19V0H8.14286ZM8.14286 1.86667V2.8H19V1.86667H8.14286ZM8.14286 3.73333V4.66667H19V3.73333H8.14286ZM8.14286 5.6V6.53333H19V5.6H8.14286ZM0 7.46667V8.4H19V7.46667H0ZM0 9.33333V10.2667H19V9.33333H0ZM0 11.2V12.1333H19V11.2H0ZM0 13.0667V14H19V13.0667H0Z" fill="#F93939"/>
<path fill-rule="evenodd" clip-rule="evenodd" d="M0.904297 0.93335V1.86668H1.80906V0.93335H0.904297ZM2.71382 0.93335V1.86668H3.61858V0.93335H2.71382ZM4.52334 0.93335V1.86668H5.42811V0.93335H4.52334ZM6.33287 0.93335V1.86668H7.23763V0.93335H6.33287ZM5.42811 1.86668V2.80002H6.33287V1.86668H5.42811ZM3.61858 1.86668V2.80002H4.52334V1.86668H3.61858ZM1.80906 1.86668V2.80002H2.71382V1.86668H1.80906ZM0.904297 2.80002V3.73335H1.80906V2.80002H0.904297ZM2.71382 2.80002V3.73335H3.61858V2.80002H2.71382ZM4.52334 2.80002V3.73335H5.42811V2.80002H4.52334ZM6.33287 2.80002V3.73335H7.23763V2.80002H6.33287ZM0.904297 4.66668V5.60002H1.80906V4.66668H0.904297ZM2.71382 4.66668V5.60002H3.61858V4.66668H2.71382ZM4.52334 4.66668V5.60002H5.42811V4.66668H4.52334ZM6.33287 4.66668V5.60002H7.23763V4.66668H6.33287ZM5.42811 3.73335V4.66668H6.33287V3.73335H5.42811ZM3.61858 3.73335V4.66668H4.52334V3.73335H3.61858ZM1.80906 3.73335V4.66668H2.71382V3.73335H1.80906Z" fill="white"/>
</g>
<defs>
<clipPath id="clip0_6047_2705">
<rect width="19" height="14" rx="3" fill="white"/>
</clipPath>
</defs>
</svg>
