<svg width="569" height="336" viewBox="0 0 569 336" fill="none" xmlns="http://www.w3.org/2000/svg">
<g clip-path="url(#clip0_3385_41404)">
<mask id="mask0_3385_41404" style="mask-type:alpha" maskUnits="userSpaceOnUse" x="-81" y="-45" width="743" height="480">
<rect x="-81" y="-45" width="743" height="480" fill="url(#paint0_radial_3385_41404)"/>
</mask>
<g mask="url(#mask0_3385_41404)">
<g opacity="0.8">
<g clip-path="url(#clip1_3385_41404)">
<path d="M45.1059 9H11.9059C9.74872 9 8 10.7487 8 12.9059V34.3882C8 36.5454 9.74872 38.2941 11.9059 38.2941H45.1059C47.263 38.2941 49.0118 36.5454 49.0118 34.3882V12.9059C49.0118 10.7487 47.263 9 45.1059 9Z" fill="#F93939"/>
<path fill-rule="evenodd" clip-rule="evenodd" d="M28.5074 28.5303C31.2024 28.5303 33.3897 26.343 33.3897 23.648C33.3897 20.9529 31.2024 18.7656 28.5074 18.7656C25.8123 18.7656 23.625 20.9529 23.625 23.648C23.625 26.343 25.8123 28.5303 28.5074 28.5303ZM28.5074 26.5774C30.1244 26.5774 31.4368 24.8295 31.4368 22.6715C31.4368 20.5135 30.1244 18.7656 28.5074 18.7656C26.8903 18.7656 25.5779 20.5135 25.5779 22.6715C25.5779 24.8295 26.8903 26.5774 28.5074 26.5774ZM28.5074 24.6244C29.0464 24.6244 29.4838 23.7495 29.4838 22.6715C29.4838 21.5935 29.0464 20.7186 28.5074 20.7186C27.9683 20.7186 27.5309 21.5935 27.5309 22.6715C27.5309 23.7495 27.9683 24.6244 28.5074 24.6244Z" fill="white"/>
<path fill-rule="evenodd" clip-rule="evenodd" d="M35.3398 9H49.0104V38.2941H35.3398V9Z" fill="#249F58"/>
<path fill-rule="evenodd" clip-rule="evenodd" d="M8 9H21.6706V38.2941H8V9Z" fill="#151515"/>
</g>
<g clip-path="url(#clip2_3385_41404)">
<rect x="64.6367" y="9" width="41.0118" height="29.2941" rx="5.85882" fill="#F93939"/>
<path d="M101.743 9H68.5426C66.3854 9 64.6367 10.7487 64.6367 12.9059V34.3882C64.6367 36.5454 66.3854 38.2941 68.5426 38.2941H101.743C103.9 38.2941 105.648 36.5454 105.648 34.3882V12.9059C105.648 10.7487 103.9 9 101.743 9Z" fill="#F93939"/>
<path fill-rule="evenodd" clip-rule="evenodd" d="M85.1437 16.8123L82.2143 14.8594L80.2614 16.8123H82.2143L80.2614 18.7653L76.3555 16.8123V26.577L82.2143 24.6241L80.2614 28.53H78.3084L80.2614 30.4829L82.2143 28.53L85.1437 32.4358V16.8123ZM88.0731 14.8594L90.0261 16.8123H88.0731L90.0261 18.7653L93.9319 16.8123V26.577L88.0731 24.6241L90.0261 28.53H91.979L90.0261 30.4829L88.0731 28.53L85.1437 32.4358V16.8123L88.0731 14.8594Z" fill="#151515"/>
</g>
<g clip-path="url(#clip3_3385_41404)">
<rect x="121.27" y="9" width="41.0118" height="29.2941" rx="5.85882" fill="white"/>
<path d="M158.375 9H125.175C123.018 9 121.27 10.7487 121.27 12.9059V34.3882C121.27 36.5454 123.018 38.2941 125.175 38.2941H158.375C160.533 38.2941 162.281 36.5454 162.281 34.3882V12.9059C162.281 10.7487 160.533 9 158.375 9Z" fill="white"/>
<path fill-rule="evenodd" clip-rule="evenodd" d="M121.27 9H140.799V38.2941H121.27V9Z" fill="#249F58"/>
<path fill-rule="evenodd" clip-rule="evenodd" d="M146.76 29.0436C145.155 31.1078 142.643 32.4358 139.823 32.4358C134.97 32.4358 131.035 28.5007 131.035 23.6476C131.035 18.7946 134.97 14.8594 139.823 14.8594C142.643 14.8594 145.155 16.1874 146.76 18.2516C145.52 17.3494 143.96 16.8123 142.265 16.8123C138.222 16.8123 134.941 19.8726 134.941 23.6476C134.941 27.4226 138.222 30.4829 142.265 30.4829C143.96 30.4829 145.52 29.9458 146.76 29.0436Z" fill="#F93939"/>
<path fill-rule="evenodd" clip-rule="evenodd" d="M146.656 23.6462L148.609 22.6697L149.586 20.7168L150.562 22.6697L152.515 23.6462L150.562 24.6227L149.586 26.5756L148.609 24.6227L146.656 23.6462Z" fill="#F93939"/>
</g>
<g clip-path="url(#clip4_3385_41404)">
<path d="M215.012 9H181.812C179.655 9 177.906 10.7487 177.906 12.9059V34.3882C177.906 36.5454 179.655 38.2941 181.812 38.2941H215.012C217.169 38.2941 218.918 36.5454 218.918 34.3882V12.9059C218.918 10.7487 217.169 9 215.012 9Z" fill="#FFDA2C"/>
<path fill-rule="evenodd" clip-rule="evenodd" d="M201.218 28.4032C202.417 28.038 203.296 26.9229 203.296 25.6007V19.7419C203.296 18.1112 201.984 16.8125 200.367 16.8125H196.461C194.848 16.8125 193.531 18.121 193.531 19.7419V25.6007C193.531 26.9326 194.406 28.0419 195.609 28.4052C195.972 29.616 197.09 30.4831 198.414 30.4831C199.746 30.4831 200.855 29.6043 201.218 28.4032Z" fill="#D4AF2C"/>
<path fill-rule="evenodd" clip-rule="evenodd" d="M195.484 18.7656H197.437V21.695H195.484V18.7656ZM199.39 22.6715H201.343V25.6009H199.39V22.6715Z" fill="#AF010D"/>
<path fill-rule="evenodd" clip-rule="evenodd" d="M199.39 18.7656H201.343V21.695H199.39V18.7656ZM195.484 22.6715H197.437V25.6009H195.484V22.6715Z" fill="#FFDA2C"/>
<path fill-rule="evenodd" clip-rule="evenodd" d="M205.246 9H218.917V38.2941H205.246V9Z" fill="#F93939"/>
<path fill-rule="evenodd" clip-rule="evenodd" d="M177.906 9H191.577V38.2941H177.906V9Z" fill="#1A47B8"/>
</g>
<g clip-path="url(#clip5_3385_41404)">
<rect x="234.543" y="9" width="41.0118" height="29.2941" rx="5.85882" fill="white"/>
<path fill-rule="evenodd" clip-rule="evenodd" d="M234.543 28.5293H275.555V38.294H234.543V28.5293Z" fill="#151515"/>
<path fill-rule="evenodd" clip-rule="evenodd" d="M234.543 9H275.555V18.7647H234.543V9Z" fill="#AF010D"/>
<path fill-rule="evenodd" clip-rule="evenodd" d="M234.543 9V38.3586L254.072 23.6471L234.543 9Z" fill="#249F58"/>
</g>
<g clip-path="url(#clip6_3385_41404)">
<rect x="291.176" y="9" width="41.0118" height="29.2941" rx="5.85882" fill="#F93939"/>
<path d="M328.282 9H295.082C292.925 9 291.176 10.7487 291.176 12.9059V34.3882C291.176 36.5454 292.925 38.2941 295.082 38.2941H328.282C330.439 38.2941 332.188 36.5454 332.188 34.3882V12.9059C332.188 10.7487 330.439 9 328.282 9Z" fill="#F93939"/>
<path fill-rule="evenodd" clip-rule="evenodd" d="M291.176 24.623H332.188V38.2936H291.176V24.623Z" fill="#151515"/>
<path fill-rule="evenodd" clip-rule="evenodd" d="M315.493 27.7197C316.341 26.5831 316.841 25.1731 316.841 23.6459C316.841 20.7809 315.077 18.328 312.577 17.3105L311.396 18.9647C313.415 19.5642 314.888 21.4332 314.888 23.6459C314.888 24.8059 314.483 25.8722 313.808 26.7081L307.076 22.6694L312.341 27.9345C311.648 28.3134 310.851 28.5282 310.005 28.5282C308.365 28.5282 306.914 27.7197 306.029 26.4777L304.848 28.1318C306.099 29.5711 307.945 30.4812 310.005 30.4812C311.392 30.4812 312.685 30.0672 313.763 29.3563L314.888 30.4812L316.841 28.5282L315.493 27.7197ZM307.076 18.7635H309.029V20.7165H307.076V18.7635Z" fill="#FFDA2C"/>
</g>
<g clip-path="url(#clip7_3385_41404)">
<rect x="347.812" y="9" width="41.0118" height="29.2941" rx="5.85882" fill="#151515"/>
<rect x="347.812" y="9" width="41.0118" height="29.2941" fill="#151515"/>
<path fill-rule="evenodd" clip-rule="evenodd" d="M347.812 26.5762H388.824V38.2938H347.812V26.5762Z" fill="white"/>
<path d="M368.32 26.5768C372.095 26.5768 375.155 23.5166 375.155 19.7415C375.155 15.9665 372.095 12.9062 368.32 12.9062C364.545 12.9062 361.484 15.9665 361.484 19.7415C361.484 23.5166 364.545 26.5768 368.32 26.5768Z" fill="#FFDA2C"/>
<path fill-rule="evenodd" clip-rule="evenodd" d="M347.812 20.7168H388.824V26.5756H347.812V20.7168Z" fill="#3A99FF"/>
<path fill-rule="evenodd" clip-rule="evenodd" d="M369.295 38.2941H347.812V9L369.295 38.2941Z" fill="#F93939"/>
<path fill-rule="evenodd" clip-rule="evenodd" d="M367.344 38.2941H388.826V9L367.344 38.2941Z" fill="#F93939"/>
</g>
<g clip-path="url(#clip8_3385_41404)">
<path d="M441.551 9H408.351C406.194 9 404.445 10.7487 404.445 12.9059V34.3882C404.445 36.5454 406.194 38.2941 408.351 38.2941H441.551C443.708 38.2941 445.457 36.5454 445.457 34.3882V12.9059C445.457 10.7487 443.708 9 441.551 9Z" fill="white"/>
<path fill-rule="evenodd" clip-rule="evenodd" d="M404.445 28.5294H445.457V38.2941H404.445V28.5294ZM404.445 9H445.457V18.7647H404.445V9Z" fill="#3ECBF8"/>
<path d="M424.953 26.5756C426.571 26.5756 427.882 25.2641 427.882 23.6462C427.882 22.0283 426.571 20.7168 424.953 20.7168C423.335 20.7168 422.023 22.0283 422.023 23.6462C422.023 25.2641 423.335 26.5756 424.953 26.5756Z" fill="#FFDA2C"/>
</g>
<g clip-path="url(#clip9_3385_41404)">
<path d="M498.188 9H464.988C462.831 9 461.082 10.7487 461.082 12.9059V34.3882C461.082 36.5454 462.831 38.2941 464.988 38.2941H498.188C500.345 38.2941 502.094 36.5454 502.094 34.3882V12.9059C502.094 10.7487 500.345 9 498.188 9Z" fill="#1A47B8"/>
<path fill-rule="evenodd" clip-rule="evenodd" d="M461.082 28.5293H502.094V38.294H461.082V28.5293Z" fill="#FFDA2C"/>
<path fill-rule="evenodd" clip-rule="evenodd" d="M461.082 9H502.094V18.7647H461.082V9Z" fill="#F93939"/>
</g>
<g clip-path="url(#clip10_3385_41404)">
<rect x="517.719" y="9" width="41.0118" height="29.2941" rx="5.85882" fill="#3ECBF8"/>
<path d="M554.825 9H521.625C519.467 9 517.719 10.7487 517.719 12.9059V34.3882C517.719 36.5454 519.467 38.2941 521.625 38.2941H554.825C556.982 38.2941 558.731 36.5454 558.731 34.3882V12.9059C558.731 10.7487 556.982 9 554.825 9Z" fill="#3ECBF8"/>
<path fill-rule="evenodd" clip-rule="evenodd" d="M517.719 26.5762H558.731V28.5291H517.719V26.5762ZM517.719 30.4821H558.731V32.435H517.719V30.4821Z" fill="#FFDA2C"/>
<path fill-rule="evenodd" clip-rule="evenodd" d="M526.478 17.7593C528.177 17.6519 529.437 17.2711 529.437 16.8121C529.437 16.3551 528.177 15.9724 526.478 15.865C526.371 14.1659 525.99 12.9062 525.531 12.9062C525.074 12.9062 524.691 14.1659 524.584 15.865C522.885 15.9724 521.625 16.3532 521.625 16.8121C521.625 17.2691 522.885 17.6519 524.584 17.7593C524.691 19.4584 525.072 20.718 525.531 20.718C525.988 20.718 526.371 19.4584 526.478 17.7593Z" fill="#F93939"/>
<path fill-rule="evenodd" clip-rule="evenodd" d="M526.478 17.7592C528.177 17.6518 529.437 17.271 529.437 16.812C529.437 16.3551 528.177 15.9723 526.478 15.8649C526.371 14.1658 525.99 12.9062 525.531 12.9062C525.074 12.9062 524.691 14.1658 524.584 15.8649C522.885 15.9723 521.625 16.3531 521.625 16.812C521.625 17.269 522.885 17.6518 524.584 17.7592C524.691 19.4583 525.072 20.7179 525.531 20.7179C525.988 20.7179 526.371 19.4583 526.478 17.7592ZM526.537 18.7357L527.454 17.8178C527.308 20.1574 526.82 21.6944 525.531 21.6944C524.242 21.6944 523.754 20.1555 523.609 17.8198L524.523 18.7337C522.187 18.5892 520.648 18.101 520.648 16.812C520.648 15.5231 522.187 15.0349 524.523 14.8903L523.609 15.8043C523.754 13.4686 524.242 11.9297 525.531 11.9297C526.82 11.9297 527.308 13.4686 527.452 15.8043L526.539 14.8903C528.874 15.0349 530.413 15.5231 530.413 16.812C530.413 18.101 528.874 18.5892 526.539 18.7337L526.537 18.7357Z" fill="white"/>
</g>
<g clip-path="url(#clip11_3385_41404)">
<path d="M45.1059 53.918H11.9059C9.74872 53.918 8 55.6667 8 57.8239V79.3062C8 81.4634 9.74872 83.2121 11.9059 83.2121H45.1059C47.263 83.2121 49.0118 81.4634 49.0118 79.3062V57.8239C49.0118 55.6667 47.263 53.918 45.1059 53.918Z" fill="#F93939"/>
<path fill-rule="evenodd" clip-rule="evenodd" d="M8 73.4473H49.0118V83.212H8V73.4473Z" fill="#249F58"/>
<path fill-rule="evenodd" clip-rule="evenodd" d="M31.4336 67.5879H33.3865V69.5408H31.4336V67.5879Z" fill="white"/>
<path fill-rule="evenodd" clip-rule="evenodd" d="M32.4132 71.4954C31.5227 72.6808 30.1049 73.4483 28.5074 73.4483C25.8123 73.4483 23.625 71.261 23.625 68.5659C23.625 65.8709 25.8123 63.6836 28.5074 63.6836C30.1049 63.6836 31.5227 64.4511 32.4132 65.6365H29.4838C27.8668 65.6365 26.5544 66.9489 26.5544 68.5659C26.5544 70.183 27.8668 71.4954 29.4838 71.4954H32.4132Z" fill="white"/>
<path fill-rule="evenodd" clip-rule="evenodd" d="M8 53.918H49.0118V63.6827H8V53.918Z" fill="#3ECBF8"/>
</g>
<g clip-path="url(#clip12_3385_41404)">
<path d="M101.743 53.918H68.5426C66.3854 53.918 64.6367 55.6667 64.6367 57.8239V79.3062C64.6367 81.4634 66.3854 83.2121 68.5426 83.2121H101.743C103.9 83.2121 105.648 81.4634 105.648 79.3062V57.8239C105.648 55.6667 103.9 53.918 101.743 53.918Z" fill="#FFDA2C"/>
<path fill-rule="evenodd" clip-rule="evenodd" d="M64.6367 73.4474H105.648V83.2121H64.6367V73.4474ZM64.6367 53.918H105.648V63.6827H64.6367V53.918Z" fill="#3ECBF8"/>
<path fill-rule="evenodd" clip-rule="evenodd" d="M64.6367 53.918V83.2765L86.1191 68.565L64.6367 53.918Z" fill="#151515"/>
</g>
<g clip-path="url(#clip13_3385_41404)">
<rect x="121.27" y="53.918" width="41.0118" height="29.2941" rx="5.85882" fill="#249F58"/>
<path d="M158.375 53.918H125.175C123.018 53.918 121.27 55.6667 121.27 57.8239V79.3062C121.27 81.4634 123.018 83.2121 125.175 83.2121H158.375C160.533 83.2121 162.281 81.4634 162.281 79.3062V57.8239C162.281 55.6667 160.533 53.918 158.375 53.918Z" fill="#249F58"/>
<path d="M139.823 77.3538C144.677 77.3538 148.612 73.4192 148.612 68.5656C148.612 63.712 144.677 59.7773 139.823 59.7773C134.97 59.7773 131.035 63.712 131.035 68.5656C131.035 73.4192 134.97 77.3538 139.823 77.3538Z" fill="#F93939"/>
</g>
<g clip-path="url(#clip14_3385_41404)">
<path d="M215.012 53.918H181.812C179.655 53.918 177.906 55.6667 177.906 57.8239V79.3062C177.906 81.4634 179.655 83.2121 181.812 83.2121H215.012C217.169 83.2121 218.918 81.4634 218.918 79.3062V57.8239C218.918 55.6667 217.169 53.918 215.012 53.918Z" fill="#FFDA2C"/>
<path fill-rule="evenodd" clip-rule="evenodd" d="M177.906 53.918H191.577V83.2121H177.906V53.918ZM205.247 53.918H218.918V83.2121H205.247V53.918Z" fill="#1A47B8"/>
<path fill-rule="evenodd" clip-rule="evenodd" d="M197.437 73.4469H199.39V75.3998H197.437V73.4469ZM201.343 69.541H203.296V71.494H201.343V69.541ZM193.531 69.541H195.484V71.494H193.531V69.541Z" fill="#AE6A3E"/>
<path fill-rule="evenodd" clip-rule="evenodd" d="M199.39 69.5422V61.7305H197.437V69.5422H195.484V71.4952H197.437V73.4481H199.39V71.4952H201.343V69.5422H199.39ZM201.343 63.6834H203.296V69.5422H201.343V63.6834ZM193.531 63.6834H195.484V69.5422H193.531V63.6834Z" fill="#151515"/>
</g>
<g clip-path="url(#clip15_3385_41404)">
<rect x="234.543" y="53.918" width="41.0118" height="29.2941" rx="5.85882" fill="#F93939"/>
<path d="M271.649 53.918H238.449C236.292 53.918 234.543 55.6667 234.543 57.8239V79.3062C234.543 81.4634 236.292 83.2121 238.449 83.2121H271.649C273.806 83.2121 275.555 81.4634 275.555 79.3062V57.8239C275.555 55.6667 273.806 53.918 271.649 53.918Z" fill="#F93939"/>
<path fill-rule="evenodd" clip-rule="evenodd" d="M244.309 75.4004H275.556V83.2122H244.309V75.4004Z" fill="#249F58"/>
<path fill-rule="evenodd" clip-rule="evenodd" d="M240.402 53.918L244.308 56.8474L240.402 59.7768V53.918ZM240.402 59.7768L244.308 62.7062L240.402 65.6356V59.7768ZM240.402 65.6356L244.308 68.565L240.402 71.4944V65.6356ZM240.402 71.4944L244.308 74.4239L240.402 77.3533V71.4944ZM240.402 77.3533L244.308 80.2827L240.402 83.2121V77.3533ZM238.449 53.918L234.543 56.8474L238.449 59.7768V53.918ZM238.449 59.7768L234.543 62.7062L238.449 65.6356V59.7768ZM238.449 65.6356L234.543 68.565L238.449 71.4944V65.6356ZM238.449 71.4944L234.543 74.4239L238.449 77.3533V71.4944ZM238.449 77.3533L234.543 80.2827L238.449 83.2121V77.3533ZM238.449 53.918H240.402V57.8239H238.449V53.918ZM238.449 79.3062H240.402V83.2121H238.449V79.3062ZM238.449 63.6827H240.402V67.5886H238.449V63.6827ZM238.449 59.7768H240.402V61.7297H238.449V59.7768ZM238.449 75.4003H240.402V77.3533H238.449V75.4003ZM238.449 69.5415H240.402V73.4474H238.449V69.5415Z" fill="white"/>
</g>
<g clip-path="url(#clip16_3385_41404)">
<path d="M328.282 53.918H295.082C292.925 53.918 291.176 55.6667 291.176 57.8239V79.3062C291.176 81.4634 292.925 83.2121 295.082 83.2121H328.282C330.439 83.2121 332.188 81.4634 332.188 79.3062V57.8239C332.188 55.6667 330.439 53.918 328.282 53.918Z" fill="#FFDA2C"/>
<path fill-rule="evenodd" clip-rule="evenodd" d="M318.516 53.918H332.186V83.2121H318.516V53.918Z" fill="#F93939"/>
<path fill-rule="evenodd" clip-rule="evenodd" d="M291.176 53.918H304.846V83.2121H291.176V53.918Z" fill="#151515"/>
</g>
<g clip-path="url(#clip17_3385_41404)">
<rect x="347.812" y="53.918" width="41.0118" height="29.2941" rx="5.85882" fill="#1A47B8"/>
<path d="M368.319 77.3538C373.173 77.3538 377.108 73.4192 377.108 68.5656C377.108 63.712 373.173 59.7773 368.319 59.7773C363.466 59.7773 359.531 63.712 359.531 68.5656C359.531 73.4192 363.466 77.3538 368.319 77.3538Z" fill="white"/>
<path fill-rule="evenodd" clip-rule="evenodd" d="M364.414 69.541H372.226V71.494H364.414V69.541Z" fill="#CBCBCB"/>
<path fill-rule="evenodd" clip-rule="evenodd" d="M363.438 63.6834H365.39V65.6364H363.438V63.6834ZM367.343 61.7305H369.296V63.6834H367.343V61.7305ZM371.249 63.6834H373.202V65.6364H371.249V63.6834ZM373.202 67.5893H375.155V69.5422H373.202V67.5893ZM371.249 71.4952H373.202V73.4481H371.249V71.4952Z" fill="#249F58"/>
<path fill-rule="evenodd" clip-rule="evenodd" d="M369.293 67.5879H371.246V69.5408H369.293V67.5879Z" fill="#AE6A3E"/>
<path fill-rule="evenodd" clip-rule="evenodd" d="M365.391 67.5879H367.344V69.5408H365.391V67.5879Z" fill="#FFDA2C"/>
<path fill-rule="evenodd" clip-rule="evenodd" d="M367.343 73.4467H369.296V75.3997H367.343V73.4467ZM363.437 71.4938H365.39V73.4467H363.437V71.4938ZM361.484 67.5879H363.437V69.5408H361.484V67.5879Z" fill="#249F58"/>
<path fill-rule="evenodd" clip-rule="evenodd" d="M369.293 65.6348H371.246V67.5877H369.293V65.6348Z" fill="#151515"/>
<path fill-rule="evenodd" clip-rule="evenodd" d="M365.391 65.6348H367.344V67.5877H365.391V65.6348Z" fill="#AE6A3E"/>
<path fill-rule="evenodd" clip-rule="evenodd" d="M347.812 79.3062H388.824V83.2121H347.812V79.3062ZM347.812 53.918H388.824V57.8239H347.812V53.918Z" fill="#F93939"/>
</g>
<g clip-path="url(#clip18_3385_41404)">
<rect x="404.445" y="53.918" width="41.0118" height="29.2941" rx="5.85882" fill="#FFDA2C"/>
<path d="M441.551 53.918H408.351C406.194 53.918 404.445 55.6667 404.445 57.8239V79.3062C404.445 81.4634 406.194 83.2121 408.351 83.2121H441.551C443.708 83.2121 445.457 81.4634 445.457 79.3062V57.8239C445.457 55.6667 443.708 53.918 441.551 53.918Z" fill="#FFDA2C"/>
<path fill-rule="evenodd" clip-rule="evenodd" d="M420.07 69.541H445.459V83.2116H420.07V69.541Z" fill="#F93939"/>
<path fill-rule="evenodd" clip-rule="evenodd" d="M404.445 53.918H420.069V83.2121H404.445V53.918Z" fill="#249F58"/>
</g>
<g clip-path="url(#clip19_3385_41404)">
<rect x="461.082" y="53.918" width="41.0118" height="29.2941" rx="5.85882" fill="#FF6C2D"/>
<path d="M498.188 53.918H464.988C462.831 53.918 461.082 55.6667 461.082 57.8239V79.3062C461.082 81.4634 462.831 83.2121 464.988 83.2121H498.188C500.345 83.2121 502.094 81.4634 502.094 79.3062V57.8239C502.094 55.6667 500.345 53.918 498.188 53.918Z" fill="#FF6C2D"/>
<path fill-rule="evenodd" clip-rule="evenodd" d="M461.082 83.2121L502.094 53.918H461.082V83.2121Z" fill="#FFDA2C"/>
<path fill-rule="evenodd" clip-rule="evenodd" d="M466.941 73.4479L467.918 76.3773L471.824 77.3538L472.8 75.4009L480.612 76.3773L478.659 71.495H482.565L488.424 73.4479L490.377 71.495L484.518 69.5421L486.471 67.5891H492.33L493.306 65.6362H488.424V63.6832H492.33L494.283 61.7303L486.471 59.7773L482.565 63.6832L480.612 65.6362L482.565 67.5891L476.706 66.6126L472.8 73.4479L470.847 75.4009L466.941 73.4479Z" fill="white"/>
</g>
<g clip-path="url(#clip20_3385_41404)">
<rect x="517.719" y="53.918" width="41.0118" height="29.2941" rx="5.85882" fill="#3ECBF8"/>
<path fill-rule="evenodd" clip-rule="evenodd" d="M517.719 71.4941H558.731V73.4471H517.719V71.4941Z" fill="white"/>
<path fill-rule="evenodd" clip-rule="evenodd" d="M517.719 65.6348H558.731V71.4936H517.719V65.6348Z" fill="#151515"/>
<path fill-rule="evenodd" clip-rule="evenodd" d="M517.719 63.6836H558.731V65.6365H517.719V63.6836Z" fill="white"/>
</g>
<rect x="8" y="98.8359" width="41.0118" height="29.2941" rx="5.85882" fill="#249F58"/>
<path fill-rule="evenodd" clip-rule="evenodd" d="M28.5064 102.742L43.1535 113.483L28.5064 124.225L13.8594 113.483" fill="#FFDA2C"/>
<path d="M28.5072 120.319C32.2822 120.319 35.3425 117.259 35.3425 113.484C35.3425 109.709 32.2822 106.648 28.5072 106.648C24.7321 106.648 21.6719 109.709 21.6719 113.484C21.6719 117.259 24.7321 120.319 28.5072 120.319Z" fill="#1A47B8"/>
<path fill-rule="evenodd" clip-rule="evenodd" d="M25.5781 116.412V118.365H27.5311V116.412H25.5781ZM29.484 116.412V118.365H31.4369V116.412H29.484Z" fill="white"/>
<path fill-rule="evenodd" clip-rule="evenodd" d="M23.625 110.553C23.625 110.553 28.0465 111.334 31.2337 112.697L35.3426 114.459" fill="white"/>
<path d="M23.625 110.553C23.625 110.553 28.0465 111.334 31.2337 112.697L35.3426 114.459" stroke="white" stroke-width="1.95294"/>
<g clip-path="url(#clip21_3385_41404)">
<rect x="64.6367" y="98.8359" width="41.0118" height="29.2941" rx="5.85882" fill="#FFDA2C"/>
<path d="M101.743 98.8359H68.5426C66.3854 98.8359 64.6367 100.585 64.6367 102.742V124.224C64.6367 126.381 66.3854 128.13 68.5426 128.13H101.743C103.9 128.13 105.648 126.381 105.648 124.224V102.742C105.648 100.585 103.9 98.8359 101.743 98.8359Z" fill="#FFDA2C"/>
<path fill-rule="evenodd" clip-rule="evenodd" d="M64.6367 98.8359L105.648 118.365V126.177L64.6367 106.648V98.8359Z" fill="white"/>
<path fill-rule="evenodd" clip-rule="evenodd" d="M64.6367 104.695L105.648 124.225V128.131L64.6367 108.601V104.695Z" fill="#151515"/>
<path fill-rule="evenodd" clip-rule="evenodd" d="M80.2612 112.507L82.2141 114.46V122.272L78.3082 120.319V116.413L74.4023 112.507L78.3082 108.601L80.2612 110.554V112.507ZM82.2141 116.413H88.0729V118.366H82.2141V116.413ZM90.0259 112.507L88.0729 114.46V122.272L91.9788 120.319V116.413L95.8847 112.507L91.9788 108.601L90.0259 110.554V112.507ZM82.2141 110.554H88.0729L85.1435 104.695L82.2141 110.554Z" fill="#F93939"/>
</g>
<g clip-path="url(#clip22_3385_41404)">
<path d="M158.375 98.8359H125.175C123.018 98.8359 121.27 100.585 121.27 102.742V124.224C121.27 126.381 123.018 128.13 125.175 128.13H158.375C160.533 128.13 162.281 126.381 162.281 124.224V102.742C162.281 100.585 160.533 98.8359 158.375 98.8359Z" fill="#249F58"/>
<path fill-rule="evenodd" clip-rule="evenodd" d="M121.27 118.365H162.281V128.13H121.27V118.365Z" fill="#F93939"/>
<path fill-rule="evenodd" clip-rule="evenodd" d="M121.27 98.8359H162.281V108.601H121.27V98.8359Z" fill="white"/>
</g>
<g clip-path="url(#clip23_3385_41404)">
<path d="M215.012 98.8359H181.812C179.655 98.8359 177.906 100.585 177.906 102.742V124.224C177.906 126.381 179.655 128.13 181.812 128.13H215.012C217.169 128.13 218.918 126.381 218.918 124.224V102.742C218.918 100.585 217.169 98.8359 215.012 98.8359Z" fill="#F93939"/>
<path fill-rule="evenodd" clip-rule="evenodd" d="M177.906 98.8359L197.436 114.459L177.906 128.13V98.8359ZM218.918 98.8359L199.389 114.459L218.918 128.13V98.8359Z" fill="#00B731"/>
<path fill-rule="evenodd" clip-rule="evenodd" d="M191.885 111.444L177.906 101.765V98.8359H180.836L194.207 108.093C195.366 107.187 196.824 106.648 198.412 106.648C199.998 106.648 201.459 107.187 202.617 108.093L215.989 98.8359H218.918V101.765L204.939 111.444C205.14 112.089 205.247 112.772 205.247 113.483C205.247 114.194 205.14 114.877 204.939 115.522L218.918 125.201V128.13H215.989L202.617 118.873C201.457 119.779 200 120.318 198.412 120.318C196.826 120.318 195.366 119.779 194.207 118.873L180.836 128.13H177.906V125.201L191.885 115.522C191.684 114.877 191.577 114.194 191.577 113.483C191.577 112.772 191.684 112.089 191.885 111.444V111.444Z" fill="white"/>
<path fill-rule="evenodd" clip-rule="evenodd" d="M197.437 110.553H199.39V112.506H197.437V110.553ZM199.39 114.459H201.343V116.412H199.39V114.459ZM195.484 114.459H197.437V116.412H195.484V114.459Z" fill="#AF010D"/>
</g>
<g clip-path="url(#clip24_3385_41404)">
<rect x="234.543" y="98.8359" width="41.0118" height="29.2941" rx="5.85882" fill="white"/>
<path d="M255.452 121.525H254.648L254.849 118.309C254.838 118.139 254.756 118.095 254.447 118.108L251.23 118.51C251.23 118.51 251.834 117.706 251.834 117.303C251.834 116.901 248.215 114.288 248.215 114.288C248.215 114.288 249.019 114.087 249.22 113.886C249.421 113.685 248.416 111.473 248.416 111.473C248.416 111.473 250.459 112.278 250.627 112.076C250.796 111.875 251.029 111.071 251.029 111.071C251.029 111.071 252.638 112.881 253.04 112.881C253.442 112.881 252.236 108.458 252.236 108.458C252.236 108.458 253.241 109.262 253.643 109.262C254.045 109.262 255.05 106.648 255.05 106.648C255.05 106.648 256.055 109.262 256.256 109.262C256.457 109.262 257.865 108.458 257.865 108.458C257.865 108.458 256.859 112.68 257.061 112.881C257.262 113.082 259.071 111.071 259.071 111.071C259.071 111.071 259.272 111.875 259.473 112.076C259.674 112.278 261.684 111.473 261.684 111.473C261.684 111.473 260.679 113.685 260.88 113.886C261.081 114.087 261.885 114.288 261.885 114.288C261.885 114.288 258.267 116.901 258.267 117.303C258.267 117.706 258.669 118.51 258.669 118.51L255.653 118.108C255.411 118.038 255.327 118.091 255.251 118.309L255.452 121.525Z" fill="#F93939"/>
<rect x="265.789" y="98.8359" width="9.76471" height="29.2941" fill="#F93939"/>
<rect x="234.543" y="98.8359" width="9.76471" height="29.2941" fill="#F93939"/>
</g>
<g clip-path="url(#clip25_3385_41404)">
<path d="M328.282 98.8359H295.082C292.925 98.8359 291.176 100.585 291.176 102.742V124.224C291.176 126.381 292.925 128.13 295.082 128.13H328.282C330.439 128.13 332.188 126.381 332.188 124.224V102.742C332.188 100.585 330.439 98.8359 328.282 98.8359Z" fill="#1A47B8"/>
<path fill-rule="evenodd" clip-rule="evenodd" d="M291.176 120.318H332.188V128.13H291.176V120.318Z" fill="#F93939"/>
<path fill-rule="evenodd" clip-rule="evenodd" d="M291.176 98.8359H332.188V112.507H291.176V98.8359Z" fill="#FFDA2C"/>
</g>
<g clip-path="url(#clip26_3385_41404)">
<rect x="347.812" y="98.8359" width="41.0118" height="29.2941" rx="5.85882" fill="#F93939"/>
<path fill-rule="evenodd" clip-rule="evenodd" d="M363.437 108.602H364.414L365.39 110.555H363.437V108.602ZM365.39 110.555H367.343V112.507H365.39V110.555ZM363.437 112.507H365.39V114.46H363.437V112.507ZM361.484 114.46H363.437V116.413H361.484V114.46ZM361.484 116.413H363.437V118.366H361.484V116.413ZM360.508 116.413H361.484V118.366H359.531L360.508 116.413ZM365.39 114.46H369.296V118.366H365.39V114.46ZM373.202 108.602H372.225L371.249 110.555H373.202V108.602ZM371.249 110.555H369.296V112.507H371.249V110.555ZM373.202 112.507H371.249V114.46H373.202V112.507ZM375.155 114.46H373.202V116.413H375.155V114.46ZM375.155 116.413H373.202V118.366H375.155V116.413ZM376.131 116.413H375.155V118.366H377.108L376.131 116.413ZM371.249 114.46H369.296V118.366H371.249V114.46Z" fill="white"/>
<path opacity="0.7" fill-rule="evenodd" clip-rule="evenodd" d="M365.39 112.506H367.343V114.459H365.39V112.506ZM363.437 114.459H365.39V118.364H363.437V114.459ZM363.437 110.553H365.39V112.506H363.437V110.553ZM362.461 112.506H363.437V114.459H361.484L362.461 112.506ZM371.249 112.506H369.296V114.459H371.249V112.506ZM373.202 114.459H371.249V118.364H373.202V114.459ZM373.202 110.553H371.249V112.506H373.202V110.553ZM374.178 112.506H373.202V114.459H375.155L374.178 112.506ZM369.296 110.553H367.343V114.459H369.296V110.553Z" fill="white"/>
<path opacity="0.7" fill-rule="evenodd" clip-rule="evenodd" d="M367.344 108.602H369.297V110.555H367.344V108.602Z" fill="white"/>
<path fill-rule="evenodd" clip-rule="evenodd" d="M347.812 98.8359H388.824V106.648H347.812V98.8359ZM347.812 120.318H388.824V128.13H347.812V120.318Z" fill="#232C80"/>
</g>
<g clip-path="url(#clip27_3385_41404)">
<rect x="404.445" y="98.8359" width="41.0118" height="29.2941" rx="5.85882" fill="#F93939"/>
<path d="M441.551 98.8359H408.351C406.194 98.8359 404.445 100.585 404.445 102.742V124.224C404.445 126.381 406.194 128.13 408.351 128.13H441.551C443.708 128.13 445.457 126.381 445.457 124.224V102.742C445.457 100.585 443.708 98.8359 441.551 98.8359Z" fill="#F93939"/>
<path fill-rule="evenodd" clip-rule="evenodd" d="M415.183 112.956L412.312 114.466L412.859 111.269L410.539 109.004L413.748 108.541L415.183 105.631L416.617 108.541L419.825 109.004L417.501 111.269L418.052 114.464L415.183 112.956ZM422.022 104.695H423.975V106.648H422.022V104.695ZM423.975 108.601H425.928V110.554H423.975V108.601ZM423.975 112.507H425.928V114.46H423.975V112.507ZM422.022 116.413H423.975V118.366H422.022V116.413Z" fill="#FFDA2C"/>
</g>
<g clip-path="url(#clip28_3385_41404)">
<rect x="461.082" y="98.8359" width="41.0118" height="29.2941" rx="5.85882" fill="white"/>
<path fill-rule="evenodd" clip-rule="evenodd" d="M461.082 120.318H502.094V128.13H461.082V120.318Z" fill="#232C80"/>
<path fill-rule="evenodd" clip-rule="evenodd" d="M461.082 113.189H502.094V120.025H461.082V113.189Z" fill="#F93939"/>
<path fill-rule="evenodd" clip-rule="evenodd" d="M461.082 98.8359H502.094V106.648H461.082V98.8359Z" fill="#FFDA2C"/>
<path fill-rule="evenodd" clip-rule="evenodd" d="M461.082 98.8359L484.517 113.483L461.082 128.13V98.8359Z" fill="#00B731"/>
<path fill-rule="evenodd" clip-rule="evenodd" d="M472.8 120.007C472.234 120.21 471.628 120.319 470.997 120.319C467.677 120.319 464.988 117.259 464.988 113.484C464.988 109.709 467.679 106.648 470.997 106.648C471.626 106.648 472.232 106.758 472.8 106.961C470.363 107.832 468.593 110.423 468.593 113.484C468.593 116.544 470.363 119.136 472.8 120.007ZM472.8 108.601H474.753V110.554H472.8V108.601ZM472.8 112.507H474.753V114.46H472.8V112.507ZM472.8 116.413H474.753V118.366H472.8V116.413Z" fill="white"/>
</g>
<g clip-path="url(#clip29_3385_41404)">
<rect x="517.719" y="98.8359" width="41.0118" height="29.2941" rx="5.85882" fill="white"/>
<path d="M554.825 98.8359H521.625C519.467 98.8359 517.719 100.585 517.719 102.742V124.224C517.719 126.381 519.467 128.13 521.625 128.13H554.825C556.982 128.13 558.731 126.381 558.731 124.224V102.742C558.731 100.585 556.982 98.8359 554.825 98.8359Z" fill="white"/>
<path fill-rule="evenodd" clip-rule="evenodd" d="M548.914 122.22C548.785 123.384 548.418 124.224 547.988 124.224C547.558 124.224 547.191 123.384 547.062 122.22C545.898 122.091 545.059 121.724 545.059 121.295C545.059 120.865 545.898 120.498 547.062 120.369C547.191 119.205 547.556 118.365 547.988 118.365C548.418 118.365 548.785 119.205 548.914 120.369C550.078 120.498 550.917 120.863 550.917 121.295C550.917 121.724 550.078 122.091 548.914 122.22Z" fill="#F93939"/>
<path fill-rule="evenodd" clip-rule="evenodd" d="M517.719 114.459H537.248V128.13H517.719V114.459Z" fill="#1A47B8"/>
<path fill-rule="evenodd" clip-rule="evenodd" d="M529.386 108.55C529.257 109.714 528.89 110.554 528.461 110.554C528.031 110.554 527.664 109.714 527.535 108.55C526.371 108.422 525.531 108.054 525.531 107.625C525.531 107.195 526.371 106.828 527.535 106.699C527.664 105.535 528.031 104.695 528.461 104.695C528.89 104.695 529.257 105.535 529.386 106.699C530.55 106.828 531.39 107.195 531.39 107.625C531.39 108.054 530.55 108.422 529.386 108.55Z" fill="#1A47B8"/>
<path fill-rule="evenodd" clip-rule="evenodd" d="M537.25 98.8359H558.732V114.459H537.25V98.8359Z" fill="#F93939"/>
</g>
<g clip-path="url(#clip30_3385_41404)">
<rect x="8" y="143.754" width="41.0118" height="29.2941" rx="5.85882" fill="#FFDA2C"/>
<path fill-rule="evenodd" clip-rule="evenodd" d="M35.3398 143.754H49.0104V173.048H35.3398V143.754Z" fill="#F93939"/>
<path fill-rule="evenodd" clip-rule="evenodd" d="M8 143.754H21.6706V173.048H8V143.754Z" fill="#232C80"/>
</g>
<g clip-path="url(#clip31_3385_41404)">
<rect x="64.6367" y="143.754" width="41.0118" height="29.2941" rx="5.85882" fill="white"/>
<path d="M101.743 143.754H68.5426C66.3854 143.754 64.6367 145.503 64.6367 147.66V169.142C64.6367 171.299 66.3854 173.048 68.5426 173.048H101.743C103.9 173.048 105.648 171.299 105.648 169.142V147.66C105.648 145.503 103.9 143.754 101.743 143.754Z" fill="white"/>
<path fill-rule="evenodd" clip-rule="evenodd" d="M64.6367 159.377H105.648V173.048H64.6367V159.377Z" fill="#F93939"/>
<path fill-rule="evenodd" clip-rule="evenodd" d="M64.6367 143.754H82.2132V159.377H64.6367V143.754Z" fill="#1A47B8"/>
<path fill-rule="evenodd" clip-rule="evenodd" d="M73.4214 153.962L70.5506 155.472L71.0974 152.277L68.7773 150.011L71.986 149.547L73.4214 146.637L74.8568 149.547L78.0655 150.015L75.7415 152.277L76.2923 155.472" fill="white"/>
</g>
<g clip-path="url(#clip32_3385_41404)">
<rect x="121.27" y="143.754" width="41.0118" height="29.2941" rx="5.85882" fill="#F93939"/>
<path fill-rule="evenodd" clip-rule="evenodd" d="M121.27 143.754H162.281V157.424H121.27V143.754Z" fill="white"/>
<path fill-rule="evenodd" clip-rule="evenodd" d="M121.27 143.754L140.799 158.401L121.27 173.048V143.754Z" fill="#1A47B8"/>
</g>
<g clip-path="url(#clip33_3385_41404)">
<rect x="177.906" y="143.754" width="41.0118" height="29.2941" rx="5.85882" fill="#F93939"/>
<path fill-rule="evenodd" clip-rule="evenodd" d="M189.624 161.33H177.906V155.472H189.624V143.754H195.483V155.472H218.918V161.33H195.483V173.048H189.624V161.33Z" fill="white"/>
</g>
<g clip-path="url(#clip34_3385_41404)">
<path d="M271.649 143.754H238.449C236.292 143.754 234.543 145.503 234.543 147.66V169.142C234.543 171.299 236.292 173.048 238.449 173.048H271.649C273.806 173.048 275.555 171.299 275.555 169.142V147.66C275.555 145.503 273.806 143.754 271.649 143.754Z" fill="white"/>
<path fill-rule="evenodd" clip-rule="evenodd" d="M234.543 163.283H275.555V173.048H234.543V163.283Z" fill="#151515"/>
<path fill-rule="evenodd" clip-rule="evenodd" d="M255.05 157.424L252.121 155.471L250.168 157.424L252.121 161.33L254.074 159.377H256.027L257.98 161.33L259.933 157.424L257.98 155.471L255.05 157.424Z" fill="#D4AF2C"/>
<path fill-rule="evenodd" clip-rule="evenodd" d="M234.543 143.754H275.555V153.519H234.543V143.754Z" fill="#F93939"/>
</g>
<g clip-path="url(#clip35_3385_41404)">
<path d="M328.282 143.754H295.082C292.925 143.754 291.176 145.503 291.176 147.66V169.142C291.176 171.299 292.925 173.048 295.082 173.048H328.282C330.439 173.048 332.188 171.299 332.188 169.142V147.66C332.188 145.503 330.439 143.754 328.282 143.754Z" fill="#151515"/>
<path fill-rule="evenodd" clip-rule="evenodd" d="M291.176 163.283H332.188V173.048H291.176V163.283Z" fill="white"/>
<path fill-rule="evenodd" clip-rule="evenodd" d="M291.176 143.754H332.188V153.519H291.176V143.754Z" fill="#3A99FF"/>
</g>
<g clip-path="url(#clip36_3385_41404)">
<rect x="347.812" y="143.754" width="41.0118" height="29.2941" rx="5.85882" fill="white"/>
<path fill-rule="evenodd" clip-rule="evenodd" d="M347.812 143.754H361.483V173.048H347.812V143.754ZM375.154 143.754H388.824V173.048H375.154V143.754Z" fill="#0A6A30"/>
</g>
<rect x="404.445" y="143.754" width="41.0118" height="29.2941" rx="5.85882" fill="#D4AF2C"/>
<rect x="406.398" y="145.707" width="37.1059" height="25.3882" fill="#AF010D"/>
<path fill-rule="evenodd" clip-rule="evenodd" d="M424.952 153.086L422.673 151.566L421.156 153.086H422.673L421.156 154.605L418.117 153.086V160.683L422.673 159.159L421.156 162.198H419.637L421.156 163.718L422.673 162.198L424.952 165.237V153.086ZM427.232 151.566L428.749 153.086H427.232L428.749 154.605L431.788 153.086V160.683L427.232 159.159L428.749 162.198H430.268L428.749 163.718L427.232 162.198L424.952 165.237V153.086L427.232 151.566Z" fill="#D4AF2C"/>
<path fill-rule="evenodd" clip-rule="evenodd" d="M422.023 156.459C422.023 154.838 423.324 153.52 424.953 153.52C426.57 153.52 427.882 154.834 427.882 156.459V155.789C427.882 157.41 426.89 159.609 425.695 160.675L424.953 161.331L424.211 160.675C423.006 159.601 422.023 157.414 422.023 155.789V156.459Z" fill="#1A47B8"/>
<path fill-rule="evenodd" clip-rule="evenodd" d="M422.023 155.471H427.882V157.424H422.023V155.471Z" fill="#AE6A3E"/>
<rect x="461.082" y="143.754" width="41.0118" height="29.2941" rx="5.85882" fill="#3ECBF8"/>
<path fill-rule="evenodd" clip-rule="evenodd" d="M496.233 163.284V156.449C496.233 154.818 494.921 153.52 493.304 153.52H489.398C487.785 153.52 486.469 154.828 486.469 156.449V163.284C486.469 163.64 488.422 167.19 491.351 167.19C494.281 167.19 496.233 163.63 496.233 163.284Z" fill="white"/>
<path fill-rule="evenodd" clip-rule="evenodd" d="M492.328 159.378V161.562H496.233V163.44H492.328V167.19H490.375V163.44H486.469V161.562H490.375V159.378H486.469V153.52H496.233V159.378H492.328Z" fill="#F93939"/>
<path fill-rule="evenodd" clip-rule="evenodd" d="M488.422 155.471H494.281V157.424H488.422V155.471Z" fill="#FFDA2C"/>
<path d="M478.659 145.707H464.988C463.91 145.707 463.035 146.581 463.035 147.66V157.425C463.035 158.503 463.91 159.378 464.988 159.378H478.659C479.737 159.378 480.612 158.503 480.612 157.425V147.66C480.612 146.581 479.737 145.707 478.659 145.707Z" fill="white"/>
<path fill-rule="evenodd" clip-rule="evenodd" d="M470.847 153.519H464.988V151.566H470.847V147.66H472.8V151.566H478.659V153.519H472.8V157.425H470.847V153.519ZM475.729 155.472V157.425H478.659V155.472H475.729ZM475.729 147.66V149.613H478.659V147.66H475.729ZM464.988 155.472V157.425H467.918V155.472H464.988ZM464.988 147.66V149.613H467.918V147.66H464.988Z" fill="#F93939"/>
<g clip-path="url(#clip37_3385_41404)">
<rect x="517.719" y="143.754" width="41.0118" height="29.2941" rx="5.85882" fill="white"/>
<path fill-rule="evenodd" clip-rule="evenodd" d="M529.436 161.33H517.719V155.472H529.436V143.754H535.295V155.472H558.731V161.33H535.295V173.048H529.436V161.33Z" fill="#1A47B8"/>
</g>
<g clip-path="url(#clip38_3385_41404)">
<path d="M45.1059 188.67H11.9059C9.74872 188.67 8 190.419 8 192.576V214.058C8 216.215 9.74872 217.964 11.9059 217.964H45.1059C47.263 217.964 49.0118 216.215 49.0118 214.058V192.576C49.0118 190.419 47.263 188.67 45.1059 188.67Z" fill="white"/>
<path fill-rule="evenodd" clip-rule="evenodd" d="M8 208.199H49.0118V217.964H8V208.199Z" fill="#249F58"/>
<path fill-rule="evenodd" clip-rule="evenodd" d="M8 200.387H49.0118V206.246H8V200.387Z" fill="#1A47B8"/>
<path fill-rule="evenodd" clip-rule="evenodd" d="M8 188.67H49.0118V198.435H8V188.67Z" fill="#F93939"/>
</g>
<g clip-path="url(#clip39_3385_41404)">
<rect x="64.6367" y="188.67" width="41.0118" height="29.2941" rx="5.85882" fill="white"/>
<path fill-rule="evenodd" clip-rule="evenodd" d="M82.2132 206.246H64.6367V200.388H82.2132V188.67H88.072V200.388H105.648V206.246H88.072V217.964H82.2132V206.246Z" fill="#F93939"/>
<path fill-rule="evenodd" clip-rule="evenodd" d="M93.9316 210.153H91.9786V212.106H93.9316V214.059H95.8845V212.106H97.8375V210.153H95.8845V208.2H93.9316V210.153ZM93.9316 194.529H91.9786V196.482H93.9316V198.435H95.8845V196.482H97.8375V194.529H95.8845V192.576H93.9316V194.529ZM74.4022 194.529H72.4492V196.482H74.4022V198.435H76.3551V196.482H78.308V194.529H76.3551V192.576H74.4022V194.529ZM74.4022 210.153H72.4492V212.106H74.4022V214.059H76.3551V212.106H78.308V210.153H76.3551V208.2H74.4022V210.153Z" fill="#F93939"/>
</g>
<g clip-path="url(#clip40_3385_41404)">
<rect x="121.27" y="188.67" width="41.0118" height="29.2941" rx="5.85882" fill="#F93939"/>
<path fill-rule="evenodd" clip-rule="evenodd" d="M121.27 208.199H162.281V217.964H121.27V208.199Z" fill="#FFDA2C"/>
<path fill-rule="evenodd" clip-rule="evenodd" d="M121.27 188.67H162.281V198.435H121.27V188.67Z" fill="#151515"/>
</g>
<g clip-path="url(#clip41_3385_41404)">
<rect x="177.906" y="188.67" width="41.0118" height="29.2941" rx="5.85882" fill="white"/>
<path fill-rule="evenodd" clip-rule="evenodd" d="M177.906 188.67H185.718V196.482H177.906V188.67ZM189.624 188.67H197.436V196.482H189.624V188.67ZM177.906 200.388H185.718V208.199H177.906V200.388ZM189.624 200.388H197.436V208.199H189.624V200.388ZM197.436 188.67H218.918V192.576H197.436V188.67ZM197.436 196.482H218.918V200.388H197.436V196.482Z" fill="#1A47B8"/>
<path fill-rule="evenodd" clip-rule="evenodd" d="M177.906 204.293H218.918V208.199H177.906V204.293ZM185.718 204.293H189.624V208.199H185.718V204.293ZM177.906 212.105H218.918V216.011H177.906V212.105Z" fill="#1A47B8"/>
</g>
<rect x="234.543" y="188.67" width="41.0118" height="29.2941" rx="5.85882" fill="#F93939"/>
<path fill-rule="evenodd" clip-rule="evenodd" d="M240.402 194.529H269.696V212.106H240.402V194.529Z" fill="#FFDA2C"/>
<path fill-rule="evenodd" clip-rule="evenodd" d="M240.402 194.529L255.049 203.318L240.402 212.106V194.529Z" fill="#249F58"/>
<path fill-rule="evenodd" clip-rule="evenodd" d="M242.355 202.34H244.308V204.293H242.355V202.34Z" fill="#FFDA2C"/>
<path fill-rule="evenodd" clip-rule="evenodd" d="M269.698 194.529L255.051 203.318L269.698 212.106V194.529Z" fill="#249F58"/>
<path fill-rule="evenodd" clip-rule="evenodd" d="M248.215 190.623H250.168V192.576H248.215V190.623ZM254.074 190.623H256.027V192.576H254.074V190.623ZM259.932 190.623H261.885V192.576H259.932V190.623ZM248.215 214.058H250.168V216.011H248.215V214.058ZM254.074 214.058H256.027V216.011H254.074V214.058ZM259.932 214.058H261.885V216.011H259.932V214.058Z" fill="#FFDA2C"/>
<path d="M255.05 208.2C257.747 208.2 259.933 206.014 259.933 203.318C259.933 200.621 257.747 198.436 255.05 198.436C252.354 198.436 250.168 200.621 250.168 203.318C250.168 206.014 252.354 208.2 255.05 208.2Z" fill="#F93939"/>
<path fill-rule="evenodd" clip-rule="evenodd" d="M255.046 205.759L252.176 207.269L252.722 204.072L250.402 201.806L253.611 201.343L255.046 198.436L256.482 201.345L259.691 201.808L257.367 204.074L257.913 207.269" fill="#FFDA2C"/>
<g clip-path="url(#clip42_3385_41404)">
<rect x="291.176" y="188.67" width="41.0118" height="29.2941" rx="5.85882" fill="white"/>
<path fill-rule="evenodd" clip-rule="evenodd" d="M291.176 208.199H332.188V217.964H291.176V208.199Z" fill="#F93939"/>
<path fill-rule="evenodd" clip-rule="evenodd" d="M311.683 206.246C314.378 206.246 316.565 204.933 316.565 203.316C316.565 201.699 314.378 200.387 311.683 200.387C308.988 200.387 306.801 201.699 306.801 203.316C306.801 204.933 308.988 206.246 311.683 206.246ZM311.683 204.781C313.3 204.781 314.613 203.797 314.613 202.584C314.613 201.373 313.3 200.387 311.683 200.387C310.066 200.387 308.754 201.371 308.754 202.584C308.754 203.795 310.066 204.781 311.683 204.781Z" fill="#F93939"/>
<path d="M311.684 204.293C312.223 204.293 312.66 203.418 312.66 202.34C312.66 201.261 312.223 200.387 311.684 200.387C311.144 200.387 310.707 201.261 310.707 202.34C310.707 203.418 311.144 204.293 311.684 204.293Z" fill="#AF010D"/>
<path fill-rule="evenodd" clip-rule="evenodd" d="M291.176 188.67H332.188V198.435H291.176V188.67Z" fill="#00B731"/>
</g>
<g clip-path="url(#clip43_3385_41404)">
<rect x="347.812" y="188.67" width="41.0118" height="29.2941" rx="5.85882" fill="#F93939"/>
<path fill-rule="evenodd" clip-rule="evenodd" d="M347.812 188.67H388.824V204.293H347.812V188.67Z" fill="#1A47B8"/>
<path fill-rule="evenodd" clip-rule="evenodd" d="M359.527 198.434H375.802V208.198H359.527V198.434Z" fill="white"/>
<path fill-rule="evenodd" clip-rule="evenodd" d="M366.035 201.688H369.29V208.197H366.035V201.688Z" fill="#FFDA2C"/>
<path fill-rule="evenodd" clip-rule="evenodd" d="M362.785 203.316C362.785 200.621 364.953 198.434 367.668 198.434C370.363 198.434 372.55 200.601 372.55 203.316V208.198H362.785V203.316ZM366.04 203.332C366.04 202.421 366.795 201.688 367.668 201.688C368.566 201.688 369.295 202.385 369.295 203.332V208.198H366.04V203.332Z" fill="#249F58"/>
</g>
<g clip-path="url(#clip44_3385_41404)">
<rect x="404.445" y="188.67" width="41.0118" height="29.2941" rx="5.85882" fill="white"/>
<path fill-rule="evenodd" clip-rule="evenodd" d="M404.445 208.199H445.457V217.964H404.445V208.199Z" fill="#249F58"/>
<path fill-rule="evenodd" clip-rule="evenodd" d="M424.953 208.2C427.648 208.2 429.835 206.013 429.835 203.318C429.835 200.623 427.648 198.436 424.953 198.436C422.258 198.436 420.07 200.623 420.07 203.318C420.07 206.013 422.258 208.2 424.953 208.2ZM424.953 206.247C426.57 206.247 427.882 204.935 427.882 203.318C427.882 201.701 426.57 200.388 424.953 200.388C423.336 200.388 422.023 201.701 422.023 203.318C422.023 204.935 423.336 206.247 424.953 206.247Z" fill="#1A47B8"/>
<path d="M424.953 204.293C425.492 204.293 425.93 203.856 425.93 203.316C425.93 202.777 425.492 202.34 424.953 202.34C424.414 202.34 423.977 202.777 423.977 203.316C423.977 203.856 424.414 204.293 424.953 204.293Z" fill="#1A47B8"/>
<path fill-rule="evenodd" clip-rule="evenodd" d="M404.445 188.67H445.457V198.435H404.445V188.67Z" fill="#FF6C2D"/>
</g>
<g clip-path="url(#clip45_3385_41404)">
<rect x="461.082" y="188.67" width="41.0118" height="29.2941" rx="5.85882" fill="#1A47B8"/>
<path fill-rule="evenodd" clip-rule="evenodd" d="M472.8 206.246H461.082V200.388H472.8V188.67H478.659V200.388H502.094V206.246H478.659V217.964H472.8V206.246Z" fill="white"/>
<path fill-rule="evenodd" clip-rule="evenodd" d="M474.753 202.341H461.082V204.293H474.753V217.964H476.706V204.293H502.094V202.341H476.706V188.67H474.753V202.341Z" fill="#F93939"/>
</g>
<g clip-path="url(#clip46_3385_41404)">
<rect x="517.719" y="188.67" width="41.0118" height="29.2941" rx="5.85882" fill="#F93939"/>
<path d="M554.825 188.67H521.625C519.467 188.67 517.719 190.419 517.719 192.576V214.058C517.719 216.215 519.467 217.964 521.625 217.964H554.825C556.982 217.964 558.731 216.215 558.731 214.058V192.576C558.731 190.419 556.982 188.67 554.825 188.67Z" fill="#F93939"/>
<path fill-rule="evenodd" clip-rule="evenodd" d="M529.438 208.199H558.732V217.964H529.438V208.199Z" fill="#249F58"/>
<path fill-rule="evenodd" clip-rule="evenodd" d="M529.436 188.67H558.73V198.435H529.436V188.67ZM526.655 196.292C526.547 196.454 526.424 196.605 526.284 196.747C525.137 197.892 523.282 197.892 522.14 196.747C520.995 195.605 520.995 193.75 522.14 192.607C522.28 192.463 522.433 192.339 522.595 192.232C522.155 193.052 522.516 194.365 523.52 195.367C524.524 196.366 525.835 196.73 526.657 196.29L526.655 196.292Z" fill="white"/>
<path fill-rule="evenodd" clip-rule="evenodd" d="M522.451 196.293C522.559 196.455 522.682 196.605 522.822 196.748C523.969 197.892 525.824 197.892 526.966 196.748C528.111 195.605 528.111 193.75 526.966 192.607C526.826 192.463 526.673 192.34 526.511 192.232C526.951 193.053 526.589 194.365 525.586 195.367C524.582 196.367 523.271 196.73 522.449 196.291L522.451 196.293Z" fill="white"/>
</g>
<g clip-path="url(#clip47_3385_41404)">
<path d="M45.1059 233.588H11.9059C9.74872 233.588 8 235.337 8 237.494V258.976C8 261.133 9.74872 262.882 11.9059 262.882H45.1059C47.263 262.882 49.0118 261.133 49.0118 258.976V237.494C49.0118 235.337 47.263 233.588 45.1059 233.588Z" fill="#F93939"/>
<path fill-rule="evenodd" clip-rule="evenodd" d="M28.5074 253.118C31.2024 253.118 33.3897 250.931 33.3897 248.236C33.3897 245.541 31.2024 243.354 28.5074 243.354C25.8123 243.354 23.625 245.541 23.625 248.236C23.625 250.931 25.8123 253.118 28.5074 253.118ZM28.5074 251.165C30.1244 251.165 31.4368 249.417 31.4368 247.259C31.4368 245.101 30.1244 243.354 28.5074 243.354C26.8903 243.354 25.5779 245.101 25.5779 247.259C25.5779 249.417 26.8903 251.165 28.5074 251.165ZM28.5074 249.212C29.0464 249.212 29.4838 248.337 29.4838 247.259C29.4838 246.181 29.0464 245.306 28.5074 245.306C27.9683 245.306 27.5309 246.181 27.5309 247.259C27.5309 248.337 27.9683 249.212 28.5074 249.212Z" fill="white"/>
<path fill-rule="evenodd" clip-rule="evenodd" d="M35.3398 233.588H49.0104V262.882H35.3398V233.588Z" fill="#249F58"/>
<path fill-rule="evenodd" clip-rule="evenodd" d="M8 233.588H21.6706V262.882H8V233.588Z" fill="#151515"/>
</g>
<g clip-path="url(#clip48_3385_41404)">
<rect x="64.6367" y="233.588" width="41.0118" height="29.2941" rx="5.85882" fill="#F93939"/>
<path d="M101.743 233.588H68.5426C66.3854 233.588 64.6367 235.337 64.6367 237.494V258.976C64.6367 261.133 66.3854 262.882 68.5426 262.882H101.743C103.9 262.882 105.648 261.133 105.648 258.976V237.494C105.648 235.337 103.9 233.588 101.743 233.588Z" fill="#F93939"/>
<path fill-rule="evenodd" clip-rule="evenodd" d="M85.1437 241.4L82.2143 239.447L80.2614 241.4H82.2143L80.2614 243.353L76.3555 241.4V251.165L82.2143 249.212L80.2614 253.118H78.3084L80.2614 255.071L82.2143 253.118L85.1437 257.024V241.4ZM88.0731 239.447L90.0261 241.4H88.0731L90.0261 243.353L93.9319 241.4V251.165L88.0731 249.212L90.0261 253.118H91.979L90.0261 255.071L88.0731 253.118L85.1437 257.024V241.4L88.0731 239.447Z" fill="#151515"/>
</g>
<g clip-path="url(#clip49_3385_41404)">
<rect x="121.27" y="233.588" width="41.0118" height="29.2941" rx="5.85882" fill="#151515"/>
<rect x="121.27" y="233.588" width="41.0118" height="29.2941" fill="#151515"/>
<path fill-rule="evenodd" clip-rule="evenodd" d="M121.27 251.164H162.281V262.882H121.27V251.164Z" fill="white"/>
<path d="M141.777 251.165C145.552 251.165 148.612 248.104 148.612 244.329C148.612 240.554 145.552 237.494 141.777 237.494C138.002 237.494 134.941 240.554 134.941 244.329C134.941 248.104 138.002 251.165 141.777 251.165Z" fill="#FFDA2C"/>
<path fill-rule="evenodd" clip-rule="evenodd" d="M121.27 245.305H162.281V251.164H121.27V245.305Z" fill="#3A99FF"/>
<path fill-rule="evenodd" clip-rule="evenodd" d="M142.752 262.882H121.27V233.588L142.752 262.882Z" fill="#F93939"/>
<path fill-rule="evenodd" clip-rule="evenodd" d="M140.801 262.882H162.283V233.588L140.801 262.882Z" fill="#F93939"/>
</g>
<g clip-path="url(#clip50_3385_41404)">
<rect x="177.906" y="233.588" width="41.0118" height="29.2941" rx="5.85882" fill="white"/>
<path d="M215.012 233.588H181.812C179.655 233.588 177.906 235.337 177.906 237.494V258.976C177.906 261.133 179.655 262.882 181.812 262.882H215.012C217.169 262.882 218.918 261.133 218.918 258.976V237.494C218.918 235.337 217.169 233.588 215.012 233.588Z" fill="white"/>
<path fill-rule="evenodd" clip-rule="evenodd" d="M177.906 233.588H197.436V262.882H177.906V233.588Z" fill="#249F58"/>
<path fill-rule="evenodd" clip-rule="evenodd" d="M203.397 253.631C201.792 255.696 199.28 257.024 196.46 257.024C191.607 257.024 187.672 253.089 187.672 248.236C187.672 243.382 191.607 239.447 196.46 239.447C199.28 239.447 201.792 240.775 203.397 242.84C202.157 241.937 200.596 241.4 198.901 241.4C194.859 241.4 191.578 244.46 191.578 248.236C191.578 252.011 194.859 255.071 198.901 255.071C200.596 255.071 202.157 254.534 203.397 253.631Z" fill="#F93939"/>
<path fill-rule="evenodd" clip-rule="evenodd" d="M203.293 248.234L205.246 247.258L206.222 245.305L207.199 247.258L209.152 248.234L207.199 249.211L206.222 251.164L205.246 249.211L203.293 248.234Z" fill="#F93939"/>
</g>
<g clip-path="url(#clip51_3385_41404)">
<path d="M271.649 233.588H238.449C236.292 233.588 234.543 235.337 234.543 237.494V258.976C234.543 261.133 236.292 262.882 238.449 262.882H271.649C273.806 262.882 275.555 261.133 275.555 258.976V237.494C275.555 235.337 273.806 233.588 271.649 233.588Z" fill="#FFDA2C"/>
<path fill-rule="evenodd" clip-rule="evenodd" d="M257.855 252.991C259.054 252.626 259.933 251.511 259.933 250.189V244.33C259.933 242.699 258.62 241.4 257.003 241.4H253.097C251.484 241.4 250.168 242.709 250.168 244.33V250.189C250.168 251.521 251.043 252.63 252.246 252.993C252.609 254.204 253.726 255.071 255.05 255.071C256.382 255.071 257.491 254.192 257.855 252.991Z" fill="#D4AF2C"/>
<path fill-rule="evenodd" clip-rule="evenodd" d="M252.121 243.354H254.074V246.283H252.121V243.354ZM256.027 247.259H257.98V250.189H256.027V247.259Z" fill="#AF010D"/>
<path fill-rule="evenodd" clip-rule="evenodd" d="M256.027 243.354H257.98V246.283H256.027V243.354ZM252.121 247.259H254.074V250.189H252.121V247.259Z" fill="#FFDA2C"/>
<path fill-rule="evenodd" clip-rule="evenodd" d="M261.883 233.588H275.553V262.882H261.883V233.588Z" fill="#F93939"/>
<path fill-rule="evenodd" clip-rule="evenodd" d="M234.543 233.588H248.214V262.882H234.543V233.588Z" fill="#1A47B8"/>
</g>
<g clip-path="url(#clip52_3385_41404)">
<rect x="291.176" y="233.588" width="41.0118" height="29.2941" rx="5.85882" fill="white"/>
<path fill-rule="evenodd" clip-rule="evenodd" d="M291.176 253.117H332.188V262.882H291.176V253.117Z" fill="#151515"/>
<path fill-rule="evenodd" clip-rule="evenodd" d="M291.176 233.588H332.188V243.353H291.176V233.588Z" fill="#AF010D"/>
<path fill-rule="evenodd" clip-rule="evenodd" d="M291.176 233.588V262.946L310.705 248.235L291.176 233.588Z" fill="#249F58"/>
</g>
<g clip-path="url(#clip53_3385_41404)">
<rect x="347.812" y="233.588" width="41.0118" height="29.2941" rx="5.85882" fill="#F93939"/>
<path d="M384.918 233.588H351.718C349.561 233.588 347.812 235.337 347.812 237.494V258.976C347.812 261.133 349.561 262.882 351.718 262.882H384.918C387.076 262.882 388.824 261.133 388.824 258.976V237.494C388.824 235.337 387.076 233.588 384.918 233.588Z" fill="#F93939"/>
<path fill-rule="evenodd" clip-rule="evenodd" d="M347.812 249.211H388.824V262.882H347.812V249.211Z" fill="#151515"/>
<path fill-rule="evenodd" clip-rule="evenodd" d="M372.13 252.308C372.977 251.171 373.477 249.761 373.477 248.234C373.477 245.369 371.714 242.916 369.214 241.898L368.033 243.553C370.052 244.152 371.524 246.021 371.524 248.234C371.524 249.394 371.12 250.46 370.444 251.296L363.713 247.257L368.978 252.522C368.285 252.901 367.488 253.116 366.642 253.116C365.002 253.116 363.551 252.308 362.666 251.066L361.484 252.72C362.736 254.159 364.582 255.069 366.642 255.069C368.029 255.069 369.322 254.655 370.4 253.944L371.524 255.069L373.477 253.116L372.13 252.308ZM363.713 243.351H365.666V245.304H363.713V243.351Z" fill="#FFDA2C"/>
</g>
<g clip-path="url(#clip54_3385_41404)">
<path d="M441.551 233.588H408.351C406.194 233.588 404.445 235.337 404.445 237.494V258.976C404.445 261.133 406.194 262.882 408.351 262.882H441.551C443.708 262.882 445.457 261.133 445.457 258.976V237.494C445.457 235.337 443.708 233.588 441.551 233.588Z" fill="white"/>
<path fill-rule="evenodd" clip-rule="evenodd" d="M404.445 253.117H445.457V262.882H404.445V253.117ZM404.445 233.588H445.457V243.353H404.445V233.588Z" fill="#3ECBF8"/>
<path d="M424.953 251.164C426.571 251.164 427.882 249.852 427.882 248.234C427.882 246.616 426.571 245.305 424.953 245.305C423.335 245.305 422.023 246.616 422.023 248.234C422.023 249.852 423.335 251.164 424.953 251.164Z" fill="#FFDA2C"/>
</g>
<g clip-path="url(#clip55_3385_41404)">
<rect x="461.082" y="233.588" width="41.0118" height="29.2941" rx="5.85882" fill="#3ECBF8"/>
<path d="M498.188 233.588H464.988C462.831 233.588 461.082 235.337 461.082 237.494V258.976C461.082 261.133 462.831 262.882 464.988 262.882H498.188C500.345 262.882 502.094 261.133 502.094 258.976V237.494C502.094 235.337 500.345 233.588 498.188 233.588Z" fill="#3ECBF8"/>
<path fill-rule="evenodd" clip-rule="evenodd" d="M461.082 251.164H502.094V253.117H461.082V251.164ZM461.082 255.07H502.094V257.023H461.082V255.07Z" fill="#FFDA2C"/>
<path fill-rule="evenodd" clip-rule="evenodd" d="M469.841 242.347C471.54 242.24 472.8 241.859 472.8 241.4C472.8 240.943 471.54 240.56 469.841 240.453C469.734 238.754 469.353 237.494 468.894 237.494C468.437 237.494 468.054 238.754 467.947 240.453C466.248 240.56 464.988 240.941 464.988 241.4C464.988 241.857 466.248 242.24 467.947 242.347C468.054 244.046 468.435 245.306 468.894 245.306C469.351 245.306 469.734 244.046 469.841 242.347Z" fill="#F93939"/>
<path fill-rule="evenodd" clip-rule="evenodd" d="M469.841 242.347C471.54 242.24 472.8 241.859 472.8 241.4C472.8 240.943 471.54 240.56 469.841 240.453C469.734 238.754 469.353 237.494 468.894 237.494C468.437 237.494 468.054 238.754 467.947 240.453C466.248 240.56 464.988 240.941 464.988 241.4C464.988 241.857 466.248 242.24 467.947 242.347C468.054 244.046 468.435 245.306 468.894 245.306C469.351 245.306 469.734 244.046 469.841 242.347ZM469.9 243.324L470.818 242.406C470.671 244.745 470.183 246.282 468.894 246.282C467.605 246.282 467.117 244.743 466.972 242.408L467.886 243.322C465.551 243.177 464.012 242.689 464.012 241.4C464.012 240.111 465.551 239.623 467.886 239.478L466.972 240.392C467.117 238.056 467.605 236.518 468.894 236.518C470.183 236.518 470.671 238.056 470.816 240.392L469.902 239.478C472.238 239.623 473.776 240.111 473.776 241.4C473.776 242.689 472.238 243.177 469.902 243.322L469.9 243.324Z" fill="white"/>
</g>
<g clip-path="url(#clip56_3385_41404)">
<path d="M554.825 233.588H521.625C519.467 233.588 517.719 235.337 517.719 237.494V258.976C517.719 261.133 519.467 262.882 521.625 262.882H554.825C556.982 262.882 558.731 261.133 558.731 258.976V237.494C558.731 235.337 556.982 233.588 554.825 233.588Z" fill="white"/>
<path fill-rule="evenodd" clip-rule="evenodd" d="M517.719 253.117H558.731V262.882H517.719V253.117ZM517.719 233.588H558.731V243.353H517.719V233.588Z" fill="#F93939"/>
</g>
<g clip-path="url(#clip57_3385_41404)">
<path d="M45.1059 278.506H11.9059C9.74872 278.506 8 280.255 8 282.412V303.894C8 306.051 9.74872 307.8 11.9059 307.8H45.1059C47.263 307.8 49.0118 306.051 49.0118 303.894V282.412C49.0118 280.255 47.263 278.506 45.1059 278.506Z" fill="#F93939"/>
<path fill-rule="evenodd" clip-rule="evenodd" d="M8 298.035H49.0118V307.8H8V298.035Z" fill="#249F58"/>
<path fill-rule="evenodd" clip-rule="evenodd" d="M31.4336 292.176H33.3865V294.129H31.4336V292.176Z" fill="white"/>
<path fill-rule="evenodd" clip-rule="evenodd" d="M32.4132 296.083C31.5227 297.269 30.1049 298.036 28.5074 298.036C25.8123 298.036 23.625 295.849 23.625 293.154C23.625 290.459 25.8123 288.271 28.5074 288.271C30.1049 288.271 31.5227 289.039 32.4132 290.224H29.4838C27.8668 290.224 26.5544 291.537 26.5544 293.154C26.5544 294.771 27.8668 296.083 29.4838 296.083H32.4132Z" fill="white"/>
<path fill-rule="evenodd" clip-rule="evenodd" d="M8 278.506H49.0118V288.271H8V278.506Z" fill="#3ECBF8"/>
</g>
<g clip-path="url(#clip58_3385_41404)">
<rect x="64.6367" y="278.506" width="41.0118" height="29.2941" rx="5.85882" fill="#3ECBF8"/>
<path fill-rule="evenodd" clip-rule="evenodd" d="M64.6367 296.082H105.648V298.035H64.6367V296.082Z" fill="white"/>
<path fill-rule="evenodd" clip-rule="evenodd" d="M64.6367 290.223H105.648V296.081H64.6367V290.223Z" fill="#151515"/>
<path fill-rule="evenodd" clip-rule="evenodd" d="M64.6367 288.271H105.648V290.224H64.6367V288.271Z" fill="white"/>
</g>
<g clip-path="url(#clip59_3385_41404)">
<rect x="121.27" y="278.506" width="41.0118" height="29.2941" rx="5.85882" fill="#249F58"/>
<path d="M158.375 278.506H125.175C123.018 278.506 121.27 280.255 121.27 282.412V303.894C121.27 306.051 123.018 307.8 125.175 307.8H158.375C160.533 307.8 162.281 306.051 162.281 303.894V282.412C162.281 280.255 160.533 278.506 158.375 278.506Z" fill="#249F58"/>
<path d="M139.823 301.942C144.677 301.942 148.612 298.007 148.612 293.153C148.612 288.3 144.677 284.365 139.823 284.365C134.97 284.365 131.035 288.3 131.035 293.153C131.035 298.007 134.97 301.942 139.823 301.942Z" fill="#F93939"/>
</g>
<g clip-path="url(#clip60_3385_41404)">
<path d="M215.012 278.506H181.812C179.655 278.506 177.906 280.255 177.906 282.412V303.894C177.906 306.051 179.655 307.8 181.812 307.8H215.012C217.169 307.8 218.918 306.051 218.918 303.894V282.412C218.918 280.255 217.169 278.506 215.012 278.506Z" fill="#FFDA2C"/>
<path fill-rule="evenodd" clip-rule="evenodd" d="M177.906 278.506H191.577V307.8H177.906V278.506ZM205.247 278.506H218.918V307.8H205.247V278.506Z" fill="#1A47B8"/>
<path fill-rule="evenodd" clip-rule="evenodd" d="M197.437 298.035H199.39V299.988H197.437V298.035ZM201.343 294.129H203.296V296.082H201.343V294.129ZM193.531 294.129H195.484V296.082H193.531V294.129Z" fill="#AE6A3E"/>
<path fill-rule="evenodd" clip-rule="evenodd" d="M199.39 294.13V286.318H197.437V294.13H195.484V296.083H197.437V298.036H199.39V296.083H201.343V294.13H199.39ZM201.343 288.271H203.296V294.13H201.343V288.271ZM193.531 288.271H195.484V294.13H193.531V288.271Z" fill="#151515"/>
</g>
<g clip-path="url(#clip61_3385_41404)">
<rect x="234.543" y="278.506" width="41.0118" height="29.2941" rx="5.85882" fill="#F93939"/>
<path d="M271.649 278.506H238.449C236.292 278.506 234.543 280.255 234.543 282.412V303.894C234.543 306.051 236.292 307.8 238.449 307.8H271.649C273.806 307.8 275.555 306.051 275.555 303.894V282.412C275.555 280.255 273.806 278.506 271.649 278.506Z" fill="#F93939"/>
<path fill-rule="evenodd" clip-rule="evenodd" d="M244.309 299.988H275.556V307.8H244.309V299.988Z" fill="#249F58"/>
<path fill-rule="evenodd" clip-rule="evenodd" d="M240.402 278.506L244.308 281.435L240.402 284.365V278.506ZM240.402 284.365L244.308 287.294L240.402 290.224V284.365ZM240.402 290.224L244.308 293.153L240.402 296.082V290.224ZM240.402 296.082L244.308 299.012L240.402 301.941V296.082ZM240.402 301.941L244.308 304.871L240.402 307.8V301.941ZM238.449 278.506L234.543 281.435L238.449 284.365V278.506ZM238.449 284.365L234.543 287.294L238.449 290.224V284.365ZM238.449 290.224L234.543 293.153L238.449 296.082V290.224ZM238.449 296.082L234.543 299.012L238.449 301.941V296.082ZM238.449 301.941L234.543 304.871L238.449 307.8V301.941ZM238.449 278.506H240.402V282.412H238.449V278.506ZM238.449 303.894H240.402V307.8H238.449V303.894ZM238.449 288.271H240.402V292.176H238.449V288.271ZM238.449 284.365H240.402V286.318H238.449V284.365ZM238.449 299.988H240.402V301.941H238.449V299.988ZM238.449 294.129H240.402V298.035H238.449V294.129Z" fill="white"/>
</g>
<g clip-path="url(#clip62_3385_41404)">
<path d="M328.282 278.506H295.082C292.925 278.506 291.176 280.255 291.176 282.412V303.894C291.176 306.051 292.925 307.8 295.082 307.8H328.282C330.439 307.8 332.188 306.051 332.188 303.894V282.412C332.188 280.255 330.439 278.506 328.282 278.506Z" fill="#FFDA2C"/>
<path fill-rule="evenodd" clip-rule="evenodd" d="M318.516 278.506H332.186V307.8H318.516V278.506Z" fill="#F93939"/>
<path fill-rule="evenodd" clip-rule="evenodd" d="M291.176 278.506H304.846V307.8H291.176V278.506Z" fill="#151515"/>
</g>
<g clip-path="url(#clip63_3385_41404)">
<path d="M384.918 278.506H351.718C349.561 278.506 347.812 280.255 347.812 282.412V303.894C347.812 306.051 349.561 307.8 351.718 307.8H384.918C387.076 307.8 388.824 306.051 388.824 303.894V282.412C388.824 280.255 387.076 278.506 384.918 278.506Z" fill="#FFDA2C"/>
<path fill-rule="evenodd" clip-rule="evenodd" d="M347.812 298.035H388.824V307.8H347.812V298.035ZM347.812 278.506H388.824V288.271H347.812V278.506Z" fill="#3ECBF8"/>
<path fill-rule="evenodd" clip-rule="evenodd" d="M347.812 278.506V307.864L369.295 293.153L347.812 278.506Z" fill="#151515"/>
</g>
<g clip-path="url(#clip64_3385_41404)">
<rect x="404.445" y="278.506" width="41.0118" height="29.2941" rx="5.85882" fill="#FFDA2C"/>
<path d="M441.551 278.506H408.351C406.194 278.506 404.445 280.255 404.445 282.412V303.894C404.445 306.051 406.194 307.8 408.351 307.8H441.551C443.708 307.8 445.457 306.051 445.457 303.894V282.412C445.457 280.255 443.708 278.506 441.551 278.506Z" fill="#FFDA2C"/>
<path fill-rule="evenodd" clip-rule="evenodd" d="M420.07 294.129H445.459V307.799H420.07V294.129Z" fill="#F93939"/>
<path fill-rule="evenodd" clip-rule="evenodd" d="M404.445 278.506H420.069V307.8H404.445V278.506Z" fill="#249F58"/>
</g>
<g clip-path="url(#clip65_3385_41404)">
<rect x="461.082" y="278.506" width="41.0118" height="29.2941" rx="5.85882" fill="#FF6C2D"/>
<path d="M498.188 278.506H464.988C462.831 278.506 461.082 280.255 461.082 282.412V303.894C461.082 306.051 462.831 307.8 464.988 307.8H498.188C500.345 307.8 502.094 306.051 502.094 303.894V282.412C502.094 280.255 500.345 278.506 498.188 278.506Z" fill="#FF6C2D"/>
<path fill-rule="evenodd" clip-rule="evenodd" d="M461.082 307.8L502.094 278.506H461.082V307.8Z" fill="#FFDA2C"/>
<path fill-rule="evenodd" clip-rule="evenodd" d="M466.941 298.036L467.918 300.965L471.824 301.942L472.8 299.989L480.612 300.965L478.659 296.083H482.565L488.424 298.036L490.377 296.083L484.518 294.13L486.471 292.177H492.33L493.306 290.224H488.424V288.271H492.33L494.283 286.318L486.471 284.365L482.565 288.271L480.612 290.224L482.565 292.177L476.706 291.201L472.8 298.036L470.847 299.989L466.941 298.036Z" fill="white"/>
</g>
<g clip-path="url(#clip66_3385_41404)">
<rect x="517.719" y="278.506" width="41.0118" height="29.2941" rx="5.85882" fill="#1A47B8"/>
<path d="M538.226 301.942C543.079 301.942 547.014 298.007 547.014 293.153C547.014 288.3 543.079 284.365 538.226 284.365C533.372 284.365 529.438 288.3 529.438 293.153C529.438 298.007 533.372 301.942 538.226 301.942Z" fill="white"/>
<path fill-rule="evenodd" clip-rule="evenodd" d="M534.32 294.129H542.132V296.082H534.32V294.129Z" fill="#CBCBCB"/>
<path fill-rule="evenodd" clip-rule="evenodd" d="M533.344 288.271H535.297V290.224H533.344V288.271ZM537.25 286.318H539.203V288.271H537.25V286.318ZM541.156 288.271H543.108V290.224H541.156V288.271ZM543.108 292.177H545.061V294.13H543.108V292.177ZM541.156 296.083H543.108V298.036H541.156V296.083Z" fill="#249F58"/>
<path fill-rule="evenodd" clip-rule="evenodd" d="M539.199 292.176H541.152V294.129H539.199V292.176Z" fill="#AE6A3E"/>
<path fill-rule="evenodd" clip-rule="evenodd" d="M535.297 292.176H537.25V294.129H535.297V292.176Z" fill="#FFDA2C"/>
<path fill-rule="evenodd" clip-rule="evenodd" d="M537.249 298.035H539.202V299.988H537.249V298.035ZM533.344 296.082H535.297V298.035H533.344V296.082ZM531.391 292.176H533.344V294.129H531.391V292.176Z" fill="#249F58"/>
<path fill-rule="evenodd" clip-rule="evenodd" d="M539.199 290.223H541.152V292.176H539.199V290.223Z" fill="#151515"/>
<path fill-rule="evenodd" clip-rule="evenodd" d="M535.297 290.223H537.25V292.176H535.297V290.223Z" fill="#AE6A3E"/>
<path fill-rule="evenodd" clip-rule="evenodd" d="M517.719 303.894H558.731V307.8H517.719V303.894ZM517.719 278.506H558.731V282.412H517.719V278.506Z" fill="#F93939"/>
</g>
<rect x="8" y="323.424" width="41.0118" height="29.2941" rx="5.85882" fill="#249F58"/>
<path fill-rule="evenodd" clip-rule="evenodd" d="M28.5064 327.33L43.1535 338.071L28.5064 348.812L13.8594 338.071" fill="#FFDA2C"/>
<path d="M28.5072 344.907C32.2822 344.907 35.3425 341.847 35.3425 338.072C35.3425 334.297 32.2822 331.236 28.5072 331.236C24.7321 331.236 21.6719 334.297 21.6719 338.072C21.6719 341.847 24.7321 344.907 28.5072 344.907Z" fill="#1A47B8"/>
<path fill-rule="evenodd" clip-rule="evenodd" d="M23.625 335.141C23.625 335.141 28.0465 335.922 31.2337 337.285L35.3426 339.047" fill="white"/>
<path d="M23.625 335.141C23.625 335.141 28.0465 335.922 31.2337 337.285L35.3426 339.047" stroke="white" stroke-width="1.95294"/>
<g clip-path="url(#clip67_3385_41404)">
<rect x="64.6367" y="323.424" width="41.0118" height="29.2941" rx="5.85882" fill="#FFDA2C"/>
<path d="M101.743 323.424H68.5426C66.3854 323.424 64.6367 325.173 64.6367 327.33V348.812C64.6367 350.969 66.3854 352.718 68.5426 352.718H101.743C103.9 352.718 105.648 350.969 105.648 348.812V327.33C105.648 325.173 103.9 323.424 101.743 323.424Z" fill="#FFDA2C"/>
<path fill-rule="evenodd" clip-rule="evenodd" d="M64.6367 323.424L105.648 342.953V350.765L64.6367 331.236V323.424Z" fill="white"/>
<path fill-rule="evenodd" clip-rule="evenodd" d="M64.6367 329.283L105.648 348.813V352.718L64.6367 333.189V329.283Z" fill="#151515"/>
<path fill-rule="evenodd" clip-rule="evenodd" d="M80.2612 337.095L82.2141 339.048V346.86L78.3082 344.907V341.001L74.4023 337.095L78.3082 333.189L80.2612 335.142V337.095ZM82.2141 341.001H88.0729V342.954H82.2141V341.001ZM90.0259 337.095L88.0729 339.048V346.86L91.9788 344.907V341.001L95.8847 337.095L91.9788 333.189L90.0259 335.142V337.095ZM82.2141 335.142H88.0729L85.1435 329.283L82.2141 335.142Z" fill="#F93939"/>
</g>
<g clip-path="url(#clip68_3385_41404)">
<path d="M158.375 323.424H125.175C123.018 323.424 121.27 325.173 121.27 327.33V348.812C121.27 350.969 123.018 352.718 125.175 352.718H158.375C160.533 352.718 162.281 350.969 162.281 348.812V327.33C162.281 325.173 160.533 323.424 158.375 323.424Z" fill="#249F58"/>
<path fill-rule="evenodd" clip-rule="evenodd" d="M121.27 323.424H162.281V333.189H121.27V323.424Z" fill="white"/>
</g>
<g clip-path="url(#clip69_3385_41404)">
<path d="M215.012 323.424H181.812C179.655 323.424 177.906 325.173 177.906 327.33V348.812C177.906 350.969 179.655 352.718 181.812 352.718H215.012C217.169 352.718 218.918 350.969 218.918 348.812V327.33C218.918 325.173 217.169 323.424 215.012 323.424Z" fill="#1A47B8"/>
<path fill-rule="evenodd" clip-rule="evenodd" d="M177.906 323.424H218.918V337.094H177.906V323.424Z" fill="#FFDA2C"/>
</g>
<g clip-path="url(#clip70_3385_41404)">
<path d="M271.649 323.424H238.449C236.292 323.424 234.543 325.173 234.543 327.33V348.812C234.543 350.969 236.292 352.718 238.449 352.718H271.649C273.806 352.718 275.555 350.969 275.555 348.812V327.33C275.555 325.173 273.806 323.424 271.649 323.424Z" fill="#F93939"/>
<path fill-rule="evenodd" clip-rule="evenodd" d="M234.543 323.424L254.072 339.047L234.543 352.718V323.424ZM275.555 323.424L256.025 339.047L275.555 352.718V323.424Z" fill="#00B731"/>
<path fill-rule="evenodd" clip-rule="evenodd" d="M248.522 336.032L234.543 326.353V323.424H237.472L250.844 332.681C252.002 331.775 253.461 331.236 255.049 331.236C256.635 331.236 258.095 331.775 259.254 332.681L272.625 323.424H275.555V326.353L261.576 336.032C261.777 336.676 261.884 337.36 261.884 338.071C261.884 338.782 261.777 339.465 261.576 340.11L275.555 349.789V352.718H272.625L259.254 343.461C258.093 344.367 256.637 344.906 255.049 344.906C253.463 344.906 252.002 344.367 250.844 343.461L237.472 352.718H234.543V349.789L248.522 340.11C248.321 339.465 248.214 338.782 248.214 338.071C248.214 337.36 248.321 336.676 248.522 336.032V336.032Z" fill="white"/>
<path fill-rule="evenodd" clip-rule="evenodd" d="M254.074 335.141H256.027V337.094H254.074V335.141ZM256.027 339.047H257.98V340.999H256.027V339.047ZM252.121 339.047H254.074V340.999H252.121V339.047Z" fill="#AF010D"/>
</g>
<g clip-path="url(#clip71_3385_41404)">
<rect x="291.176" y="323.424" width="41.0118" height="29.2941" rx="5.85882" fill="white"/>
<path d="M312.085 346.113H311.281L311.482 342.897C311.471 342.727 311.389 342.683 311.08 342.695L307.863 343.098C307.863 343.098 308.466 342.293 308.466 341.891C308.466 341.489 304.848 338.876 304.848 338.876C304.848 338.876 305.652 338.675 305.853 338.474C306.054 338.273 305.049 336.061 305.049 336.061C305.049 336.061 307.092 336.865 307.26 336.664C307.429 336.463 307.662 335.659 307.662 335.659C307.662 335.659 309.27 337.469 309.673 337.469C310.075 337.469 308.868 333.046 308.868 333.046C308.868 333.046 309.874 333.85 310.276 333.85C310.678 333.85 311.683 331.236 311.683 331.236C311.683 331.236 312.688 333.85 312.889 333.85C313.09 333.85 314.497 333.046 314.497 333.046C314.497 333.046 313.492 337.267 313.693 337.469C313.894 337.67 315.704 335.659 315.704 335.659C315.704 335.659 315.905 336.463 316.106 336.664C316.307 336.865 318.317 336.061 318.317 336.061C318.317 336.061 317.312 338.273 317.513 338.474C317.714 338.675 318.518 338.876 318.518 338.876C318.518 338.876 314.9 341.489 314.9 341.891C314.9 342.293 315.302 343.098 315.302 343.098L312.286 342.695C312.044 342.626 311.96 342.679 311.884 342.897L312.085 346.113Z" fill="#F93939"/>
<rect x="322.422" y="323.424" width="9.76471" height="29.2941" fill="#F93939"/>
<rect x="291.176" y="323.424" width="9.76471" height="29.2941" fill="#F93939"/>
</g>
<g clip-path="url(#clip72_3385_41404)">
<rect x="347.812" y="323.424" width="41.0118" height="29.2941" rx="5.85882" fill="#F93939"/>
<path fill-rule="evenodd" clip-rule="evenodd" d="M363.437 333.189H364.414L365.39 335.142H363.437V333.189ZM365.39 335.142H367.343V337.095H365.39V335.142ZM363.437 337.095H365.39V339.048H363.437V337.095ZM361.484 339.048H363.437V341.001H361.484V339.048ZM361.484 341.001H363.437V342.954H361.484V341.001ZM360.508 341.001H361.484V342.954H359.531L360.508 341.001ZM365.39 339.048H369.296V342.954H365.39V339.048ZM373.202 333.189H372.225L371.249 335.142H373.202V333.189ZM371.249 335.142H369.296V337.095H371.249V335.142ZM373.202 337.095H371.249V339.048H373.202V337.095ZM375.155 339.048H373.202V341.001H375.155V339.048ZM375.155 341.001H373.202V342.954H375.155V341.001ZM376.131 341.001H375.155V342.954H377.108L376.131 341.001ZM371.249 339.048H369.296V342.954H371.249V339.048Z" fill="white"/>
<path opacity="0.7" fill-rule="evenodd" clip-rule="evenodd" d="M365.39 337.094H367.343V339.047H365.39V337.094ZM363.437 339.047H365.39V342.952H363.437V339.047ZM363.437 335.141H365.39V337.094H363.437V335.141ZM362.461 337.094H363.437V339.047H361.484L362.461 337.094ZM371.249 337.094H369.296V339.047H371.249V337.094ZM373.202 339.047H371.249V342.952H373.202V339.047ZM373.202 335.141H371.249V337.094H373.202V335.141ZM374.178 337.094H373.202V339.047H375.155L374.178 337.094ZM369.296 335.141H367.343V339.047H369.296V335.141Z" fill="white"/>
<path opacity="0.7" fill-rule="evenodd" clip-rule="evenodd" d="M367.344 333.189H369.297V335.142H367.344V333.189Z" fill="white"/>
<path fill-rule="evenodd" clip-rule="evenodd" d="M347.812 323.424H388.824V331.236H347.812V323.424ZM347.812 344.906H388.824V352.718H347.812V344.906Z" fill="#232C80"/>
</g>
<g clip-path="url(#clip73_3385_41404)">
<rect x="404.445" y="323.424" width="41.0118" height="29.2941" rx="5.85882" fill="#F93939"/>
<path d="M441.551 323.424H408.351C406.194 323.424 404.445 325.173 404.445 327.33V348.812C404.445 350.969 406.194 352.718 408.351 352.718H441.551C443.708 352.718 445.457 350.969 445.457 348.812V327.33C445.457 325.173 443.708 323.424 441.551 323.424Z" fill="#F93939"/>
<path fill-rule="evenodd" clip-rule="evenodd" d="M415.183 337.544L412.312 339.054L412.859 335.857L410.539 333.591L413.748 333.129L415.183 330.219L416.617 333.129L419.825 333.591L417.501 335.857L418.052 339.052L415.183 337.544ZM422.022 329.283H423.975V331.236H422.022V329.283ZM423.975 333.189H425.928V335.142H423.975V333.189ZM423.975 337.095H425.928V339.048H423.975V337.095ZM422.022 341.001H423.975V342.954H422.022V341.001Z" fill="#FFDA2C"/>
</g>
<g clip-path="url(#clip74_3385_41404)">
<rect x="461.082" y="323.424" width="41.0118" height="29.2941" rx="5.85882" fill="white"/>
<path fill-rule="evenodd" clip-rule="evenodd" d="M461.082 323.424H502.094V331.236H461.082V323.424Z" fill="#FFDA2C"/>
<path fill-rule="evenodd" clip-rule="evenodd" d="M461.082 323.424L484.517 338.071L461.082 352.718V323.424Z" fill="#00B731"/>
<path fill-rule="evenodd" clip-rule="evenodd" d="M472.8 344.594C472.234 344.798 471.628 344.907 470.997 344.907C467.677 344.907 464.988 341.847 464.988 338.072C464.988 334.297 467.679 331.236 470.997 331.236C471.626 331.236 472.232 331.346 472.8 331.549C470.363 332.42 468.593 335.011 468.593 338.072C468.593 341.132 470.363 343.723 472.8 344.594ZM472.8 333.189H474.753V335.142H472.8V333.189ZM472.8 337.095H474.753V339.048H472.8V337.095ZM472.8 341.001H474.753V342.954H472.8V341.001Z" fill="white"/>
</g>
<g clip-path="url(#clip75_3385_41404)">
<rect x="517.719" y="323.424" width="41.0118" height="29.2941" rx="5.85882" fill="white"/>
<path d="M554.825 323.424H521.625C519.467 323.424 517.719 325.173 517.719 327.33V348.812C517.719 350.969 519.467 352.718 521.625 352.718H554.825C556.982 352.718 558.731 350.969 558.731 348.812V327.33C558.731 325.173 556.982 323.424 554.825 323.424Z" fill="white"/>
<path fill-rule="evenodd" clip-rule="evenodd" d="M529.386 333.138C529.257 334.302 528.89 335.142 528.461 335.142C528.031 335.142 527.664 334.302 527.535 333.138C526.371 333.009 525.531 332.642 525.531 332.213C525.531 331.783 526.371 331.416 527.535 331.287C527.664 330.123 528.031 329.283 528.461 329.283C528.89 329.283 529.257 330.123 529.386 331.287C530.55 331.416 531.39 331.783 531.39 332.213C531.39 332.642 530.55 333.009 529.386 333.138Z" fill="#1A47B8"/>
<path fill-rule="evenodd" clip-rule="evenodd" d="M537.25 323.424H558.732V339.047H537.25V323.424Z" fill="#F93939"/>
</g>
</g>
<rect x="-21" y="-15" width="589.911" height="33.2403" fill="url(#paint1_linear_3385_41404)"/>
<rect x="-16.8828" y="385.961" width="400.961" height="32.9444" transform="rotate(-90 -16.8828 385.961)" fill="url(#paint2_linear_3385_41404)"/>
<rect width="400.961" height="32.9444" transform="matrix(4.33224e-08 -1 -1 -4.41039e-08 572 385.961)" fill="url(#paint3_linear_3385_41404)"/>
</g>
</g>
<defs>
<radialGradient id="paint0_radial_3385_41404" cx="0" cy="0" r="1" gradientUnits="userSpaceOnUse" gradientTransform="translate(290.5 60.4708) rotate(90) scale(374.529 579.74)">
<stop stop-color="#D9D9D9" stop-opacity="0.2"/>
<stop offset="0.942529" stop-color="#D9D9D9" stop-opacity="0"/>
</radialGradient>
<linearGradient id="paint1_linear_3385_41404" x1="273.956" y1="-15" x2="273.956" y2="18.2403" gradientUnits="userSpaceOnUse">
<stop stop-color="white"/>
<stop offset="1" stop-color="white" stop-opacity="0"/>
</linearGradient>
<linearGradient id="paint2_linear_3385_41404" x1="183.598" y1="385.961" x2="183.598" y2="418.905" gradientUnits="userSpaceOnUse">
<stop stop-color="white"/>
<stop offset="1" stop-color="white" stop-opacity="0"/>
</linearGradient>
<linearGradient id="paint3_linear_3385_41404" x1="200.48" y1="0" x2="200.48" y2="32.9444" gradientUnits="userSpaceOnUse">
<stop stop-color="white"/>
<stop offset="1" stop-color="white" stop-opacity="0"/>
</linearGradient>
<clipPath id="clip0_3385_41404">
<rect width="569" height="336" rx="8" fill="white"/>
</clipPath>
<clipPath id="clip1_3385_41404">
<rect x="8" y="9" width="41.0118" height="29.2941" rx="5.85882" fill="white"/>
</clipPath>
<clipPath id="clip2_3385_41404">
<rect x="64.6367" y="9" width="41.0118" height="29.2941" rx="5.85882" fill="white"/>
</clipPath>
<clipPath id="clip3_3385_41404">
<rect x="121.27" y="9" width="41.0118" height="29.2941" rx="5.85882" fill="white"/>
</clipPath>
<clipPath id="clip4_3385_41404">
<rect x="177.906" y="9" width="41.0118" height="29.2941" rx="5.85882" fill="white"/>
</clipPath>
<clipPath id="clip5_3385_41404">
<rect x="234.543" y="9" width="41.0118" height="29.2941" rx="5.85882" fill="white"/>
</clipPath>
<clipPath id="clip6_3385_41404">
<rect x="291.176" y="9" width="41.0118" height="29.2941" rx="5.85882" fill="white"/>
</clipPath>
<clipPath id="clip7_3385_41404">
<rect x="347.812" y="9" width="41.0118" height="29.2941" rx="5.85882" fill="white"/>
</clipPath>
<clipPath id="clip8_3385_41404">
<rect x="404.445" y="9" width="41.0118" height="29.2941" rx="5.85882" fill="white"/>
</clipPath>
<clipPath id="clip9_3385_41404">
<rect x="461.082" y="9" width="41.0118" height="29.2941" rx="5.85882" fill="white"/>
</clipPath>
<clipPath id="clip10_3385_41404">
<rect x="517.719" y="9" width="41.0118" height="29.2941" rx="5.85882" fill="white"/>
</clipPath>
<clipPath id="clip11_3385_41404">
<rect x="8" y="53.918" width="41.0118" height="29.2941" rx="5.85882" fill="white"/>
</clipPath>
<clipPath id="clip12_3385_41404">
<rect x="64.6367" y="53.918" width="41.0118" height="29.2941" rx="5.85882" fill="white"/>
</clipPath>
<clipPath id="clip13_3385_41404">
<rect x="121.27" y="53.918" width="41.0118" height="29.2941" rx="5.85882" fill="white"/>
</clipPath>
<clipPath id="clip14_3385_41404">
<rect x="177.906" y="53.918" width="41.0118" height="29.2941" rx="5.85882" fill="white"/>
</clipPath>
<clipPath id="clip15_3385_41404">
<rect x="234.543" y="53.918" width="41.0118" height="29.2941" rx="5.85882" fill="white"/>
</clipPath>
<clipPath id="clip16_3385_41404">
<rect x="291.176" y="53.918" width="41.0118" height="29.2941" rx="5.85882" fill="white"/>
</clipPath>
<clipPath id="clip17_3385_41404">
<rect x="347.812" y="53.918" width="41.0118" height="29.2941" rx="5.85882" fill="white"/>
</clipPath>
<clipPath id="clip18_3385_41404">
<rect x="404.445" y="53.918" width="41.0118" height="29.2941" rx="5.85882" fill="white"/>
</clipPath>
<clipPath id="clip19_3385_41404">
<rect x="461.082" y="53.918" width="41.0118" height="29.2941" rx="5.85882" fill="white"/>
</clipPath>
<clipPath id="clip20_3385_41404">
<rect x="517.719" y="53.918" width="41.0118" height="29.2941" rx="5.85882" fill="white"/>
</clipPath>
<clipPath id="clip21_3385_41404">
<rect x="64.6367" y="98.8359" width="41.0118" height="29.2941" rx="5.85882" fill="white"/>
</clipPath>
<clipPath id="clip22_3385_41404">
<rect x="121.27" y="98.8359" width="41.0118" height="29.2941" rx="5.85882" fill="white"/>
</clipPath>
<clipPath id="clip23_3385_41404">
<rect x="177.906" y="98.8359" width="41.0118" height="29.2941" rx="5.85882" fill="white"/>
</clipPath>
<clipPath id="clip24_3385_41404">
<rect x="234.543" y="98.8359" width="41.0118" height="29.2941" rx="5.85882" fill="white"/>
</clipPath>
<clipPath id="clip25_3385_41404">
<rect x="291.176" y="98.8359" width="41.0118" height="29.2941" rx="5.85882" fill="white"/>
</clipPath>
<clipPath id="clip26_3385_41404">
<rect x="347.812" y="98.8359" width="41.0118" height="29.2941" rx="5.85882" fill="white"/>
</clipPath>
<clipPath id="clip27_3385_41404">
<rect x="404.445" y="98.8359" width="41.0118" height="29.2941" rx="5.85882" fill="white"/>
</clipPath>
<clipPath id="clip28_3385_41404">
<rect x="461.082" y="98.8359" width="41.0118" height="29.2941" rx="5.85882" fill="white"/>
</clipPath>
<clipPath id="clip29_3385_41404">
<rect x="517.719" y="98.8359" width="41.0118" height="29.2941" rx="5.85882" fill="white"/>
</clipPath>
<clipPath id="clip30_3385_41404">
<rect x="8" y="143.754" width="41.0118" height="29.2941" rx="5.85882" fill="white"/>
</clipPath>
<clipPath id="clip31_3385_41404">
<rect x="64.6367" y="143.754" width="41.0118" height="29.2941" rx="5.85882" fill="white"/>
</clipPath>
<clipPath id="clip32_3385_41404">
<rect x="121.27" y="143.754" width="41.0118" height="29.2941" rx="5.85882" fill="white"/>
</clipPath>
<clipPath id="clip33_3385_41404">
<rect x="177.906" y="143.754" width="41.0118" height="29.2941" rx="5.85882" fill="white"/>
</clipPath>
<clipPath id="clip34_3385_41404">
<rect x="234.543" y="143.754" width="41.0118" height="29.2941" rx="5.85882" fill="white"/>
</clipPath>
<clipPath id="clip35_3385_41404">
<rect x="291.176" y="143.754" width="41.0118" height="29.2941" rx="5.85882" fill="white"/>
</clipPath>
<clipPath id="clip36_3385_41404">
<rect x="347.812" y="143.754" width="41.0118" height="29.2941" rx="5.85882" fill="white"/>
</clipPath>
<clipPath id="clip37_3385_41404">
<rect x="517.719" y="143.754" width="41.0118" height="29.2941" rx="5.85882" fill="white"/>
</clipPath>
<clipPath id="clip38_3385_41404">
<rect x="8" y="188.67" width="41.0118" height="29.2941" rx="5.85882" fill="white"/>
</clipPath>
<clipPath id="clip39_3385_41404">
<rect x="64.6367" y="188.67" width="41.0118" height="29.2941" rx="5.85882" fill="white"/>
</clipPath>
<clipPath id="clip40_3385_41404">
<rect x="121.27" y="188.67" width="41.0118" height="29.2941" rx="5.85882" fill="white"/>
</clipPath>
<clipPath id="clip41_3385_41404">
<rect x="177.906" y="188.67" width="41.0118" height="29.2941" rx="5.85882" fill="white"/>
</clipPath>
<clipPath id="clip42_3385_41404">
<rect x="291.176" y="188.67" width="41.0118" height="29.2941" rx="5.85882" fill="white"/>
</clipPath>
<clipPath id="clip43_3385_41404">
<rect x="347.812" y="188.67" width="41.0118" height="29.2941" rx="5.85882" fill="white"/>
</clipPath>
<clipPath id="clip44_3385_41404">
<rect x="404.445" y="188.67" width="41.0118" height="29.2941" rx="5.85882" fill="white"/>
</clipPath>
<clipPath id="clip45_3385_41404">
<rect x="461.082" y="188.67" width="41.0118" height="29.2941" rx="5.85882" fill="white"/>
</clipPath>
<clipPath id="clip46_3385_41404">
<rect x="517.719" y="188.67" width="41.0118" height="29.2941" rx="5.85882" fill="white"/>
</clipPath>
<clipPath id="clip47_3385_41404">
<rect x="8" y="233.588" width="41.0118" height="29.2941" rx="5.85882" fill="white"/>
</clipPath>
<clipPath id="clip48_3385_41404">
<rect x="64.6367" y="233.588" width="41.0118" height="29.2941" rx="5.85882" fill="white"/>
</clipPath>
<clipPath id="clip49_3385_41404">
<rect x="121.27" y="233.588" width="41.0118" height="29.2941" rx="5.85882" fill="white"/>
</clipPath>
<clipPath id="clip50_3385_41404">
<rect x="177.906" y="233.588" width="41.0118" height="29.2941" rx="5.85882" fill="white"/>
</clipPath>
<clipPath id="clip51_3385_41404">
<rect x="234.543" y="233.588" width="41.0118" height="29.2941" rx="5.85882" fill="white"/>
</clipPath>
<clipPath id="clip52_3385_41404">
<rect x="291.176" y="233.588" width="41.0118" height="29.2941" rx="5.85882" fill="white"/>
</clipPath>
<clipPath id="clip53_3385_41404">
<rect x="347.812" y="233.588" width="41.0118" height="29.2941" rx="5.85882" fill="white"/>
</clipPath>
<clipPath id="clip54_3385_41404">
<rect x="404.445" y="233.588" width="41.0118" height="29.2941" rx="5.85882" fill="white"/>
</clipPath>
<clipPath id="clip55_3385_41404">
<rect x="461.082" y="233.588" width="41.0118" height="29.2941" rx="5.85882" fill="white"/>
</clipPath>
<clipPath id="clip56_3385_41404">
<rect x="517.719" y="233.588" width="41.0118" height="29.2941" rx="5.85882" fill="white"/>
</clipPath>
<clipPath id="clip57_3385_41404">
<rect x="8" y="278.506" width="41.0118" height="29.2941" rx="5.85882" fill="white"/>
</clipPath>
<clipPath id="clip58_3385_41404">
<rect x="64.6367" y="278.506" width="41.0118" height="29.2941" rx="5.85882" fill="white"/>
</clipPath>
<clipPath id="clip59_3385_41404">
<rect x="121.27" y="278.506" width="41.0118" height="29.2941" rx="5.85882" fill="white"/>
</clipPath>
<clipPath id="clip60_3385_41404">
<rect x="177.906" y="278.506" width="41.0118" height="29.2941" rx="5.85882" fill="white"/>
</clipPath>
<clipPath id="clip61_3385_41404">
<rect x="234.543" y="278.506" width="41.0118" height="29.2941" rx="5.85882" fill="white"/>
</clipPath>
<clipPath id="clip62_3385_41404">
<rect x="291.176" y="278.506" width="41.0118" height="29.2941" rx="5.85882" fill="white"/>
</clipPath>
<clipPath id="clip63_3385_41404">
<rect x="347.812" y="278.506" width="41.0118" height="29.2941" rx="5.85882" fill="white"/>
</clipPath>
<clipPath id="clip64_3385_41404">
<rect x="404.445" y="278.506" width="41.0118" height="29.2941" rx="5.85882" fill="white"/>
</clipPath>
<clipPath id="clip65_3385_41404">
<rect x="461.082" y="278.506" width="41.0118" height="29.2941" rx="5.85882" fill="white"/>
</clipPath>
<clipPath id="clip66_3385_41404">
<rect x="517.719" y="278.506" width="41.0118" height="29.2941" rx="5.85882" fill="white"/>
</clipPath>
<clipPath id="clip67_3385_41404">
<rect x="64.6367" y="323.424" width="41.0118" height="29.2941" rx="5.85882" fill="white"/>
</clipPath>
<clipPath id="clip68_3385_41404">
<rect x="121.27" y="323.424" width="41.0118" height="29.2941" rx="5.85882" fill="white"/>
</clipPath>
<clipPath id="clip69_3385_41404">
<rect x="177.906" y="323.424" width="41.0118" height="29.2941" rx="5.85882" fill="white"/>
</clipPath>
<clipPath id="clip70_3385_41404">
<rect x="234.543" y="323.424" width="41.0118" height="29.2941" rx="5.85882" fill="white"/>
</clipPath>
<clipPath id="clip71_3385_41404">
<rect x="291.176" y="323.424" width="41.0118" height="29.2941" rx="5.85882" fill="white"/>
</clipPath>
<clipPath id="clip72_3385_41404">
<rect x="347.812" y="323.424" width="41.0118" height="29.2941" rx="5.85882" fill="white"/>
</clipPath>
<clipPath id="clip73_3385_41404">
<rect x="404.445" y="323.424" width="41.0118" height="29.2941" rx="5.85882" fill="white"/>
</clipPath>
<clipPath id="clip74_3385_41404">
<rect x="461.082" y="323.424" width="41.0118" height="29.2941" rx="5.85882" fill="white"/>
</clipPath>
<clipPath id="clip75_3385_41404">
<rect x="517.719" y="323.424" width="41.0118" height="29.2941" rx="5.85882" fill="white"/>
</clipPath>
</defs>
</svg>
