<svg width="108" height="36" viewBox="0 0 108 36" fill="none" xmlns="http://www.w3.org/2000/svg">
<g clip-path="url(#clip0_1045_2399)">
<path d="M46.0744 18.4642C46.0744 23.4611 42.1653 27.1432 37.368 27.1432C32.5707 27.1432 28.6616 23.4611 28.6616 18.4642C28.6616 13.4321 32.5707 9.78516 37.368 9.78516C42.1653 9.78516 46.0744 13.4321 46.0744 18.4642ZM42.2632 18.4642C42.2632 15.3416 39.9975 13.2051 37.368 13.2051C34.7385 13.2051 32.4729 15.3416 32.4729 18.4642C32.4729 21.5554 34.7385 23.7232 37.368 23.7232C39.9975 23.7232 42.2632 21.5515 42.2632 18.4642Z" fill="#E9ECF7"/>
<path d="M64.8571 18.4642C64.8571 23.4611 60.9481 27.1432 56.1507 27.1432C51.3534 27.1432 47.4443 23.4611 47.4443 18.4642C47.4443 13.436 51.3534 9.78516 56.1507 9.78516C60.9481 9.78516 64.8571 13.4321 64.8571 18.4642ZM61.0459 18.4642C61.0459 15.3416 58.7803 13.2051 56.1507 13.2051C53.5212 13.2051 51.2556 15.3416 51.2556 18.4642C51.2556 21.5554 53.5212 23.7232 56.1507 23.7232C58.7803 23.7232 61.0459 21.5515 61.0459 18.4642Z" fill="#E9ECF7"/>
<path d="M82.857 10.3095V25.891C82.857 32.3005 79.0771 34.9183 74.6084 34.9183C70.402 34.9183 67.8703 32.1048 66.9155 29.804L70.2337 28.4227C70.8246 29.8353 72.2724 31.5022 74.6045 31.5022C77.4649 31.5022 79.2375 29.7375 79.2375 26.4154V25.1671H79.1045C78.2514 26.2197 76.608 27.1393 74.5341 27.1393C70.1946 27.1393 66.219 23.3593 66.219 18.4955C66.219 13.5964 70.1946 9.78516 74.5341 9.78516C76.6041 9.78516 78.2475 10.7047 79.1045 11.726H79.2375V10.3134H82.857V10.3095ZM79.5075 18.4955C79.5075 15.4394 77.4688 13.2051 74.8745 13.2051C72.245 13.2051 70.042 15.4394 70.042 18.4955C70.042 21.5202 72.245 23.7232 74.8745 23.7232C77.4688 23.7232 79.5075 21.5202 79.5075 18.4955Z" fill="#E9ECF7"/>
<path d="M88.8238 1.17188V26.6063H85.1064V1.17188H88.8238Z" fill="#E9ECF7"/>
<path d="M103.308 21.3167L106.266 23.2889C105.312 24.7015 103.011 27.1354 99.0351 27.1354C94.1047 27.1354 90.4226 23.3241 90.4226 18.4564C90.4226 13.2951 94.136 9.77734 98.6086 9.77734C103.112 9.77734 105.315 13.3616 106.035 15.2986L106.431 16.2846L94.8286 21.0898C95.7169 22.8311 97.0982 23.7193 99.0351 23.7193C100.976 23.7193 102.322 22.7646 103.308 21.3167ZM94.2026 18.1942L101.958 14.9738C101.532 13.8899 100.248 13.1347 98.7377 13.1347C96.8008 13.1347 94.1047 14.8447 94.2026 18.1942Z" fill="#E9ECF7"/>
<path d="M14.5909 16.2034V12.5212H26.999C27.1203 13.163 27.1829 13.9221 27.1829 14.7438C27.1829 17.5064 26.4277 20.9224 23.9938 23.3563C21.6265 25.8215 18.6017 27.1363 14.5948 27.1363C7.16798 27.1363 0.922852 21.0868 0.922852 13.6599C0.922852 6.23307 7.16798 0.183594 14.5948 0.183594C18.7035 0.183594 21.6304 1.79575 23.8295 3.89702L21.2313 6.49524C19.6543 5.01614 17.5178 3.86572 14.5909 3.86572C9.16752 3.86572 4.92584 8.23652 4.92584 13.6599C4.92584 19.0833 9.16752 23.4541 14.5909 23.4541C18.1087 23.4541 20.1121 22.0415 21.3956 20.7581C22.4365 19.7172 23.1212 18.2303 23.3912 16.1995L14.5909 16.2034Z" fill="#E9ECF7"/>
</g>
<defs>
<clipPath id="clip0_1045_2399">
<rect width="106.433" height="35.9995" fill="white" transform="translate(0.78125)"/>
</clipPath>
</defs>
</svg>
