<svg width="181" height="33" viewBox="0 0 181 33" fill="none" xmlns="http://www.w3.org/2000/svg">
<g clip-path="url(#clip0_3136_36232)">
<path fill-rule="evenodd" clip-rule="evenodd" d="M65.3952 11.9491C65.3952 11.6494 65.5971 11.4893 65.8506 11.4893C66.2795 11.4893 66.9272 11.9491 67.2924 12.8686C67.1615 12.8686 66.9644 12.9086 66.8322 12.9086C66.0512 12.9086 65.3952 12.5338 65.3952 11.9491ZM18.1433 11.9491C18.1433 11.6494 18.3367 11.4893 18.6011 11.4893C19.0192 11.4893 19.6404 11.9491 20.0009 12.8686C18.7945 12.8686 18.1433 12.6053 18.1433 11.9491ZM27.257 7.19733C27.257 2.27821 28.2062 1.52244 28.5006 1.52244C29.0245 1.52244 29.087 1.85241 29.087 3.73878C29.087 5.67732 28.2687 8.21391 27.257 9.60655V7.19733ZM60.4328 12.0473C59.8705 12.8383 59.4151 13.9616 59.4151 15.4088C59.4151 18.1808 60.9807 20.8265 64.023 20.8265C66.9644 20.8265 69.0251 18.4804 69.0251 15.2087C69.0251 14.2588 68.989 14.1278 68.9277 13.7335C69.6114 13.4327 70.2014 12.9729 70.6604 12.6053C71.0509 12.3081 71.3428 12.1419 71.5759 12.1419C71.8691 12.1419 71.9977 12.3736 71.9977 12.8019V19.275C71.9977 20.3292 72.3281 20.8265 73.1415 20.8265C73.8913 20.8265 74.4188 20.2952 74.7108 19.6692C75.7921 17.3922 77.3578 14.3571 78.0414 13.2046C78.206 12.9402 78.3394 12.7376 78.4331 12.7376C78.5641 12.7376 78.6314 12.8383 78.6314 13.2653V18.4185C78.6314 19.8682 79.2874 20.8265 80.7197 20.8265C82.2264 20.8265 82.9738 19.3696 84.2907 17.1266C84.3531 16.9919 84.3808 16.8961 84.3808 16.8002C84.3808 16.503 84.126 16.3344 83.8629 16.3344C83.5661 16.3344 83.4027 16.6341 82.4247 17.7198C82.2264 17.926 82.0342 18.2123 81.6713 18.2123C81.5415 18.2123 81.4418 18.0534 81.4418 17.852V12.0752C81.4418 10.5237 80.7545 9.8977 79.8726 9.8977C79.1553 9.8977 78.5641 10.1949 77.9441 11.1193C76.8327 12.7728 75.6888 15.1177 75.07 16.2992C75.0003 16.4375 74.9066 16.6341 74.8429 16.6341C74.7744 16.6341 74.7456 16.5321 74.7456 16.2992V12.0752C74.7456 10.8573 74.4188 9.8977 73.1415 9.8977C71.8006 9.8977 71.1157 10.8233 70.1353 11.5148C69.5141 11.9818 68.9602 12.3081 68.5372 12.5059C67.88 10.8233 66.6724 9.97048 65.6595 9.99596C64.643 10.0311 63.9245 10.662 63.9245 11.7186C63.9245 12.8019 64.5817 13.5564 65.4601 13.8924C65.9479 14.0902 66.4069 14.1278 67.0641 14.1278C67.2612 14.1278 67.4558 14.1278 67.582 14.0902C67.6517 14.4189 67.6204 14.8872 67.6204 15.2487C67.6204 16.8682 66.6724 18.4804 64.9098 18.4804C63.075 18.4804 62.0008 16.6984 62.0008 14.6543C62.0008 13.1015 62.4562 11.8168 63.2024 10.9288C63.504 10.5965 63.7286 10.3951 63.7286 10.0906C63.7286 9.93653 63.504 9.89771 63.3057 9.89771C62.0609 9.89771 60.6923 10.4606 59.7467 10.9531C58.4983 11.6142 57.0312 12.7073 55.8201 13.7954C55.2325 12.4719 54.514 11.317 54.1523 10.423C54.0226 10.0603 53.9277 9.63932 53.6657 9.63932C53.4338 9.63932 53.3329 9.8698 53.1731 10.3247C52.5867 12.0752 49.4471 17.1945 48.761 17.8872C48.6961 17.9818 48.6012 18.0861 48.57 18.0861C48.4991 18.0861 48.4618 18.0534 48.4618 17.852V12.0752C48.4618 10.5237 47.8418 9.89771 46.9984 9.89771C46.2762 9.89771 45.6574 10.1949 45.0699 11.1193C43.9933 12.7728 42.68 15.182 42.0612 16.3672C41.9615 16.571 41.863 16.6341 41.8293 16.6341C41.7969 16.6341 41.7704 16.503 41.7704 16.2992V12.0752C41.7704 10.5237 41.1468 9.89771 40.2962 9.89771C39.5752 9.89771 38.8927 10.1682 38.334 11.1193C36.9643 13.4654 34.6777 17.0623 34.2524 17.6519C34.1863 17.7538 34.1202 17.8205 34.0553 17.852C33.9905 17.852 33.9532 17.7877 33.9532 17.624V12.0752C33.9532 10.5237 33.3332 9.89771 32.4885 9.89771C31.3098 9.89771 30.6598 10.9919 30.2308 11.681C29.6397 12.6381 28.8587 13.9276 28.2399 15.1177C27.8133 15.9135 27.4517 16.6341 27.3195 16.6341C27.257 16.6341 27.257 16.3344 27.257 15.7752V11.3546C29.3129 9.04004 30.5889 6.20502 30.5889 3.10312C30.5889 1.31744 29.8079 0.332397 28.6015 0.332397C26.3414 0.332397 24.6136 3.8977 24.6136 8.11809V11.55C23.5659 12.2111 22.5842 12.5338 21.3731 12.7728C20.7543 10.9288 19.4446 9.97049 18.4028 9.99597C17.3923 10.0311 16.6702 10.662 16.6702 11.7186C16.6702 13.4654 18.3704 14.1909 19.8699 14.1909H20.2953C20.359 14.5233 20.359 14.8872 20.359 15.2487C20.359 16.8682 19.4121 18.4804 17.6519 18.4804C15.8231 18.4804 14.7417 16.6984 14.7417 14.6543C14.7417 13.1015 15.1947 11.8168 15.9469 10.9288C16.2437 10.5965 16.4744 10.2992 16.4744 10.0906C16.4744 9.93653 16.2437 9.89771 16.0454 9.89771C14.8042 9.89771 12.0623 11.5876 8.7917 14.8872C8.50212 12.2463 8.1729 9.66964 8.1729 7.16094C8.1729 4.35746 8.722 1.97614 8.85297 1.28953C8.91906 0.863728 8.95991 0.595633 8.95991 0.401537C8.95991 0.135867 8.82053 0 8.46848 0C5.81787 0 0 4.2592 0 10.628C0 15.1444 1.6377 17.3243 4.47575 20.129C2.75274 22.9349 1.37096 26.2661 1.37096 29.237C1.37096 31.3781 1.866 33 3.43041 33C6.6998 33 9.14855 26.1399 9.14855 21.0546C9.14855 19.5382 9.08847 18.0182 8.95991 16.503C10.1651 15.2087 12.0286 13.4654 12.4828 13.3004C12.2882 13.9943 12.1572 14.7222 12.1572 15.4088C12.1572 18.1808 13.7288 20.8265 16.7651 20.8265C19.6128 20.8265 21.766 18.4804 21.766 15.2087C21.766 14.7865 21.7323 14.4189 21.7035 14.0247C22.744 13.8269 23.7016 13.5564 24.6136 13.0045V19.6365C24.6136 20.4905 25.1976 20.8265 25.7539 20.8265C26.5096 20.8265 26.9013 20.2952 27.4516 19.0809C27.9142 18.0861 29.1518 15.8116 29.9028 14.4541C30.4952 13.3951 30.822 12.7072 31.0851 12.7072C31.1464 12.7072 31.2161 12.8686 31.2161 13.2653V18.9098C31.2161 20.4286 32.0007 20.8265 32.6796 20.8265C33.3332 20.8265 33.7609 20.4638 34.1863 19.8682C35.8877 17.4238 37.6876 14.5233 38.4013 13.2653C38.5335 13.0396 38.6957 12.8686 38.8279 12.8686C38.9552 12.8686 39.0213 12.9402 39.0213 13.3635V19.275C39.0213 20.3292 39.3481 20.8265 40.1688 20.8265C40.9161 20.8265 41.4052 20.2952 41.6971 19.6692C42.7833 17.3922 44.3802 14.3874 45.0699 13.2046C45.2297 12.9402 45.3943 12.7072 45.4916 12.7072C45.6274 12.7072 45.6574 12.8686 45.6574 13.3004V18.9098C45.6574 20.4286 46.442 20.8265 47.1329 20.8265C48.0401 20.8265 48.6349 20.163 49.2224 19.4072C50.2942 17.9818 51.8646 15.4513 52.8138 13.8269C53.143 14.3571 53.4987 14.9854 53.7979 15.6769C53.0121 16.6341 52.2263 17.7198 52.2263 18.8734C52.2263 20.0962 53.0758 20.8265 53.9589 20.8265C55.4596 20.8265 56.8306 19.3696 56.8306 17.3607C56.8306 16.571 56.6059 15.7436 56.3139 14.9539C57.6464 13.6304 59.2505 12.3433 60.4328 12.0473ZM6.59888 19.241C6.86322 20.9879 7.09271 22.7081 7.09271 24.0582C7.09271 27.2208 6.04977 30.9183 4.25106 30.888C3.55657 30.888 2.97262 30.1868 2.94378 28.9725C2.8777 25.0166 4.74009 21.649 6.59888 19.241ZM54.3158 16.9919C54.514 17.5596 54.6137 18.0182 54.6137 18.4804C54.6137 19.0093 54.4167 19.5382 54.055 19.5382C53.7979 19.5382 53.536 19.241 53.536 18.7776C53.536 18.2814 53.9589 17.4893 54.3158 16.9919ZM7.77879 1.25435C7.77879 1.45572 7.321 2.37647 6.73465 4.02871C6.11345 5.74161 5.52109 8.18116 5.52109 11.1193C5.52109 12.8686 5.95004 15.182 6.31171 17.5233L5.26516 18.9474C3.59622 16.8961 2.55208 14.59 2.55208 10.628C2.55208 5.01982 5.9176 1.1294 7.64662 1.1294C7.74995 1.1294 7.77879 1.15851 7.77879 1.25435Z" fill="#627D98"/>
<path fill-rule="evenodd" clip-rule="evenodd" d="M161.248 11.9491C161.248 11.6494 161.439 11.4893 161.703 11.4893C162.125 11.4893 162.78 11.9491 163.138 12.8686C163.01 12.8686 162.814 12.9086 162.677 12.9086C161.9 12.9086 161.248 12.5338 161.248 11.9491ZM113.986 11.9491C113.986 11.6494 114.186 11.4893 114.444 11.4893C114.869 11.4893 115.496 11.9491 115.848 12.8686C114.64 12.8686 113.986 12.6053 113.986 11.9491ZM123.106 7.19733C123.106 2.27821 124.049 1.52244 124.347 1.52244C124.868 1.52244 124.935 1.85241 124.935 3.73878C124.935 5.67732 124.115 8.21391 123.106 9.60655V7.19733ZM102.454 19.241C102.707 20.9879 102.945 22.7081 102.945 24.0582C102.945 27.2208 101.901 30.9183 100.099 30.888C99.4138 30.888 98.825 30.1868 98.7926 28.9725C98.7253 25.0166 100.591 21.649 102.454 19.241ZM150.169 16.9919C150.368 17.5596 150.461 18.0182 150.461 18.4804C150.461 19.0093 150.265 19.5382 149.906 19.5382C149.648 19.5382 149.379 19.241 149.379 18.7776C149.379 18.2814 149.808 17.4893 150.169 16.9919ZM103.624 1.25435C103.624 1.45572 103.171 2.37647 102.579 4.02871C101.962 5.74161 101.37 8.18116 101.37 11.1193C101.37 12.8686 101.806 15.182 102.163 17.5233L101.114 18.9474C99.4498 16.8961 98.3985 14.59 98.3985 10.628C98.3985 5.01982 101.771 1.1294 103.5 1.1294C103.595 1.1294 103.624 1.15851 103.624 1.25435ZM98.175 17.7537C98.7589 18.5459 99.4798 19.3041 100.329 20.129C98.5955 22.9349 97.2246 26.2661 97.2246 29.237C97.2246 31.3781 97.7184 33 99.2876 33C102.552 33 105.001 26.1399 105.001 21.0546C105.001 19.5382 104.937 18.0182 104.806 16.503C106.017 15.2087 107.874 13.4654 108.338 13.3004C108.141 13.9943 108.005 14.7222 108.005 15.4088C108.005 18.1808 109.575 20.8265 112.618 20.8265C115.458 20.8265 117.615 18.4804 117.615 15.2087C117.615 14.7865 117.585 14.4189 117.549 14.0247C118.596 13.8269 119.55 13.5564 120.46 13.0045V19.6365C120.46 20.4905 121.045 20.8265 121.597 20.8265C122.358 20.8265 122.75 20.2952 123.303 19.0809C123.758 18.0861 125.003 15.8116 125.756 14.4541C126.343 13.3951 126.67 12.7072 126.938 12.7072C126.999 12.7072 127.06 12.8686 127.06 13.2653V18.9098C127.06 20.4286 127.842 20.8265 128.53 20.8265C129.186 20.8265 129.606 20.4638 130.04 19.8682C131.734 17.4238 133.534 14.5233 134.251 13.2653C134.382 13.0396 134.548 12.8686 134.674 12.8686C134.802 12.8686 134.874 12.9402 134.874 13.3635V19.275C134.874 20.3292 135.197 20.8265 136.013 20.8265C136.765 20.8265 137.255 20.2952 137.552 19.6692C138.631 17.3922 140.231 14.3874 140.915 13.2046C141.082 12.9402 141.244 12.7072 141.346 12.7072C141.474 12.7072 141.51 12.8686 141.51 13.3004V18.9098C141.51 20.4286 142.287 20.8265 142.972 20.8265C143.894 20.8265 144.482 20.163 145.066 19.4072C146.144 17.9818 147.717 15.4513 148.664 13.8269C148.987 14.3571 149.351 14.9854 149.648 15.6769C148.855 16.6341 148.079 17.7198 148.079 18.8734C148.079 20.0962 148.919 20.8265 149.808 20.8265C151.308 20.8265 152.679 19.3696 152.679 17.3607C152.679 16.571 152.452 15.7436 152.158 14.9539C153.496 13.6304 155.099 12.3433 156.276 12.0473C155.72 12.8383 155.263 13.9616 155.263 15.4088C155.263 18.1808 156.833 20.8265 159.873 20.8265C162.814 20.8265 164.868 18.4804 164.868 15.2087C164.868 14.2588 164.838 14.1278 164.777 13.7335C165.455 13.4327 166.048 12.9729 166.51 12.6053C166.894 12.3081 167.194 12.1419 167.419 12.1419C167.714 12.1419 167.852 12.3736 167.852 12.8019V19.275C167.852 20.3292 168.174 20.8265 168.992 20.8265C169.74 20.8265 170.266 20.2952 170.562 19.6692C171.634 17.3922 173.205 14.3571 173.889 13.2046C174.052 12.9402 174.186 12.7376 174.284 12.7376C174.418 12.7376 174.481 12.8383 174.481 13.2653V18.4185C174.481 19.8682 175.129 20.8265 176.571 20.8265C178.079 20.8265 178.829 19.3696 180.138 17.1266C180.199 16.9919 180.231 16.8961 180.231 16.8002C180.231 16.503 179.969 16.3344 179.709 16.3344C179.417 16.3344 179.25 16.6341 178.272 17.7198C178.079 17.926 177.879 18.2123 177.521 18.2123C177.387 18.2123 177.294 18.0534 177.294 17.852V12.0752C177.294 10.5237 176.6 9.8977 175.718 9.8977C175.003 9.8977 174.418 10.1949 173.794 11.1193C172.68 12.7728 171.54 15.1177 170.924 16.2992C170.853 16.4375 170.758 16.6341 170.688 16.6341C170.618 16.6341 170.593 16.5321 170.593 16.2992V12.0752C170.593 10.8573 170.266 9.8977 168.992 9.8977C167.648 9.8977 166.966 10.8233 165.986 11.5148C165.359 11.9818 164.808 12.3081 164.379 12.5059C163.731 10.8233 162.518 9.97048 161.51 9.99596C160.491 10.0311 159.778 10.662 159.778 11.7186C159.778 12.8019 160.432 13.5564 161.306 13.8924C161.798 14.0902 162.256 14.1278 162.918 14.1278C163.109 14.1278 163.299 14.1278 163.438 14.0902C163.502 14.4189 163.468 14.8872 163.468 15.2487C163.468 16.8682 162.518 18.4804 160.751 18.4804C158.923 18.4804 157.848 16.6984 157.848 14.6543C157.848 13.1015 158.303 11.8168 159.051 10.9288C159.349 10.5965 159.58 10.3951 159.58 10.0906C159.58 9.93653 159.349 9.89771 159.153 9.89771C157.917 9.89771 156.54 10.4606 155.592 10.9531C154.348 11.6142 152.878 12.7073 151.673 13.7954C151.083 12.4719 150.368 11.317 150.004 10.423C149.869 10.0603 149.78 9.63931 149.509 9.63931C149.283 9.63931 149.183 9.8698 149.022 10.3247C148.432 12.0752 145.297 17.1945 144.611 17.8872C144.545 17.9818 144.448 18.0861 144.413 18.0861C144.351 18.0861 144.315 18.0534 144.315 17.852V12.0752C144.315 10.5237 143.699 9.8977 142.841 9.8977C142.121 9.8977 141.51 10.1949 140.915 11.1193C139.835 12.7728 138.531 15.182 137.91 16.3672C137.814 16.571 137.718 16.6341 137.687 16.6341C137.649 16.6341 137.616 16.503 137.616 16.2992V12.0752C137.616 10.5237 136.999 9.8977 136.149 9.8977C135.428 9.8977 134.737 10.1682 134.186 11.1193C132.809 13.4654 130.525 17.0623 130.098 17.6518C130.04 17.7538 129.97 17.8205 129.901 17.852C129.843 17.852 129.804 17.7877 129.804 17.6239V12.0752C129.804 10.5237 129.186 9.8977 128.333 9.8977C127.153 9.8977 126.504 10.9919 126.076 11.681C125.488 12.6381 124.709 13.9276 124.085 15.1177C123.663 15.9135 123.303 16.6341 123.172 16.6341C123.106 16.6341 123.106 16.3344 123.106 15.7752V11.3546C125.168 9.04004 126.438 6.20502 126.438 3.10311C126.438 1.31743 125.655 0.33239 124.442 0.33239C122.19 0.33239 120.46 3.8977 120.46 8.11808V11.5499C119.411 12.2111 118.431 12.5338 117.219 12.7727C116.603 10.9288 115.295 9.97048 114.255 9.99596C113.235 10.0311 112.519 10.662 112.519 11.7186C112.519 13.4654 114.213 14.1909 115.72 14.1909H116.148C116.208 14.5233 116.208 14.8872 116.208 15.2487C116.208 16.8682 115.263 18.4804 113.497 18.4804C111.666 18.4804 110.593 16.6983 110.593 14.6543C110.593 13.1015 111.049 11.8168 111.796 10.9288C112.089 10.5964 112.32 10.2992 112.32 10.0906C112.32 9.93652 112.089 9.8977 111.895 9.8977C110.652 9.8977 107.909 11.5875 104.637 14.8872C104.35 12.2463 104.019 9.66964 104.019 7.16094C104.019 4.35746 104.574 1.97614 104.705 1.28953C104.77 0.863728 104.806 0.595633 104.806 0.401537C104.806 0.135867 104.673 0 104.32 0C101.671 0 95.8536 4.2592 95.8536 10.628C95.8536 13.2313 96.4087 15.0837 97.3891 16.6983C97.0239 16.6341 96.7367 16.6341 96.4688 16.6341C95.427 16.6341 94.443 16.8961 93.8326 17.0307V16.3672C93.8326 14.9539 93.501 13.0045 92.911 12.3433C92.8413 12.2754 92.744 12.2463 92.6527 12.2463C92.3835 12.2463 92.0615 12.3736 91.7034 12.5738C91.3069 12.7727 90.9152 12.9729 90.9152 13.1015C90.9152 13.1646 90.9152 13.2313 91.0138 13.3951C91.2445 13.7335 91.8669 14.3874 92.0916 15.9426C90.9777 14.8193 89.7089 14.3207 88.0484 14.3207C86.0838 14.3207 85.4927 15.2087 85.4927 16.1051C85.4927 17.8205 87.748 18.6781 90.5956 18.6781C91.1171 18.6781 91.7035 18.5786 92.2886 18.444C92.2886 18.9729 92.3547 19.4412 92.3547 19.8342C92.3547 20.3959 92.4496 20.8265 92.8137 20.8265C93.3676 20.8265 93.6968 19.6996 93.7593 18.0861C94.7722 17.8205 95.8199 17.5924 96.7055 17.5924C97.1284 17.5924 97.6571 17.6518 98.175 17.7537ZM91.7371 17.4238C91.1868 17.4893 90.8516 17.4893 90.2688 17.4893C88.9904 17.4893 88.0484 16.9919 88.0484 16.2725C88.0484 15.8116 88.2743 15.5435 88.9279 15.5435C89.9756 15.5435 90.8203 16.2725 91.7371 17.4238Z" fill="#627D98"/>
</g>
<defs>
<clipPath id="clip0_3136_36232">
<rect width="180.231" height="33" fill="white"/>
</clipPath>
</defs>
</svg>
