<svg width="117" height="47" viewBox="0 0 117 47" fill="none" xmlns="http://www.w3.org/2000/svg">
<path d="M3.64282 17.0302H108.225L50.2993 29.393L3.64282 17.0302ZM61.3353 32.3305L80.3388 37.3765L108.225 17.0483L61.3353 32.3305ZM88.1269 39.4129L102.644 43.2695L108.207 17.0122L88.1269 39.4129Z" fill="url(#paint0_linear_3328_36420)"/>
<path d="M7.60847 2.64917H11.3769L13.8533 11.2274H13.8891L15.6657 2.64917H18.6086L15.9528 15.0299H12.1844L9.65417 6.46972H9.61828L7.85969 15.0299H4.91675L7.60847 2.64917ZM25.6071 14.7416C24.6162 15.0389 23.5903 15.2025 22.5565 15.2282C19.6494 15.2282 18.0882 13.444 18.0882 11.2274C18.1062 9.19096 19.452 6.07325 23.3281 6.07325C25.6071 6.07325 27.3298 7.24464 27.3298 9.87578C27.3298 10.2182 27.2221 11.0111 27.0965 11.5338H20.9414C20.9773 12.4709 21.426 13.2098 23.2743 13.2098C24.0638 13.2098 25.1585 12.9935 26.0019 12.597L25.6071 14.7416ZM24.8355 9.83974C24.8355 8.90262 24.4766 8.10968 23.364 8.10968C22.072 8.10968 21.3542 8.99273 21.1388 9.83974H24.8355ZM28.4424 6.28951H29.8062L30.4342 3.56826H33.431L32.8029 6.28951H35.2255L34.8487 8.41604H32.3005L31.7621 10.8489C31.6186 11.5157 31.5109 11.9483 31.5109 12.3627C31.5109 12.9575 32.2287 13.2818 32.8388 13.2818C33.1439 13.2818 33.5028 13.1377 33.8079 13.0476L33.4669 15.102C32.8209 15.2101 32.2108 15.2822 31.6006 15.2822C30.0574 15.2822 28.5141 14.5433 28.5141 12.6871C28.5141 12.2546 28.5859 11.8221 28.7833 10.903L29.3217 8.45208H28.0835L28.4424 6.28951ZM46.9434 15.0299H43.4442L43.3545 8.70438H43.3186L40.3039 15.0299H36.7867L36.0151 6.28951H39.0118L39.0657 12.615H39.1016L41.9907 6.28951H45.6335L45.6694 12.615H45.7052L48.5226 6.28951H51.5732L46.9434 15.0299ZM55.5031 15.2282C52.291 15.2282 50.999 13.444 50.999 11.2274C51.0169 8.14572 53.2241 6.07325 56.6336 6.07325C59.5945 6.07325 61.1378 7.78529 61.1378 9.98391C61.1198 13.6423 58.7511 15.2282 55.5031 15.2282ZM56.4721 8.19978C55.0186 8.19978 54.1034 9.78567 54.1034 11.1733C54.1034 12.3627 54.7135 13.1377 55.7364 13.1196C57.1361 13.1196 58.0333 11.9302 58.0333 9.96589C58.0333 9.04679 57.6385 8.19978 56.4721 8.19978ZM66.0008 6.28951L65.6598 8.07363H65.6957C66.1802 7.04641 67.1672 6.07325 68.3875 6.07325C68.7822 6.07325 69.2488 6.12731 69.6436 6.30753L68.9437 8.9747C68.5669 8.68636 68.1362 8.61428 67.562 8.61428C66.3059 8.61428 65.5342 9.73161 65.3189 11.0111L64.4576 15.0479H61.4428L62.8246 8.59626C62.9861 7.85738 63.1117 7.10047 63.2014 6.32555L66.0008 6.28951ZM71.7431 2.64917H74.7937L73.1967 9.96589H73.2326L76.1217 6.30753H79.5491L75.9422 10.5065L78.1853 15.0299H74.8296L73.071 10.7048H73.0352L72.102 15.0299H69.0335L71.7431 2.64917ZM82.2049 2.64917H85.9554C88.3062 2.66719 91.1235 2.73928 91.1056 5.80293C91.0876 7.91144 89.5803 9.10086 87.696 9.33513V9.37118C88.6651 9.46129 88.9701 10.7769 89.1496 11.5698L90.0109 15.0299H86.9244L86.2964 11.8762C85.9913 10.2542 85.4888 10.1461 84.0174 10.1461H83.6764L82.6536 15.0479H79.5491L82.2049 2.64917ZM84.1609 7.78529H85.453C86.8885 7.78529 88.0011 7.44288 88.0191 6.25346C88.0191 5.37041 87.4987 4.99196 86.4937 4.97394H84.7531L84.1609 7.78529ZM96.8299 13.8045L96.7941 13.7684V13.8045C96.148 14.8137 95.0355 15.2282 93.8511 15.2282C91.9849 15.2282 90.9441 14.3992 90.962 12.6871C90.9799 10.5426 93.1154 9.49733 95.7712 9.49733C96.3813 9.49733 96.9735 9.55139 97.4042 9.58744C97.4401 9.46129 97.4401 9.35316 97.4401 9.24503C97.4401 8.61428 96.8299 8.10968 95.843 8.10968C94.7483 8.10968 94.0306 8.28989 93.0257 8.81251L93.3307 6.61389C94.3598 6.26722 95.4395 6.09665 96.5249 6.10929C98.6065 6.10929 100.293 6.92026 100.275 9.08283C100.275 10.4525 99.5037 12.4168 99.1448 15.0479H96.6864L96.8299 13.8045ZM94.8201 13.2098C96.0942 13.2098 96.8838 12.3267 97.0991 11.1373C96.8479 11.0832 96.471 11.0832 96.3095 11.0832C94.874 11.0292 93.8152 11.5518 93.8152 12.3087C93.8152 12.7412 94.21 13.2098 94.8201 13.2098ZM102.608 6.28951H105.659L103.793 15.0299H100.742L102.608 6.28951ZM103.38 2.64917H106.43L105.946 4.86581H102.895L103.38 2.64917ZM108.279 2.64917H111.329L108.691 15.0299H105.641L108.279 2.64917Z" fill="#627D98"/>
<defs>
<linearGradient id="paint0_linear_3328_36420" x1="3.64282" y1="2642.74" x2="1243.94" y2="-2297.32" gradientUnits="userSpaceOnUse">
<stop stop-color="#627D98"/>
<stop offset="0.7" stop-color="#627D98"/>
<stop offset="1" stop-color="#627D98"/>
</linearGradient>
</defs>
</svg>
