<svg width="133" height="48" viewBox="0 0 133 48" fill="none" xmlns="http://www.w3.org/2000/svg">
<path d="M38.5409 36.8996C36.3956 36.8144 34.6405 36.2274 33.2681 35.1371C33.0062 34.9288 32.3821 34.3043 32.1727 34.0409C31.6162 33.3412 31.2378 32.6601 30.9854 31.9045C30.2089 29.5785 30.6085 26.5262 32.1286 23.1765C33.4301 20.3086 35.4383 17.4643 38.942 13.5249C39.4582 12.9453 40.9951 11.25 41.005 11.25C41.0087 11.25 40.9249 11.3951 40.8195 11.5718C39.9085 13.0977 39.129 14.8951 38.7044 16.4512C38.0222 18.948 38.1045 21.0907 38.9453 22.7522C39.5254 23.8968 40.5198 24.8883 41.638 25.4363C43.5955 26.3955 46.4615 26.4748 49.9615 25.6685C50.2025 25.6127 62.1433 22.4429 76.4968 18.6244C90.8503 14.8055 102.596 11.6835 102.598 11.686C102.602 11.6893 69.2506 25.9605 51.9375 33.3643C49.1956 34.5365 48.4624 34.8326 47.1734 35.2851C43.8784 36.4423 40.9268 36.9944 38.5409 36.8996Z" fill="#E9ECF7"/>
</svg>
