<svg width="133" height="48" viewBox="0 0 133 48" fill="none" xmlns="http://www.w3.org/2000/svg">
<g clip-path="url(#clip0_1045_2416)">
<path d="M34.1732 27.668C33.5605 27.668 32.9989 27.9743 32.6926 28.4848C32.3863 28.9954 32.3863 29.659 32.6926 30.1696C32.9989 30.6801 33.5605 31.012 34.1732 30.9864C35.0921 30.9609 35.8069 30.2206 35.8069 29.3272C35.8324 28.4338 35.0921 27.6935 34.1732 27.668Z" fill="#E9ECF7"/>
<path d="M32.0545 32.0078C31.2632 32.0078 30.625 32.646 30.625 33.4118C30.625 34.2031 31.2632 34.8413 32.0545 34.8413C32.8458 34.8413 33.484 34.2031 33.484 33.4118C33.484 32.646 32.8458 32.0078 32.0545 32.0078Z" fill="#E9ECF7"/>
<path d="M28.9538 37.8497C29.6301 37.8272 30.1601 37.2607 30.1376 36.5844C30.115 35.9081 29.5485 35.3781 28.8722 35.4006C28.196 35.4232 27.666 35.9897 27.6885 36.6659C27.711 37.3422 28.2775 37.8722 28.9538 37.8497Z" fill="#E9ECF7"/>
<path d="M25.3661 37.6992C24.8046 37.6992 24.3706 38.1332 24.3706 38.6948C24.3706 39.2563 24.8046 39.6903 25.3661 39.6903C25.9277 39.6903 26.3617 39.2563 26.3617 38.6948C26.3617 38.1332 25.9277 37.6992 25.3661 37.6992Z" fill="#E9ECF7"/>
<path d="M21.8939 38.8984C21.4344 38.8984 21.0515 39.2813 21.0515 39.7408C21.0515 40.2003 21.4344 40.5832 21.8939 40.5832C22.3534 40.5832 22.7363 40.2003 22.7363 39.7408C22.7618 39.2813 22.3789 38.8984 21.8939 38.8984Z" fill="#E9ECF7"/>
<path d="M18.6516 39.3867C18.2432 39.3867 17.9114 39.7186 17.9114 40.127C17.9114 40.5354 18.2432 40.8673 18.6516 40.8673C19.0601 40.8673 19.3919 40.5354 19.3919 40.127C19.3664 39.7186 19.0345 39.3867 18.6516 39.3867Z" fill="#E9ECF7"/>
<path d="M15.3846 38.8984C14.9251 38.8984 14.5422 39.2813 14.5422 39.7408C14.5422 40.2003 14.9251 40.5832 15.3846 40.5832C15.8441 40.5832 16.227 40.2003 16.227 39.7408C16.227 39.2813 15.8441 38.8984 15.3846 38.8984Z" fill="#E9ECF7"/>
<path d="M11.9126 37.6758C11.5552 37.6758 11.2233 37.8545 11.0447 38.1608C10.866 38.4671 10.866 38.85 11.0447 39.1563C11.2233 39.4626 11.5552 39.6413 11.9126 39.6413C12.4486 39.6413 12.9081 39.2074 12.9081 38.6458C12.8826 38.1353 12.4486 37.7013 11.9126 37.6758Z" fill="#E9ECF7"/>
<path d="M8.36552 35.4023C7.93156 35.4023 7.52314 35.6321 7.2934 36.015C7.06366 36.3979 7.06366 36.8574 7.2934 37.2403C7.52314 37.6232 7.90604 37.8529 8.36552 37.8529C9.02921 37.8529 9.59079 37.3168 9.59079 36.6276C9.59079 35.9639 9.05474 35.4023 8.36552 35.4023Z" fill="#E9ECF7"/>
<path d="M5.2249 32.0078C4.43358 32.0078 3.79541 32.646 3.79541 33.4373C3.79541 34.2286 4.43358 34.8668 5.2249 34.8668C6.01623 34.8668 6.65439 34.2286 6.65439 33.4373C6.62886 32.646 6.01623 32.0078 5.2249 32.0078Z" fill="#E9ECF7"/>
<path d="M3.10701 27.6693C2.49437 27.6438 1.93279 27.9757 1.62647 28.4862C1.32015 28.9967 1.32015 29.6604 1.62647 30.171C1.93279 30.6815 2.49437 31.0133 3.10701 30.9878C4.02597 30.9623 4.74072 30.222 4.74072 29.3286C4.74072 28.4351 4.00044 27.6949 3.10701 27.6693Z" fill="#E9ECF7"/>
<path d="M2.34066 22.2578C1.26854 22.2578 0.400635 23.1257 0.400635 24.1978C0.400635 25.27 1.26854 26.1379 2.34066 26.1379C3.41278 26.1379 4.28068 25.27 4.28068 24.1978C4.25515 23.1257 3.41278 22.2578 2.34066 22.2578Z" fill="#E9ECF7"/>
<path d="M3.10701 17.3555C2.49437 17.3555 1.93279 17.6618 1.62647 18.1723C1.32015 18.6829 1.32015 19.3465 1.62647 19.8571C1.93279 20.3676 2.49437 20.6995 3.10701 20.6739C4.02597 20.6484 4.74072 19.9081 4.74072 19.0147C4.74072 18.1213 4.00044 17.381 3.10701 17.3555Z" fill="#E9ECF7"/>
<path d="M5.22497 13.5C4.71444 13.5 4.22943 13.7553 3.97416 14.2147C3.7189 14.6487 3.7189 15.2103 3.97416 15.6442C4.22943 16.0782 4.71444 16.359 5.22497 16.359C5.99077 16.3335 6.62893 15.7208 6.62893 14.9295C6.60341 14.1637 5.99077 13.5255 5.22497 13.5Z" fill="#E9ECF7"/>
<path d="M8.36395 10.4883C7.70026 10.4883 7.13867 11.0243 7.13867 11.7136C7.13867 12.3773 7.67473 12.9388 8.36395 12.9388C9.02764 12.9388 9.58923 12.4028 9.58923 11.7136C9.58923 11.0499 9.05317 10.4883 8.36395 10.4883Z" fill="#E9ECF7"/>
<path d="M11.9145 8.67578C11.3784 8.67578 10.9189 9.10973 10.9189 9.67132C10.9189 10.2074 11.3529 10.6669 11.9145 10.6669C12.4505 10.6669 12.91 10.2329 12.91 9.67132C12.8845 9.13526 12.4505 8.67578 11.9145 8.67578Z" fill="#E9ECF7"/>
<path d="M15.3848 7.75391C14.8997 7.75391 14.5168 8.13681 14.5168 8.62181C14.5168 9.10682 14.8997 9.48972 15.3848 9.48972C15.8442 9.48972 16.2271 9.10682 16.2271 8.64734C16.2016 8.13681 15.8442 7.75391 15.3848 7.75391Z" fill="#E9ECF7"/>
<path d="M18.626 7.5C18.2176 7.5 17.8857 7.83185 17.8857 8.24027C17.8857 8.6487 18.2176 8.98054 18.626 8.98054C19.0344 8.98054 19.3663 8.6487 19.3663 8.24027C19.3663 7.83185 19.0344 7.5 18.626 7.5Z" fill="#E9ECF7"/>
<path d="M21.8939 7.75391C21.4344 7.75391 21.0515 8.13681 21.0515 8.59628C21.0515 9.05576 21.4344 9.43866 21.8939 9.43866C22.3534 9.43866 22.7363 9.05576 22.7363 8.59628C22.7618 8.13681 22.3789 7.75391 21.8939 7.75391Z" fill="#E9ECF7"/>
<path d="M25.3659 8.67578C25.0086 8.67578 24.6767 8.85447 24.498 9.16079C24.3193 9.46711 24.3193 9.85001 24.498 10.1563C24.6767 10.4626 25.0086 10.6413 25.3659 10.6413C25.902 10.6413 26.3615 10.2074 26.3615 9.64579C26.3615 9.08421 25.9275 8.67578 25.3659 8.67578Z" fill="#E9ECF7"/>
<path d="M28.9133 10.5156C28.2496 10.5156 27.688 11.0517 27.688 11.7409C27.688 12.4046 28.224 12.9662 28.9133 12.9662C29.577 12.9662 30.1385 12.4301 30.1385 11.7409C30.1385 11.0517 29.577 10.5156 28.9133 10.5156Z" fill="#E9ECF7"/>
<path d="M32.0545 13.5C31.2632 13.5 30.625 14.1382 30.625 14.9295C30.625 15.7208 31.2632 16.359 32.0545 16.359C32.8458 16.359 33.484 15.7208 33.484 14.9295C33.484 14.1382 32.8458 13.5 32.0545 13.5Z" fill="#E9ECF7"/>
<path d="M34.1732 17.3555C33.5605 17.3555 32.9989 17.6618 32.6926 18.1723C32.3863 18.6829 32.3863 19.3465 32.6926 19.8571C32.9989 20.3676 33.5605 20.6995 34.1732 20.6739C35.0921 20.6484 35.8069 19.9081 35.8069 19.0147C35.8069 18.0957 35.0921 17.3555 34.1732 17.3555Z" fill="#E9ECF7"/>
<path d="M26.5148 26.7227C26.234 26.7227 25.9787 26.8503 25.8511 27.08C25.7235 27.3098 25.7235 27.6161 25.8511 27.8458C25.9787 28.0756 26.234 28.2287 26.5148 28.2032C26.9232 28.1777 27.2295 27.8458 27.2295 27.4629C27.2551 27.08 26.9232 26.7482 26.5148 26.7227Z" fill="#E9ECF7"/>
<path d="M24.6513 29.5039C24.3705 29.5039 24.1152 29.6315 23.9876 29.8613C23.8599 30.091 23.8599 30.3973 23.9876 30.6271C24.1152 30.8568 24.396 31.01 24.6513 30.9845C25.0597 30.9589 25.366 30.6271 25.366 30.2442C25.366 29.8613 25.0597 29.5294 24.6513 29.5039Z" fill="#E9ECF7"/>
<path d="M21.8682 31.293C21.5874 31.293 21.3066 31.4461 21.1534 31.7014C21.0003 31.9567 21.0003 32.263 21.1534 32.5182C21.3066 32.7735 21.5619 32.9267 21.8682 32.9267C22.3277 32.9267 22.685 32.5693 22.685 32.1098C22.685 31.6503 22.3277 31.293 21.8682 31.293Z" fill="#E9ECF7"/>
<path d="M18.6013 31.7773C17.9887 31.7773 17.5037 32.2624 17.5037 32.875C17.5037 33.4876 17.9887 33.9726 18.6013 33.9726C19.2139 33.9726 19.699 33.4876 19.699 32.875C19.6734 32.2624 19.1884 31.7773 18.6013 31.7773Z" fill="#E9ECF7"/>
<path d="M15.3079 31.1133C14.6187 31.1133 14.0571 31.6749 14.0571 32.3641C14.0571 33.0533 14.6187 33.6149 15.3079 33.6149C15.9972 33.6149 16.5587 33.0533 16.5587 32.3641C16.5587 31.6749 15.9972 31.1133 15.3079 31.1133Z" fill="#E9ECF7"/>
<path d="M12.3457 29.0195C11.5799 29.0195 10.9673 29.6322 10.9673 30.398C10.9673 31.1638 11.5799 31.7764 12.3457 31.7764C13.1115 31.7764 13.7242 31.1638 13.7242 30.398C13.7242 29.6322 13.1115 29.0195 12.3457 29.0195Z" fill="#E9ECF7"/>
<path d="M10.3831 26.2148C9.74491 26.2148 9.23438 26.7254 9.23438 27.3635C9.23438 28.0017 9.74491 28.5122 10.3831 28.5122C11.0212 28.5122 11.5318 28.0017 11.5318 27.3635C11.5573 26.7509 11.0212 26.2148 10.3831 26.2148Z" fill="#E9ECF7"/>
<path d="M9.92126 23.1523C9.43626 23.1523 9.02783 23.5608 9.02783 24.0458C9.02783 24.5308 9.43626 24.9392 9.92126 24.9392C10.4063 24.9392 10.8147 24.5308 10.8147 24.0458C10.8147 23.5352 10.4318 23.1523 9.92126 23.1523Z" fill="#E9ECF7"/>
<path d="M10.7129 20.1367C10.3045 20.1367 9.97266 20.4686 9.97266 20.877C9.97266 21.2854 10.3045 21.6173 10.7129 21.6173C11.1214 21.6173 11.4532 21.2854 11.4532 20.877C11.4787 20.4686 11.1214 20.1367 10.7129 20.1367Z" fill="#E9ECF7"/>
<path d="M12.6034 17.3789C12.3226 17.3789 12.0674 17.5065 11.9397 17.7363C11.8121 17.966 11.8121 18.2723 11.9397 18.5021C12.0674 18.7318 12.3481 18.885 12.6034 18.8595C13.0118 18.8595 13.3437 18.5276 13.3437 18.1192C13.3182 17.7108 12.9863 17.3789 12.6034 17.3789Z" fill="#E9ECF7"/>
<path d="M15.3591 15.4414C14.8996 15.4414 14.5422 15.7988 14.5422 16.2583C14.5422 16.7177 14.8996 17.0751 15.3591 17.0751C15.8186 17.0751 16.1759 16.7177 16.1759 16.2583C16.1759 15.8243 15.8186 15.4414 15.3591 15.4414Z" fill="#E9ECF7"/>
<path d="M19.7444 15.5225C19.7677 14.9167 19.2955 14.4068 18.6897 14.3835C18.0839 14.3603 17.5739 14.8325 17.5507 15.4383C17.5274 16.0441 17.9996 16.554 18.6054 16.5773C19.2112 16.6005 19.7212 16.1283 19.7444 15.5225Z" fill="#E9ECF7"/>
<path d="M21.9202 14.7539C21.231 14.7539 20.6694 15.3155 20.6694 16.0047C20.6694 16.6939 21.231 17.2555 21.9202 17.2555C22.6095 17.2555 23.171 16.6939 23.171 16.0047C23.171 15.3155 22.6095 14.7539 21.9202 14.7539Z" fill="#E9ECF7"/>
<path d="M24.8799 16.5898C24.1141 16.5898 23.5015 17.2025 23.5015 17.9683C23.5015 18.7341 24.1141 19.3467 24.8799 19.3467C25.6457 19.3467 26.2583 18.7341 26.2583 17.9683C26.2583 17.2025 25.6457 16.5898 24.8799 16.5898Z" fill="#E9ECF7"/>
<path d="M26.846 19.832C26.2078 19.832 25.6973 20.3426 25.6973 20.9807C25.6973 21.6189 26.2078 22.1294 26.846 22.1294C27.4841 22.1294 27.9947 21.6189 27.9947 20.9807C27.9947 20.3426 27.4841 19.832 26.846 19.832Z" fill="#E9ECF7"/>
<path d="M23.8345 26.2886C24.2151 26.2886 24.5237 25.98 24.5237 25.5994C24.5237 25.2187 24.2151 24.9102 23.8345 24.9102C23.4538 24.9102 23.1453 25.2187 23.1453 25.5994C23.1453 25.98 23.4538 26.2886 23.8345 26.2886Z" fill="#E9ECF7"/>
<path d="M22.482 27.0508C21.9204 27.0508 21.4609 27.5103 21.4609 28.0718C21.4609 28.6334 21.9204 29.0929 22.482 29.0929C23.0436 29.0929 23.5031 28.6334 23.5031 28.0718C23.5286 27.5103 23.0691 27.0508 22.482 27.0508Z" fill="#E9ECF7"/>
<path d="M19.8521 28.4336C19.265 28.4336 18.78 28.9186 18.78 29.5057C18.78 30.0928 19.265 30.5778 19.8521 30.5778C20.4393 30.5778 20.9243 30.0928 20.9243 29.5057C20.9243 28.9186 20.4393 28.4336 19.8521 28.4336Z" fill="#E9ECF7"/>
<path d="M16.7377 28.3555C16.4059 28.3555 16.074 28.5342 15.9209 28.8405C15.7422 29.1468 15.7422 29.5042 15.9209 29.785C16.0996 30.0913 16.4059 30.27 16.7377 30.27C17.2738 30.27 17.6822 29.836 17.6822 29.3255C17.7077 28.7894 17.2738 28.3555 16.7377 28.3555Z" fill="#E9ECF7"/>
<path d="M14.4402 26.8008C14.0573 26.8008 13.751 27.1071 13.751 27.49C13.751 27.8729 14.0573 28.1792 14.4402 28.1792C14.8231 28.1792 15.1294 27.8729 15.1294 27.49C15.1549 27.1326 14.8231 26.8008 14.4402 26.8008Z" fill="#E9ECF7"/>
<path d="M13.5218 24.7773C13.241 24.7773 13.0112 25.0071 13.0112 25.2879C13.0112 25.5687 13.241 25.7984 13.5218 25.7984C13.8026 25.7984 14.0323 25.5687 14.0323 25.2879C14.0323 25.0071 13.8026 24.7773 13.5218 24.7773Z" fill="#E9ECF7"/>
<path d="M13.47 22.1523C13.0871 22.1523 12.7808 22.4587 12.7808 22.8416C12.7808 23.2245 13.0871 23.5308 13.47 23.5308C13.8529 23.5308 14.1592 23.2245 14.1592 22.8416C14.1592 22.4587 13.8529 22.1523 13.47 22.1523Z" fill="#E9ECF7"/>
<path d="M14.8236 19.3164C14.262 19.3164 13.8025 19.7759 13.8025 20.3375C13.8025 20.8991 14.262 21.3585 14.8236 21.3585C15.3851 21.3585 15.8446 20.8991 15.8446 20.3375C15.8446 19.7759 15.3851 19.3164 14.8236 19.3164Z" fill="#E9ECF7"/>
<path d="M17.4522 17.8359C16.8651 17.8359 16.3801 18.3209 16.3801 18.9081C16.3801 19.4952 16.8651 19.9802 17.4522 19.9802C18.0394 19.9802 18.5244 19.4952 18.5244 18.9081C18.5244 18.3209 18.0394 17.8359 17.4522 17.8359Z" fill="#E9ECF7"/>
<path d="M20.566 18.1758C20.2086 18.1758 19.9023 18.3545 19.7236 18.6353C19.5449 18.9416 19.5449 19.299 19.7236 19.6053C19.9023 19.9116 20.2341 20.0903 20.566 20.0648C21.0765 20.0392 21.485 19.6308 21.485 19.1203C21.485 18.6097 21.0765 18.2013 20.566 18.1758Z" fill="#E9ECF7"/>
<path d="M22.8384 20.2148C22.4555 20.2148 22.1492 20.5212 22.1492 20.9041C22.1492 21.287 22.4555 21.5933 22.8384 21.5933C23.2213 21.5933 23.5276 21.287 23.5276 20.9041C23.5531 20.5212 23.2468 20.2148 22.8384 20.2148Z" fill="#E9ECF7"/>
<path d="M23.8091 22.6406C23.5283 22.6406 23.2986 22.8704 23.2986 23.1512C23.2986 23.432 23.5283 23.6617 23.8091 23.6617C24.0899 23.6617 24.3196 23.432 24.3196 23.1512C24.3196 22.8704 24.0899 22.6406 23.8091 22.6406Z" fill="#E9ECF7"/>
<path d="M27.3065 23.4297C26.8215 23.4297 26.4131 23.8381 26.4131 24.3231C26.4131 24.8081 26.8215 25.2166 27.3065 25.2166C27.7915 25.2166 28.1999 24.8081 28.1999 24.3231C28.1999 23.8381 27.7915 23.4297 27.3065 23.4297Z" fill="#E9ECF7"/>
<path d="M31.007 24.5273C30.4709 24.5273 30.0625 24.9613 30.0625 25.4718C30.0625 26.0079 30.4965 26.4163 31.007 26.4163C31.543 26.4163 31.9515 25.9824 31.9515 25.4718C31.9515 24.9613 31.543 24.5273 31.007 24.5273Z" fill="#E9ECF7"/>
<path d="M30.0631 27.8711C29.5781 27.8711 29.1697 28.2795 29.1697 28.7645C29.1697 29.2495 29.5781 29.658 30.0631 29.658C30.5481 29.658 30.9565 29.2495 30.9565 28.7645C30.9565 28.2795 30.5736 27.8711 30.0631 27.8711Z" fill="#E9ECF7"/>
<path d="M28.4538 30.6797C28.0454 30.6797 27.688 31.0115 27.688 31.4455C27.688 31.8539 28.0198 32.2113 28.4538 32.2113C28.8622 32.2113 29.1941 31.8539 29.1941 31.4455C29.1941 31.0371 28.8622 30.7052 28.4538 30.6797Z" fill="#E9ECF7"/>
<path d="M26.5139 32.7695C26.2842 32.7695 26.0544 32.8972 25.9268 33.1014C25.7991 33.3056 25.7991 33.5609 25.9268 33.7651C26.0544 33.9693 26.2586 34.0969 26.5139 34.0969C26.8713 34.0969 27.1776 33.8161 27.1776 33.4332C27.1776 33.0759 26.8713 32.7695 26.5139 32.7695Z" fill="#E9ECF7"/>
<path d="M24.4727 34.3047C24.1664 34.3047 23.9111 34.56 23.9111 34.8663C23.9111 35.1726 24.1664 35.4279 24.4727 35.4279C24.779 35.4279 25.0343 35.1726 25.0343 34.8663C25.0343 34.56 24.779 34.3047 24.4727 34.3047Z" fill="#E9ECF7"/>
<path d="M22.1488 35.1719C21.7914 35.1719 21.4851 35.4527 21.4851 35.8356C21.4851 36.1929 21.7659 36.4993 22.1488 36.4993C22.5062 36.4993 22.8125 36.2185 22.8125 35.8356C22.787 35.4527 22.5062 35.1719 22.1488 35.1719Z" fill="#E9ECF7"/>
<path d="M19.4186 35.6055C19.0102 35.6055 18.6528 35.9373 18.6528 36.3713C18.6528 36.7797 18.9847 37.1371 19.4186 37.1371C19.8271 37.1371 20.1844 36.8052 20.1844 36.3713C20.1589 35.9373 19.8271 35.6055 19.4186 35.6055Z" fill="#E9ECF7"/>
<path d="M16.3025 35.3008C15.7665 35.3008 15.3325 35.7347 15.3325 36.2708C15.3325 36.8069 15.7665 37.2408 16.3025 37.2408C16.8386 37.2408 17.2725 36.8069 17.2725 36.2708C17.2725 35.7347 16.8386 35.3008 16.3025 35.3008Z" fill="#E9ECF7"/>
<path d="M13.0103 34.125C12.3721 34.125 11.8616 34.6355 11.8616 35.2737C11.8616 35.9119 12.3721 36.4224 13.0103 36.4224C13.6484 36.4224 14.159 35.9119 14.159 35.2737C14.1845 34.6355 13.6484 34.125 13.0103 34.125Z" fill="#E9ECF7"/>
<path d="M10.1275 31.9336C9.64252 31.9336 9.18304 32.1889 8.92778 32.5973C8.67251 33.0312 8.67251 33.5418 8.92778 33.9757C9.18304 34.4097 9.64252 34.6649 10.1275 34.6394C10.8678 34.6139 11.4549 34.0268 11.4549 33.2865C11.4549 32.5718 10.8678 31.9591 10.1275 31.9336Z" fill="#E9ECF7"/>
<path d="M7.70027 28.6641C6.88342 28.6641 6.21973 29.3278 6.21973 30.1446C6.21973 30.9615 6.88342 31.6251 7.70027 31.6251C8.51712 31.6251 9.18081 30.9615 9.18081 30.1446C9.18081 29.3022 8.51712 28.6641 7.70027 28.6641Z" fill="#E9ECF7"/>
<path d="M7.50443 26.4874C7.5504 25.8405 7.06326 25.2788 6.41638 25.2328C5.76949 25.1869 5.20782 25.674 5.16185 26.3209C5.11588 26.9678 5.60302 27.5295 6.2499 27.5754C6.89679 27.6214 7.45846 27.1343 7.50443 26.4874Z" fill="#E9ECF7"/>
<path d="M7.20375 22.9231C7.23259 22.4023 6.83375 21.9567 6.31291 21.9278C5.79207 21.899 5.34646 22.2978 5.31761 22.8187C5.28877 23.3395 5.68761 23.7851 6.20845 23.8139C6.72929 23.8428 7.1749 23.444 7.20375 22.9231Z" fill="#E9ECF7"/>
<path d="M7.21643 18.6797C6.73142 18.6797 6.323 19.0881 6.323 19.5731C6.323 20.0581 6.73142 20.4666 7.21643 20.4666C7.70144 20.4666 8.10986 20.0581 8.10986 19.5731C8.10986 19.0881 7.70144 18.6797 7.21643 18.6797Z" fill="#E9ECF7"/>
<path d="M8.82338 16.1523C8.54259 16.1523 8.28732 16.28 8.15969 16.5352C8.03206 16.765 8.03206 17.0713 8.15969 17.301C8.28732 17.5308 8.56812 17.6839 8.82338 17.6839C9.23181 17.6839 9.56365 17.3266 9.56365 16.9181C9.56365 16.4842 9.23181 16.1523 8.82338 16.1523Z" fill="#E9ECF7"/>
<path d="M10.7633 14.2656C10.4059 14.2656 10.0996 14.5464 10.0996 14.9293C10.0996 15.2867 10.3804 15.593 10.7633 15.593C11.1462 15.593 11.427 15.3122 11.427 14.9293C11.427 14.5719 11.1207 14.2656 10.7633 14.2656Z" fill="#E9ECF7"/>
<path d="M12.8069 12.9375C12.5006 12.9375 12.2454 13.1928 12.2454 13.4991C12.2454 13.8054 12.5006 14.0607 12.8069 14.0607C13.1133 14.0607 13.3685 13.8054 13.3685 13.4991C13.3685 13.1672 13.1133 12.9375 12.8069 12.9375Z" fill="#E9ECF7"/>
<path d="M15.1285 11.8945C14.7712 11.8945 14.4648 12.1753 14.4648 12.5582C14.4648 12.9156 14.7456 13.2219 15.1285 13.2219C15.4859 13.2219 15.7922 12.9411 15.7922 12.5582C15.7922 12.1753 15.4859 11.8945 15.1285 11.8945Z" fill="#E9ECF7"/>
<path d="M17.8602 11.2266C17.5795 11.2266 17.3242 11.3542 17.1966 11.6095C17.0689 11.8392 17.0689 12.1455 17.1966 12.3753C17.3242 12.605 17.605 12.7582 17.8602 12.7582C18.2687 12.7582 18.6005 12.4008 18.6005 11.9924C18.6005 11.5839 18.2687 11.2521 17.8602 11.2266Z" fill="#E9ECF7"/>
<path d="M20.9751 11.1016C20.6177 11.1016 20.2858 11.2802 20.1072 11.5866C19.9285 11.8929 19.9285 12.2758 20.1072 12.5821C20.2858 12.8884 20.6177 13.0671 20.9751 13.0671C21.5111 13.0671 21.9451 12.6076 21.9451 12.0716C21.9451 11.5355 21.5111 11.1016 20.9751 11.1016Z" fill="#E9ECF7"/>
<path d="M24.1649 11.8398C23.5268 11.8398 22.9907 12.3504 22.9907 13.0141C22.9907 13.6522 23.5013 14.1883 24.1649 14.1883C24.8031 14.1883 25.3392 13.6778 25.3392 13.0141C25.3392 12.3759 24.8031 11.8398 24.1649 11.8398Z" fill="#E9ECF7"/>
<path d="M27.1791 13.6797C26.4133 13.6797 25.8262 14.2923 25.8262 15.0326C25.8262 15.7729 26.4388 16.3855 27.1791 16.3855C27.9449 16.3855 28.532 15.7729 28.532 15.0326C28.532 14.2923 27.9194 13.6797 27.1791 13.6797Z" fill="#E9ECF7"/>
<path d="M29.5776 16.7383C29.0416 16.7383 28.5566 17.0191 28.2758 17.4786C27.995 17.938 27.995 18.4996 28.2758 18.9591C28.5566 19.4186 29.0416 19.6994 29.5776 19.6994C30.3945 19.6738 31.0327 19.0357 31.0327 18.2188C31.0071 17.4275 30.369 16.7638 29.5776 16.7383Z" fill="#E9ECF7"/>
<path d="M30.9303 20.8008C30.5219 20.8008 30.1135 21.005 29.9093 21.3624C29.7051 21.7197 29.7051 22.1792 29.9093 22.5366C30.1135 22.894 30.5219 23.1237 30.9303 23.0982C31.5685 23.0727 32.0535 22.5621 32.0535 21.9495C32.0535 21.3368 31.5685 20.8263 30.9303 20.8008Z" fill="#E9ECF7"/>
<path d="M36.8796 24.1705C36.8796 25.2426 36.0117 26.1105 34.9395 26.1105C33.8674 26.1105 32.9995 25.2426 32.9995 24.1705C32.9995 23.0984 33.8674 22.2305 34.9395 22.2305C36.0117 22.256 36.8796 23.1239 36.8796 24.1705Z" fill="#E9ECF7"/>
<path d="M132.401 27.1549C132.401 25.317 131.354 24.3469 129.72 23.6833C128.444 23.1727 127.321 22.7388 126.453 22.3814C125.611 22.0495 124.87 21.4624 124.87 20.8243C124.87 19.9564 125.942 19.4458 127.372 19.4458C129.057 19.4458 130.384 19.6756 131.635 19.8032H131.686C131.89 19.8032 132.018 19.65 132.018 19.4458V18.0163C132.018 17.8377 131.865 17.6845 131.66 17.659C130.997 17.5058 129.312 17.1484 127.474 17.1484C123.9 17.1484 122.19 18.68 122.19 20.8243C122.19 22.1772 122.777 23.5046 124.462 24.1938C126.147 24.883 129.593 25.6999 129.593 27.1293C129.593 28.2525 129.082 28.8652 127.346 28.8652C125.559 28.8652 123.747 28.6099 122.981 28.5078H122.93C122.726 28.5078 122.573 28.6609 122.573 28.8652V30.2436C122.573 30.4478 122.752 30.601 122.93 30.6265C123.849 30.8307 125.585 31.137 127.295 31.137C131.201 31.1881 132.401 29.0949 132.401 27.1549Z" fill="#E9ECF7"/>
<path d="M94.6199 19.5471H90.7654V30.6257C90.7654 30.8299 90.5867 31.0086 90.3825 31.0086H88.468C88.2638 31.0086 88.0851 30.8299 88.0851 30.6257V19.5471H84.2306C84.0263 19.5471 83.8477 19.4195 83.8477 19.1898V17.6582C83.8477 17.4539 84.0263 17.3008 84.2306 17.3008H94.6199C94.8241 17.3008 95.0028 17.4539 95.0028 17.6582V19.1898C95.0028 19.4195 94.8241 19.5471 94.6199 19.5471Z" fill="#E9ECF7"/>
<path d="M82.1625 25.7303V17.6894C82.1625 17.4852 81.9839 17.332 81.7796 17.332H79.8651C79.6609 17.332 79.4822 17.4852 79.4822 17.6894V25.7048C79.4822 27.9001 78.4612 28.9466 76.3935 28.9466C74.3259 28.9466 73.3048 27.9001 73.3048 25.7048V17.6894C73.3048 17.4852 73.1261 17.332 72.9219 17.332H71.0074C70.8032 17.332 70.6245 17.4852 70.6245 17.6894V25.7048C70.6245 29.8145 73.3048 31.1675 76.3935 31.1675C79.4823 31.1675 82.1625 29.8401 82.1625 25.7303Z" fill="#E9ECF7"/>
<path d="M99.4431 25.0635H105.621C105.825 25.0635 106.003 24.8848 106.003 24.6806V23.2766C106.003 23.0724 105.825 22.8937 105.621 22.8937H99.4431V21.1324C99.4431 19.5242 99.4942 19.4732 100.975 19.4732H105.85C106.054 19.4732 106.233 19.2945 106.233 19.0903V17.865C106.233 17.5842 106.131 17.5076 105.85 17.4566C105.238 17.3545 103.987 17.1758 101.689 17.1758C98.4986 17.1758 96.7883 17.1503 96.7883 21.1324V27.2333C96.7883 31.2154 98.4986 31.1899 101.689 31.1899C103.987 31.1899 105.238 31.0112 105.85 30.9091C106.131 30.8836 106.233 30.7815 106.233 30.5007V29.2754C106.233 29.0712 106.054 28.8925 105.85 28.8925H100.975C99.5197 28.8925 99.4431 28.8415 99.4431 27.2333V25.0635Z" fill="#E9ECF7"/>
<path d="M61.3313 25.0635H67.5087C67.7129 25.0635 67.8916 24.8848 67.8916 24.6806V23.2766C67.8916 23.0724 67.7129 22.8937 67.5087 22.8937H61.3313V21.1324C61.3313 19.5242 61.3823 19.4732 62.8629 19.4732H67.7385C67.9427 19.4732 68.1214 19.2945 68.1214 19.0903V17.865C68.1214 17.5842 68.0193 17.5076 67.7385 17.4566C67.1258 17.3545 65.875 17.1758 63.5776 17.1758C60.3868 17.1758 58.6765 17.1503 58.6765 21.1324V27.2333C58.6765 31.2154 60.3868 31.1899 63.5776 31.1899C65.875 31.1899 67.1258 31.0112 67.7385 30.9091C68.0193 30.8836 68.1214 30.7815 68.1214 30.5007V29.2754C68.1214 29.0712 67.9427 28.8925 67.7385 28.8925H62.8629C61.4079 28.8925 61.3313 28.8415 61.3313 27.2333V25.0635Z" fill="#E9ECF7"/>
<path d="M120.58 30.6283L117.568 25.4719C119.15 24.8593 120.171 23.7361 120.171 21.694V21.5408C120.171 18.2479 117.44 17.1758 114.453 17.1758C113.049 17.1758 110.88 17.2779 109.884 17.431C109.501 17.4821 109.271 17.6353 109.271 18.0182V30.6538C109.271 30.858 109.45 31.0367 109.654 31.0367H111.594C111.799 31.0367 111.952 30.858 111.952 30.6538V25.8804C112.386 25.9059 113.943 25.9569 114.453 25.9569H114.887L117.67 30.6283C117.772 30.807 117.848 31.0112 118.053 31.0112H120.401C120.554 31.0112 120.631 30.9091 120.631 30.7815C120.631 30.7304 120.605 30.6794 120.58 30.6283ZM117.491 21.694C117.491 23.3787 116.419 23.7616 114.428 23.7616C114.096 23.7616 112.233 23.7106 111.926 23.7106V19.5498C112.258 19.4987 114.019 19.4732 114.428 19.4732C116.368 19.4732 117.491 20.0858 117.491 21.5408V21.694Z" fill="#E9ECF7"/>
<path d="M56.5843 30.6283L53.5466 25.4719C55.1293 24.8593 56.1504 23.7361 56.1504 21.694V21.5408C56.1504 18.2479 53.419 17.1758 50.4324 17.1758C49.0284 17.1758 46.8587 17.2779 45.8631 17.431C45.4802 17.4821 45.2505 17.6353 45.2505 18.0182V30.6538C45.2505 30.858 45.4292 31.0367 45.6334 31.0367H47.5734C47.7776 31.0367 47.9308 30.858 47.9308 30.6538V25.8804C48.3647 25.9059 49.9219 25.9569 50.4324 25.9569H50.8663L53.6487 30.6283C53.7509 30.807 53.8274 31.0112 54.0316 31.0112H56.3801C56.5333 31.0112 56.6098 30.9091 56.6098 30.7815C56.6098 30.7304 56.6098 30.6794 56.5843 30.6283ZM53.4956 21.694C53.4956 23.3787 52.4235 23.7616 50.4579 23.7616C50.1261 23.7616 48.2626 23.7106 47.9563 23.7106V19.5498C48.2882 19.4987 50.0495 19.4732 50.4579 19.4732C52.3979 19.4732 53.4956 20.0858 53.4956 21.5408V21.694Z" fill="#E9ECF7"/>
</g>
<defs>
<clipPath id="clip0_1045_2416">
<rect width="131.998" height="47.9993" fill="white" transform="translate(0.401367)"/>
</clipPath>
</defs>
</svg>
