<svg width="693" height="152" viewBox="0 0 693 152" fill="none" xmlns="http://www.w3.org/2000/svg">
<g clip-path="url(#clip0_3353_36380)">
<path d="M468.994 0.163243C468.398 0.217432 466.584 0.407094 464.933 0.569661C450.965 1.92438 437.24 7.50585 426.493 16.1761C423.109 18.9126 417.614 24.5483 415.097 27.9351C406.894 38.8271 401.967 51.4531 400.235 65.9757C399.666 70.5818 399.612 80.2545 400.072 84.9418C402.834 112.009 416.558 132.899 438.675 143.737C445.334 146.988 451.858 149.102 459.275 150.348C469.183 152.028 480.742 151.919 490.108 150.077C525.3 143.114 548.445 113.635 548.445 75.7297C548.445 49.0959 536.832 26.0114 516.637 12.4912C507.136 6.12403 496.551 2.24952 484.424 0.650944C481.338 0.271621 471.294 -0.0806068 468.994 0.163243ZM477.521 27.908C495.522 29.5066 506.188 41.8345 509.518 64.8919C510.086 68.8477 510.005 83.262 509.355 87.6513C506.757 105.967 498.5 117.997 485.669 122.197C481.581 123.524 478.414 123.904 472.837 123.741C468.75 123.633 467.45 123.497 465.177 122.928C450.369 119.162 441.409 106.888 438.648 86.5675C437.971 81.6634 437.971 69.8231 438.621 65.0274C440.922 48.4998 447.337 37.2285 457.624 31.6741C461.414 29.6149 465.799 28.3415 470.374 27.9351C473.866 27.6099 474.11 27.6099 477.521 27.908Z" fill="#627D98"/>
<path d="M211.284 0.569405C202.189 1.65318 191.767 4.90452 184.079 9.02288C166.212 18.6143 152.298 37.3366 147.696 57.9826C146.072 65.3794 145.503 71.4485 145.72 79.5227C146.099 93.2325 148.752 104.45 154.058 114.881C164.425 135.283 184.16 147.882 210.743 151.079C218.837 152.028 229.042 151.865 237.407 150.619C253.379 148.234 272.598 141.515 277.85 136.502L279.177 135.229L279.014 133.522C278.906 132.303 277.931 129.187 275.603 122.603C271.813 111.982 271.759 111.874 269.133 111.684C267.618 111.575 267.374 111.657 263.503 113.526C248.804 120.625 236.405 123.524 223.98 122.738C210.662 121.926 202.459 118.674 195.177 111.359C189.059 105.262 185.919 98.7598 184.485 89.2225L184.295 88.0575H233.834H283.345L284.536 87.4343C285.403 86.9737 285.89 86.4589 286.404 85.4564L287.081 84.1288L287.054 74.5102C287.027 67.4928 286.892 63.8079 286.567 60.8275C283.048 29.4792 266.183 8.96869 238.436 2.30345C232.534 0.894538 228.907 0.488121 220.894 0.406838C216.807 0.352649 212.475 0.433932 211.284 0.569405ZM226.038 28.3141C241.332 30.6714 250.888 41.8885 251.673 58.4432L251.836 61.7758H218.052H184.295L184.485 60.4753C185.026 56.8717 186.867 51.3174 188.762 47.5241C192.2 40.6963 198.074 34.7084 204.517 31.4842C207.63 29.9398 212.178 28.5851 215.886 28.0974C217.943 27.8264 223.709 27.9619 226.038 28.3141Z" fill="#627D98"/>
<path d="M370.728 0.433697C358.736 1.30072 352.699 2.33031 345.444 4.74172C332.721 9.02264 323.165 16.9884 317.67 27.9075C314.774 33.6786 313.285 40.3439 312.364 51.6152C312.148 54.162 312.012 69.6601 311.931 98.7595C311.823 137.396 311.85 142.327 312.229 144.143C312.77 146.717 313.718 148.126 315.505 149.02L316.858 149.697L329.392 149.778C337.323 149.833 342.467 149.751 343.468 149.562C345.471 149.209 346.96 148.153 347.826 146.446L348.53 145.118L348.693 99.5724C348.855 51.1546 348.828 51.4255 350.182 46.0608C351.156 42.1321 352.645 39.3685 355.217 36.6861C359.548 32.1613 364.745 29.7499 372.352 28.6932C375.898 28.1784 383.803 28.2597 388.594 28.8287C395.579 29.6415 396.418 29.5332 397.419 27.474C398.015 26.2005 401.723 8.39947 401.723 6.71961C401.723 4.98557 400.83 3.38699 399.477 2.73673C396.824 1.46329 388.73 0.542075 379.255 0.433697C375.303 0.379508 371.486 0.379508 370.728 0.433697Z" fill="#627D98"/>
<path d="M7.17401 2.38474C5.68515 2.87245 4.87304 4.01041 4.87304 5.63608C4.87304 9.42931 12.3715 26.4175 19.0579 37.8514C25.6901 49.1498 34.109 61.2881 42.8527 72.1801L46.1011 76.2172L43.34 78.7641C29.128 92.0404 14.7808 112.307 5.71222 131.842C3.38417 136.882 0.75835 143.33 0.244014 145.281C-0.216181 147.015 0.244014 148.559 1.43511 149.318C2.27429 149.833 2.78862 149.833 16.784 149.779C30.9688 149.697 31.2937 149.697 32.5389 149.101C34.2173 148.343 35.1918 146.934 37.4657 142.03C45.2349 125.339 55.1968 110.031 66.6746 97.1612L67.8386 95.8607L70.4915 98.6514C80.697 109.435 90.2528 124.635 97.5077 141.542C99.6733 146.663 99.944 147.151 101.189 148.261C102.922 149.833 103.355 149.86 121.167 149.779C136.922 149.697 137.112 149.697 138.221 149.101C140.468 147.909 140.495 146.284 138.411 141.081C136.191 135.554 130.479 124.283 126.798 118.132C117.621 102.797 107.659 89.5206 95.8293 76.9487L92.3914 73.291L94.4216 71.1234C105.52 59.3373 117.486 43.5683 124.524 31.43C130.29 21.4593 135.92 8.61647 135.948 5.31095C135.948 4.11879 135.839 3.84785 135.135 3.22467C134.621 2.76407 133.836 2.41184 133.132 2.30346C132.483 2.22218 126.175 2.16799 119.11 2.22218L106.251 2.30346L104.952 3.06211C103.409 3.98332 102.434 5.39223 98.807 12.0575C92.0395 24.4938 83.1333 38.014 76.2575 46.332C74.0918 48.9601 71.9803 51.209 71.6826 51.209C71.4119 51.209 68.9755 48.1473 66.4309 44.5708C60.3401 35.9819 53.2477 23.681 48.5916 13.5477C47.59 11.3801 46.2906 8.53519 45.668 7.23466C44.2874 4.25426 42.9339 2.89954 40.9036 2.46603C39.3877 2.14089 8.17562 2.08671 7.17401 2.38474Z" fill="#627D98"/>
<path d="M559.625 2.54707C558.623 3.00767 557.946 3.92888 557.757 5.17523C557.486 6.7738 560.274 14.6041 563.875 22.4886C570.399 36.7945 582.391 55.4897 595.628 72.0715C597.117 73.941 598.47 75.6209 598.606 75.8105C598.795 76.0544 597.334 77.7071 593.083 82.0423C584.556 90.6854 578.845 97.73 572.131 107.836C564.903 118.728 559.354 129.241 554.806 140.729C552.695 146.039 552.532 147.367 553.832 148.803L554.617 149.697H569.478C584.231 149.697 584.313 149.697 585.423 149.101C587.074 148.207 588.048 146.934 589.618 143.547C591.622 139.266 595.547 131.571 597.658 127.886C603.857 116.886 612.412 104.883 619.206 97.6216L620.695 96.0501L622.482 97.8112C632.119 107.186 643.028 124.283 650.337 141.406C653.18 148.071 653.965 149.047 656.807 149.562C657.754 149.751 664.062 149.833 674.105 149.778C691.647 149.697 691.322 149.724 692.459 147.882C693.19 146.69 693.135 145.931 692.215 143.411C684.825 123.443 666.309 95.156 648.767 77.0298L645.275 73.3991L646.06 72.5321C667.283 49.556 681.224 28.3952 687.965 8.99555C689.021 5.90678 689.129 4.95847 688.56 3.82051C687.775 2.30322 687.748 2.30322 673.807 2.22193C665.361 2.16774 660.489 2.24903 659.568 2.43869C656.915 2.98058 656.266 3.79341 651.582 12.3282C644.057 25.9838 634.799 39.7749 627.382 48.418C625.92 50.0979 624.702 51.4797 624.675 51.4797C624.431 51.4797 619.856 45.3292 617.393 41.7257C610.733 31.8633 605.076 21.5403 599.31 8.86008C597.496 4.823 596.738 3.73922 595.195 2.89929L594.058 2.30322L577.274 2.24903C563.387 2.19484 560.355 2.24903 559.625 2.54707Z" fill="#627D98"/>
</g>
<defs>
<clipPath id="clip0_3353_36380">
<rect width="693" height="152" fill="white"/>
</clipPath>
</defs>
</svg>
