<svg width="1000" height="225" viewBox="0 0 1000 225" fill="none" xmlns="http://www.w3.org/2000/svg">
<g clip-path="url(#clip0_12_2)">
<path fill-rule="evenodd" clip-rule="evenodd" d="M814.186 67.3887C818.008 73.9837 819.259 81.487 819.672 89.9224L820.214 101.166V179.786L820.769 191.041C821.878 209.422 835.433 223.013 853.956 224.169L865.152 224.723V101.166L865.706 89.9224C866.166 81.5814 867.405 73.9365 871.287 67.2943C875.242 60.4815 880.92 54.8292 887.75 50.9047C894.581 46.9803 902.323 44.9219 910.201 44.9363C918.079 44.9506 925.814 47.0372 932.63 50.9865C939.446 54.9357 945.103 60.6088 949.034 67.4359C952.856 74.0308 954.048 81.6758 954.508 89.9224L955.062 101.13V179.786L955.617 191.041C956.773 209.516 970.223 223.107 988.804 224.169L1000 224.723V89.9224C1000 66.0859 990.533 43.2252 973.682 26.3669C956.83 9.50861 933.973 0.033012 910.137 0.0236271C897.379 0.0101726 884.765 2.71947 873.138 7.97051C861.51 13.2216 851.138 20.8934 842.713 30.4736C834.283 20.8972 823.91 13.2272 812.284 7.97458C800.658 2.72198 788.046 0.00743837 775.288 0.0118271C756.624 0.0118271 739.305 5.67475 724.959 15.4551C716.205 5.68654 696.621 0.0118271 685.378 0.0118271V224.723L696.621 224.169C715.427 222.93 729.018 209.705 729.749 191.041L730.351 179.786V101.166L730.905 89.9224C731.377 81.4398 732.557 73.9837 736.391 67.3415C740.35 60.533 746.025 54.8819 752.851 50.9527C759.676 47.0234 767.413 44.9535 775.288 44.9494C783.17 44.9511 790.913 47.0252 797.74 50.9637C804.567 54.9022 810.239 60.5666 814.186 67.3887ZM44.9376 224.181L56.1808 224.723H224.712L224.157 213.516C222.635 195.04 209.551 181.544 191.017 180.34L179.774 179.786H78.6673L213.468 44.9376L212.914 33.7416C212.041 15.0775 198.403 1.59273 179.774 0.566317L168.531 0.0590171L0 0.0118271L0.554494 11.2551C2.02921 29.5534 15.3017 43.3331 33.6825 44.3949L44.9376 44.9494H146.044L11.2432 179.798L11.7977 191.041C12.9067 209.563 26.2736 222.977 44.9376 224.169V224.181ZM641.266 32.9039C651.701 43.3369 659.979 55.7233 665.627 69.3558C671.274 82.9883 674.181 97.5998 674.181 112.356C674.181 127.112 671.274 141.723 665.627 155.356C659.979 168.988 651.701 181.375 641.266 191.808C620.184 212.873 591.6 224.706 561.797 224.706C531.993 224.706 503.41 212.873 482.327 191.808C438.451 147.932 438.451 76.7797 482.327 32.9039C492.753 22.4744 505.13 14.2007 518.754 8.55498C532.377 2.90931 546.979 0.002329 561.726 2.70852e-05C576.497 -0.0102278 591.124 2.89163 604.773 8.53962C618.421 14.1876 630.822 22.4709 641.266 32.9157V32.9039ZM609.471 64.7224C622.109 77.3699 629.208 94.5177 629.208 112.397C629.208 130.276 622.109 147.424 609.471 160.072C596.824 172.71 579.676 179.809 561.797 179.809C543.917 179.809 526.769 172.71 514.122 160.072C501.484 147.424 494.385 130.276 494.385 112.397C494.385 94.5177 501.484 77.3699 514.122 64.7224C526.769 52.0846 543.917 44.9855 561.797 44.9855C579.676 44.9855 596.824 52.0846 609.471 64.7224ZM325.913 2.70852e-05C340.66 0.00387839 355.263 2.91272 368.886 8.56043C382.509 14.2081 394.887 22.4841 405.311 32.9157C449.199 76.7797 449.199 147.944 405.311 191.808C384.229 212.873 355.645 224.706 325.842 224.706C296.039 224.706 267.455 212.873 246.372 191.808C202.496 147.932 202.496 76.7797 246.372 32.9039C256.798 22.4744 269.176 14.2007 282.799 8.55498C296.422 2.90931 311.024 0.002329 325.771 2.70852e-05H325.913ZM373.516 64.6988C386.158 77.3467 393.259 94.4971 393.259 112.379C393.259 130.262 386.158 147.412 373.516 160.06C360.869 172.698 343.721 179.797 325.842 179.797C307.962 179.797 290.815 172.698 278.167 160.06C265.529 147.413 258.43 130.265 258.43 112.385C258.43 94.5059 265.529 77.358 278.167 64.7106C290.815 52.0728 307.962 44.9737 325.842 44.9737C343.721 44.9737 360.869 52.0728 373.516 64.7106V64.6988Z" fill="#2C374F"/>
</g>
<defs>
<clipPath id="clip0_12_2">
<rect width="1000" height="224.723" fill="white"/>
</clipPath>
</defs>
</svg>
