<svg width="70%" height="70%" viewBox="0 0 352 80" fill="#151b27" xmlns="http://www.w3.org/2000/svg">
<g clip-path="url(#clip0_311_14747)">
<path d="M73.7864 78.835H10.8791C6.46546 78.835 2.52203 76.1999 0.833054 72.1223C-0.855926 68.0446 0.0694444 63.3928 3.19045 60.2723L46.7639 16.699H15.534C6.95479 16.699 4.38363e-06 9.74425 4.38363e-06 1.16505H58.0143C62.4276 1.16505 66.3708 3.7993 68.06 7.87697C69.7494 11.9546 68.8246 16.6057 65.7039 19.7277L22.1303 63.301H58.2524C66.8316 63.301 73.7864 70.2558 73.7864 78.835ZM351.845 30.2913C351.845 13.5884 338.256 0 321.553 0C312.619 0 304.578 3.89032 299.029 10.0633C293.48 3.89032 285.439 0 276.505 0C259.802 0 246.214 13.5884 246.214 30.2913V78.835C254.793 78.835 261.748 71.8802 261.748 63.301V30.2913C261.748 22.1541 268.368 15.534 276.505 15.534C284.642 15.534 291.262 22.1541 291.262 30.2913V63.301C291.262 71.8801 298.217 78.8349 306.796 78.8349V30.2913C306.796 22.1541 313.416 15.534 321.553 15.534C329.691 15.534 336.311 22.1541 336.311 30.2913V63.301C336.311 71.8801 343.265 78.8349 351.845 78.8349V30.2913ZM238.447 40C238.447 62.0914 220.538 80 198.447 80C176.355 80 158.447 62.0914 158.447 40C158.447 17.9086 176.355 0 198.447 0C220.538 0 238.447 17.9086 238.447 40ZM222.913 40C222.913 26.4878 211.959 15.534 198.447 15.534C184.934 15.534 173.981 26.4878 173.981 40C173.981 53.5122 184.934 64.466 198.447 64.466C211.959 64.466 222.913 53.5122 222.913 40ZM152.233 40C152.233 62.0914 134.324 80 112.233 80C90.1416 80 72.233 62.0914 72.233 40C72.233 17.9086 90.1417 0 112.233 0C134.324 0 152.233 17.9086 152.233 40ZM136.699 40C136.699 26.4878 125.745 15.534 112.233 15.534C98.7208 15.534 87.767 26.4878 87.767 40C87.767 53.5122 98.7208 64.466 112.233 64.466C125.745 64.466 136.699 53.5122 136.699 40Z" fill="#151b27"/>
</g>
<defs>
<clipPath id="clip0_311_14747">
<rect width="351.845" height="80" fill="white"/>
</clipPath>
</defs>
</svg>
